%TF.GenerationSoftware,KiCad,Pcbnew,5.1.5*%
%TF.CreationDate,2020-04-14T20:04:17+02:00*%
%TF.ProjectId,daq_4ch_24bit,6461715f-3463-4685-9f32-346269742e6b,1.1.0*%
%TF.SameCoordinates,Original*%
%TF.FileFunction,Legend,Bot*%
%TF.FilePolarity,Positive*%
%FSLAX46Y46*%
G04 Gerber Fmt 4.6, Leading zero omitted, Abs format (unit mm)*
G04 Created by KiCad (PCBNEW 5.1.5) date 2020-04-14 20:04:17*
%MOMM*%
%LPD*%
G04 APERTURE LIST*
%ADD10C,0.050000*%
%ADD11C,0.902000*%
%ADD12C,6.502000*%
%ADD13R,2.602000X2.602000*%
%ADD14C,1.902000*%
%ADD15R,1.902000X1.902000*%
%ADD16C,3.602000*%
%ADD17C,1.802000*%
%ADD18R,1.802000X1.802000*%
%ADD19O,2.602000X1.702000*%
%ADD20O,7.102000X3.602000*%
G04 APERTURE END LIST*
D10*
X150000000Y-57500000D02*
X150000000Y-157500000D01*
X50000000Y-157500000D02*
X50000000Y-57500000D01*
X50000000Y-157500000D02*
X150000000Y-157500000D01*
X50000000Y-57500000D02*
X150000000Y-57500000D01*
%LPC*%
D11*
X124197056Y-63302944D03*
X122500000Y-62600000D03*
X120802944Y-63302944D03*
X120100000Y-65000000D03*
X120802944Y-66697056D03*
X122500000Y-67400000D03*
X124197056Y-66697056D03*
X124900000Y-65000000D03*
D12*
X122500000Y-65000000D03*
D11*
X84197056Y-63302944D03*
X82500000Y-62600000D03*
X80802944Y-63302944D03*
X80100000Y-65000000D03*
X80802944Y-66697056D03*
X82500000Y-67400000D03*
X84197056Y-66697056D03*
X84900000Y-65000000D03*
D12*
X82500000Y-65000000D03*
D11*
X124197056Y-148302944D03*
X122500000Y-147600000D03*
X120802944Y-148302944D03*
X120100000Y-150000000D03*
X120802944Y-151697056D03*
X122500000Y-152400000D03*
X124197056Y-151697056D03*
X124900000Y-150000000D03*
D12*
X122500000Y-150000000D03*
D11*
X84197056Y-148302944D03*
X82500000Y-147600000D03*
X80802944Y-148302944D03*
X80100000Y-150000000D03*
X80802944Y-151697056D03*
X82500000Y-152400000D03*
X84197056Y-151697056D03*
X84900000Y-150000000D03*
D12*
X82500000Y-150000000D03*
D13*
X113665000Y-85090000D03*
X116840000Y-109474000D03*
X116840000Y-103505000D03*
X126365000Y-113665000D03*
D14*
X143510000Y-116840000D03*
D15*
X143510000Y-119380000D03*
D16*
X142210000Y-149770000D03*
X142210000Y-137730000D03*
D17*
X139500000Y-142500000D03*
X139500000Y-145000000D03*
X137500000Y-145000000D03*
D18*
X137500000Y-142500000D03*
D13*
X122555000Y-123825000D03*
X122555000Y-135890000D03*
X131445000Y-119380000D03*
X124460000Y-92710000D03*
X139700000Y-122555000D03*
D19*
X137500000Y-92460000D03*
X137500000Y-95000000D03*
D20*
X142580000Y-100080000D03*
X142580000Y-89920000D03*
D19*
X137500000Y-67460000D03*
X137500000Y-70000000D03*
D20*
X142580000Y-75080000D03*
X142580000Y-64920000D03*
D19*
X62500000Y-72540000D03*
X62500000Y-70000000D03*
D20*
X57420000Y-64920000D03*
X57420000Y-75080000D03*
D19*
X62500000Y-97540000D03*
X62500000Y-95000000D03*
D20*
X57420000Y-89920000D03*
X57420000Y-100080000D03*
D19*
X62500000Y-147540000D03*
X62500000Y-145000000D03*
D20*
X57420000Y-139920000D03*
X57420000Y-150080000D03*
D19*
X62500000Y-122540000D03*
X62500000Y-120000000D03*
D20*
X57420000Y-114920000D03*
X57420000Y-125080000D03*
M02*
