M48
; DRILL file {KiCad 5.1.5} date wto, 14 kwi 2020, 20:04:36
; FORMAT={-:-/ absolute / inch / decimal}
; #@! TF.CreationDate,2020-04-14T20:04:36+02:00
; #@! TF.GenerationSoftware,Kicad,Pcbnew,5.1.5
FMAT,2
INCH
T1C0.0157
T2C0.0197
T3C0.0350
T4C0.0354
T5C0.0362
T6C0.0472
T7C0.0791
T8C0.0917
T9C0.1260
%
G90
G05
T1
X2.725Y-3.1422
X2.725Y-4.1407
X2.725Y-5.1185
X2.8Y-2.8472
X2.8Y-3.8407
X2.8Y-4.8185
X2.8Y-5.8185
X2.875Y-2.8472
X2.875Y-3.8407
X2.875Y-4.8185
X2.875Y-5.8185
X2.95Y-2.8472
X2.95Y-3.8407
X2.95Y-4.8185
X2.95Y-5.8185
X2.95Y-5.97
X2.9684Y-4.5316
X2.9723Y-3.6277
X2.9738Y-3.5538
X2.975Y-4.605
X2.975Y-5.53
X2.975Y-5.605
X2.9773Y-2.5627
X2.98Y-2.635
X3.105Y-3.51
X3.105Y-3.555
X3.125Y-4.505
X3.1251Y-4.4655
X3.17Y-2.875
X3.19Y-3.015
X3.195Y-4.465
X3.195Y-4.505
X3.2Y-2.84
X3.225Y-2.98
X3.255Y-3.57
X3.2928Y-3.5372
X3.5Y-3.7
X3.5Y-3.775
X3.525Y-3.95
X3.55Y-3.875
X3.62Y-3.45
X3.625Y-3.25
X3.6369Y-3.9081
X3.675Y-2.725
X3.7Y-3.2
X3.73Y-2.89
X3.775Y-2.525
X3.785Y-2.765
X3.91Y-4.095
X3.915Y-3.86
X3.92Y-3.575
X3.92Y-3.65
X3.92Y-3.725
X3.925Y-3.1
X3.925Y-4.6
X3.93Y-5.0
X4.0Y-3.75
X4.015Y-3.885
X4.025Y-3.4
X4.05Y-3.05
X4.12Y-3.22
X4.135Y-2.91
X4.135Y-3.08
X4.16Y-3.28
X4.165Y-3.69
X4.165Y-3.885
X4.195Y-2.78
X4.21Y-3.055
X4.22Y-2.59
X4.225Y-3.5988
X4.225Y-3.7873
X4.265Y-3.6865
X4.275Y-2.75
X4.275Y-4.05
X4.285Y-3.9
X4.3Y-3.36
X4.35Y-3.25
X4.42Y-4.05
X4.42Y-4.15
X4.48Y-3.95
X4.54Y-3.61
X4.58Y-3.72
X4.68Y-4.925
X4.715Y-5.015
X4.72Y-4.21
X4.725Y-3.975
X4.82Y-4.21
X4.825Y-3.975
X4.93Y-5.2948
X4.955Y-4.05
X4.98Y-4.325
X5.025Y-4.85
X5.03Y-5.56
X5.075Y-3.975
X5.075Y-4.145
X5.09Y-5.495
X5.1Y-4.975
X5.12Y-4.36
X5.125Y-4.475
X5.175Y-5.995
X5.1854Y-5.4134
X5.1915Y-4.9533
X5.225Y-4.475
X5.26Y-4.82
X5.265Y-5.295
X5.285Y-5.515
X5.305Y-5.075
X5.32Y-4.21
X5.35Y-4.825
X5.355Y-4.55
X5.37Y-4.41
X5.395Y-4.675
X5.4276Y-4.5874
X5.44Y-5.03
X5.445Y-4.29
X5.475Y-4.475
X5.485Y-4.37
X5.595Y-4.415
X5.625Y-5.175
X5.725Y-4.825
X5.725Y-4.925
X5.75Y-5.175
X5.805Y-4.995
X5.805Y-5.105
T2
X4.7283Y-2.5591
X4.756Y-2.4922
X4.756Y-2.6259
X4.8228Y-2.4646
X4.8228Y-2.6535
X4.8896Y-2.4922
X4.8896Y-2.6259
X4.9173Y-2.5591
X4.7283Y-5.9055
X4.756Y-5.8387
X4.756Y-5.9723
X4.8228Y-5.811
X4.8228Y-6.0
X4.8896Y-5.8387
X4.8896Y-5.9723
X4.9173Y-5.9055
X3.1535Y-5.9055
X3.1812Y-5.8387
X3.1812Y-5.9723
X3.248Y-5.811
X3.248Y-6.0
X3.3148Y-5.8387
X3.3148Y-5.9723
X3.3425Y-5.9055
X3.1535Y-2.5591
X3.1812Y-2.4922
X3.1812Y-2.6259
X3.248Y-2.4646
X3.248Y-2.6535
X3.3148Y-2.4922
X3.3148Y-2.6259
X3.3425Y-2.5591
T3
X2.4606Y-5.7087
X2.4606Y-5.8087
X2.4606Y-2.7559
X2.4606Y-2.8559
X2.4606Y-4.7244
X2.4606Y-4.8244
X2.4606Y-3.7402
X2.4606Y-3.8402
X5.4134Y-2.6559
X5.4134Y-2.7559
X5.4134Y-3.6402
X5.4134Y-3.7402
T4
X5.65Y-4.6
X5.65Y-4.7
T5
X5.4134Y-5.6102
X5.4134Y-5.7087
X5.4921Y-5.6102
X5.4921Y-5.7087
T6
X5.5Y-4.825
X4.6Y-4.075
X4.825Y-5.35
X5.175Y-4.7
X4.6Y-4.31
X4.975Y-4.475
X4.475Y-3.35
X4.9Y-3.65
X4.825Y-4.875
T7
X2.2606Y-5.5087
X2.2606Y-5.9087
X2.2606Y-2.5559
X2.2606Y-2.9559
X2.2606Y-4.5244
X2.2606Y-4.9244
X2.2606Y-3.5402
X2.2606Y-3.9402
X5.6134Y-2.5559
X5.6134Y-2.9559
X5.6134Y-3.5402
X5.6134Y-3.9402
T8
X5.5988Y-5.4224
X5.5988Y-5.8965
T9
X4.8228Y-2.5591
X4.8228Y-5.9055
X3.248Y-5.9055
X3.248Y-2.5591
T0
M30
