%TF.GenerationSoftware,KiCad,Pcbnew,5.1.5*%
%TF.CreationDate,2020-04-14T20:04:17+02:00*%
%TF.ProjectId,daq_4ch_24bit,6461715f-3463-4685-9f32-346269742e6b,1.1.0*%
%TF.SameCoordinates,Original*%
%TF.FileFunction,Soldermask,Bot*%
%TF.FilePolarity,Negative*%
%FSLAX46Y46*%
G04 Gerber Fmt 4.6, Leading zero omitted, Abs format (unit mm)*
G04 Created by KiCad (PCBNEW 5.1.5) date 2020-04-14 20:04:17*
%MOMM*%
%LPD*%
G04 APERTURE LIST*
%ADD10C,0.050000*%
%ADD11C,0.100000*%
G04 APERTURE END LIST*
D10*
X150000000Y-57500000D02*
X150000000Y-157500000D01*
X50000000Y-157500000D02*
X50000000Y-57500000D01*
X50000000Y-157500000D02*
X150000000Y-157500000D01*
X50000000Y-57500000D02*
X150000000Y-57500000D01*
D11*
G36*
X123134239Y-146811467D02*
G01*
X123448282Y-146873934D01*
X124039926Y-147119001D01*
X124572392Y-147474784D01*
X125025216Y-147927608D01*
X125380999Y-148460074D01*
X125626066Y-149051718D01*
X125626066Y-149051719D01*
X125751000Y-149679803D01*
X125751000Y-150320197D01*
X125690750Y-150623092D01*
X125626066Y-150948282D01*
X125380999Y-151539926D01*
X125025216Y-152072392D01*
X124572392Y-152525216D01*
X124039926Y-152880999D01*
X123448282Y-153126066D01*
X123134239Y-153188533D01*
X122820197Y-153251000D01*
X122179803Y-153251000D01*
X121865761Y-153188533D01*
X121551718Y-153126066D01*
X120960074Y-152880999D01*
X120427608Y-152525216D01*
X119974784Y-152072392D01*
X119619001Y-151539926D01*
X119373934Y-150948282D01*
X119309250Y-150623092D01*
X119249000Y-150320197D01*
X119249000Y-149679803D01*
X119373934Y-149051719D01*
X119373934Y-149051718D01*
X119619001Y-148460074D01*
X119974784Y-147927608D01*
X120427608Y-147474784D01*
X120960074Y-147119001D01*
X121551718Y-146873934D01*
X121865761Y-146811467D01*
X122179803Y-146749000D01*
X122820197Y-146749000D01*
X123134239Y-146811467D01*
G37*
G36*
X83134239Y-146811467D02*
G01*
X83448282Y-146873934D01*
X84039926Y-147119001D01*
X84572392Y-147474784D01*
X85025216Y-147927608D01*
X85380999Y-148460074D01*
X85626066Y-149051718D01*
X85626066Y-149051719D01*
X85751000Y-149679803D01*
X85751000Y-150320197D01*
X85690750Y-150623092D01*
X85626066Y-150948282D01*
X85380999Y-151539926D01*
X85025216Y-152072392D01*
X84572392Y-152525216D01*
X84039926Y-152880999D01*
X83448282Y-153126066D01*
X83134239Y-153188533D01*
X82820197Y-153251000D01*
X82179803Y-153251000D01*
X81865761Y-153188533D01*
X81551718Y-153126066D01*
X80960074Y-152880999D01*
X80427608Y-152525216D01*
X79974784Y-152072392D01*
X79619001Y-151539926D01*
X79373934Y-150948282D01*
X79309250Y-150623092D01*
X79249000Y-150320197D01*
X79249000Y-149679803D01*
X79373934Y-149051719D01*
X79373934Y-149051718D01*
X79619001Y-148460074D01*
X79974784Y-147927608D01*
X80427608Y-147474784D01*
X80960074Y-147119001D01*
X81551718Y-146873934D01*
X81865761Y-146811467D01*
X82179803Y-146749000D01*
X82820197Y-146749000D01*
X83134239Y-146811467D01*
G37*
G36*
X59346669Y-148287686D02*
G01*
X59523058Y-148305059D01*
X59862548Y-148408042D01*
X59862550Y-148408043D01*
X60175422Y-148575277D01*
X60175424Y-148575278D01*
X60175423Y-148575278D01*
X60449661Y-148800339D01*
X60674722Y-149074577D01*
X60841958Y-149387452D01*
X60944941Y-149726942D01*
X60979714Y-150080000D01*
X60944941Y-150433058D01*
X60841958Y-150772548D01*
X60841957Y-150772550D01*
X60674723Y-151085422D01*
X60449661Y-151359661D01*
X60175422Y-151584723D01*
X59862550Y-151751957D01*
X59862548Y-151751958D01*
X59523058Y-151854941D01*
X59346669Y-151872314D01*
X59258476Y-151881000D01*
X55581524Y-151881000D01*
X55493331Y-151872314D01*
X55316942Y-151854941D01*
X54977452Y-151751958D01*
X54977450Y-151751957D01*
X54664578Y-151584723D01*
X54390339Y-151359661D01*
X54165277Y-151085422D01*
X53998043Y-150772550D01*
X53998042Y-150772548D01*
X53895059Y-150433058D01*
X53860286Y-150080000D01*
X53895059Y-149726942D01*
X53998042Y-149387452D01*
X54165278Y-149074577D01*
X54390339Y-148800339D01*
X54664577Y-148575278D01*
X54664576Y-148575278D01*
X54664578Y-148575277D01*
X54977450Y-148408043D01*
X54977452Y-148408042D01*
X55316942Y-148305059D01*
X55493331Y-148287686D01*
X55581524Y-148279000D01*
X59258476Y-148279000D01*
X59346669Y-148287686D01*
G37*
G36*
X142735331Y-148038211D02*
G01*
X143063092Y-148173974D01*
X143358070Y-148371072D01*
X143608928Y-148621930D01*
X143806026Y-148916908D01*
X143941789Y-149244669D01*
X144011000Y-149592616D01*
X144011000Y-149947384D01*
X143941789Y-150295331D01*
X143806026Y-150623092D01*
X143608928Y-150918070D01*
X143358070Y-151168928D01*
X143063092Y-151366026D01*
X142735331Y-151501789D01*
X142387384Y-151571000D01*
X142032616Y-151571000D01*
X141684669Y-151501789D01*
X141356908Y-151366026D01*
X141061930Y-151168928D01*
X140811072Y-150918070D01*
X140613974Y-150623092D01*
X140478211Y-150295331D01*
X140409000Y-149947384D01*
X140409000Y-149592616D01*
X140478211Y-149244669D01*
X140613974Y-148916908D01*
X140811072Y-148621930D01*
X141061930Y-148371072D01*
X141356908Y-148173974D01*
X141684669Y-148038211D01*
X142032616Y-147969000D01*
X142387384Y-147969000D01*
X142735331Y-148038211D01*
G37*
G36*
X63116823Y-146701313D02*
G01*
X63277242Y-146749976D01*
X63409906Y-146820886D01*
X63425078Y-146828996D01*
X63554659Y-146935341D01*
X63661004Y-147064922D01*
X63661005Y-147064924D01*
X63740024Y-147212758D01*
X63788687Y-147373177D01*
X63805117Y-147540000D01*
X63788687Y-147706823D01*
X63740024Y-147867242D01*
X63707757Y-147927609D01*
X63661004Y-148015078D01*
X63554659Y-148144659D01*
X63425078Y-148251004D01*
X63425076Y-148251005D01*
X63277242Y-148330024D01*
X63116823Y-148378687D01*
X62991804Y-148391000D01*
X62008196Y-148391000D01*
X61883177Y-148378687D01*
X61722758Y-148330024D01*
X61574924Y-148251005D01*
X61574922Y-148251004D01*
X61445341Y-148144659D01*
X61338996Y-148015078D01*
X61292243Y-147927609D01*
X61259976Y-147867242D01*
X61211313Y-147706823D01*
X61194883Y-147540000D01*
X61211313Y-147373177D01*
X61259976Y-147212758D01*
X61338995Y-147064924D01*
X61338996Y-147064922D01*
X61445341Y-146935341D01*
X61574922Y-146828996D01*
X61590094Y-146820886D01*
X61722758Y-146749976D01*
X61883177Y-146701313D01*
X62008196Y-146689000D01*
X62991804Y-146689000D01*
X63116823Y-146701313D01*
G37*
G36*
X137613512Y-144103927D02*
G01*
X137762812Y-144133624D01*
X137926784Y-144201544D01*
X138074354Y-144300147D01*
X138199853Y-144425646D01*
X138298456Y-144573216D01*
X138366376Y-144737188D01*
X138377405Y-144792638D01*
X138384516Y-144816078D01*
X138396067Y-144837689D01*
X138411613Y-144856631D01*
X138430555Y-144872176D01*
X138452165Y-144883727D01*
X138475614Y-144890840D01*
X138500000Y-144893242D01*
X138524387Y-144890840D01*
X138547835Y-144883727D01*
X138569446Y-144872176D01*
X138588388Y-144856630D01*
X138603933Y-144837688D01*
X138615484Y-144816078D01*
X138622595Y-144792638D01*
X138633624Y-144737188D01*
X138701544Y-144573216D01*
X138800147Y-144425646D01*
X138925646Y-144300147D01*
X139073216Y-144201544D01*
X139237188Y-144133624D01*
X139386488Y-144103927D01*
X139411258Y-144099000D01*
X139588742Y-144099000D01*
X139613512Y-144103927D01*
X139762812Y-144133624D01*
X139926784Y-144201544D01*
X140074354Y-144300147D01*
X140199853Y-144425646D01*
X140298456Y-144573216D01*
X140366376Y-144737188D01*
X140401000Y-144911259D01*
X140401000Y-145088741D01*
X140366376Y-145262812D01*
X140298456Y-145426784D01*
X140199853Y-145574354D01*
X140074354Y-145699853D01*
X139926784Y-145798456D01*
X139762812Y-145866376D01*
X139613512Y-145896073D01*
X139588742Y-145901000D01*
X139411258Y-145901000D01*
X139386488Y-145896073D01*
X139237188Y-145866376D01*
X139073216Y-145798456D01*
X138925646Y-145699853D01*
X138800147Y-145574354D01*
X138701544Y-145426784D01*
X138633624Y-145262812D01*
X138622595Y-145207362D01*
X138615484Y-145183922D01*
X138603933Y-145162311D01*
X138588387Y-145143369D01*
X138569445Y-145127824D01*
X138547835Y-145116273D01*
X138524386Y-145109160D01*
X138500000Y-145106758D01*
X138475613Y-145109160D01*
X138452165Y-145116273D01*
X138430554Y-145127824D01*
X138411612Y-145143370D01*
X138396067Y-145162312D01*
X138384516Y-145183922D01*
X138377405Y-145207362D01*
X138366376Y-145262812D01*
X138298456Y-145426784D01*
X138199853Y-145574354D01*
X138074354Y-145699853D01*
X137926784Y-145798456D01*
X137762812Y-145866376D01*
X137613512Y-145896073D01*
X137588742Y-145901000D01*
X137411258Y-145901000D01*
X137386488Y-145896073D01*
X137237188Y-145866376D01*
X137073216Y-145798456D01*
X136925646Y-145699853D01*
X136800147Y-145574354D01*
X136701544Y-145426784D01*
X136633624Y-145262812D01*
X136599000Y-145088741D01*
X136599000Y-144911259D01*
X136633624Y-144737188D01*
X136701544Y-144573216D01*
X136800147Y-144425646D01*
X136925646Y-144300147D01*
X137073216Y-144201544D01*
X137237188Y-144133624D01*
X137386488Y-144103927D01*
X137411258Y-144099000D01*
X137588742Y-144099000D01*
X137613512Y-144103927D01*
G37*
G36*
X63116823Y-144161313D02*
G01*
X63277242Y-144209976D01*
X63409906Y-144280886D01*
X63425078Y-144288996D01*
X63554659Y-144395341D01*
X63661004Y-144524922D01*
X63661005Y-144524924D01*
X63740024Y-144672758D01*
X63788687Y-144833177D01*
X63805117Y-145000000D01*
X63788687Y-145166823D01*
X63740024Y-145327242D01*
X63669114Y-145459906D01*
X63661004Y-145475078D01*
X63554659Y-145604659D01*
X63425078Y-145711004D01*
X63425076Y-145711005D01*
X63277242Y-145790024D01*
X63116823Y-145838687D01*
X62991804Y-145851000D01*
X62008196Y-145851000D01*
X61883177Y-145838687D01*
X61722758Y-145790024D01*
X61574924Y-145711005D01*
X61574922Y-145711004D01*
X61445341Y-145604659D01*
X61338996Y-145475078D01*
X61330886Y-145459906D01*
X61259976Y-145327242D01*
X61211313Y-145166823D01*
X61194883Y-145000000D01*
X61211313Y-144833177D01*
X61259976Y-144672758D01*
X61338995Y-144524924D01*
X61338996Y-144524922D01*
X61445341Y-144395341D01*
X61574922Y-144288996D01*
X61590094Y-144280886D01*
X61722758Y-144209976D01*
X61883177Y-144161313D01*
X62008196Y-144149000D01*
X62991804Y-144149000D01*
X63116823Y-144161313D01*
G37*
G36*
X138401000Y-142170383D02*
G01*
X138403402Y-142194769D01*
X138410515Y-142218218D01*
X138422066Y-142239829D01*
X138437611Y-142258771D01*
X138456553Y-142274316D01*
X138478164Y-142285867D01*
X138501613Y-142292980D01*
X138525999Y-142295382D01*
X138550385Y-142292980D01*
X138573834Y-142285867D01*
X138595445Y-142274316D01*
X138614387Y-142258771D01*
X138629932Y-142239829D01*
X138641477Y-142218229D01*
X138701544Y-142073216D01*
X138800147Y-141925646D01*
X138925646Y-141800147D01*
X139073216Y-141701544D01*
X139237188Y-141633624D01*
X139386488Y-141603927D01*
X139411258Y-141599000D01*
X139588742Y-141599000D01*
X139613512Y-141603927D01*
X139762812Y-141633624D01*
X139926784Y-141701544D01*
X140074354Y-141800147D01*
X140199853Y-141925646D01*
X140298456Y-142073216D01*
X140366376Y-142237188D01*
X140401000Y-142411259D01*
X140401000Y-142588741D01*
X140366376Y-142762812D01*
X140298456Y-142926784D01*
X140199853Y-143074354D01*
X140074354Y-143199853D01*
X139926784Y-143298456D01*
X139762812Y-143366376D01*
X139613512Y-143396073D01*
X139588742Y-143401000D01*
X139411258Y-143401000D01*
X139386488Y-143396073D01*
X139237188Y-143366376D01*
X139073216Y-143298456D01*
X138925646Y-143199853D01*
X138800147Y-143074354D01*
X138701544Y-142926784D01*
X138641477Y-142781771D01*
X138629932Y-142760171D01*
X138614387Y-142741229D01*
X138595445Y-142725684D01*
X138573834Y-142714133D01*
X138550385Y-142707020D01*
X138525999Y-142704618D01*
X138501613Y-142707020D01*
X138478164Y-142714133D01*
X138456553Y-142725684D01*
X138437611Y-142741229D01*
X138422066Y-142760171D01*
X138410515Y-142781782D01*
X138403402Y-142805231D01*
X138401000Y-142829617D01*
X138401000Y-143401000D01*
X136599000Y-143401000D01*
X136599000Y-141599000D01*
X138401000Y-141599000D01*
X138401000Y-142170383D01*
G37*
G36*
X59346669Y-138127686D02*
G01*
X59523058Y-138145059D01*
X59862548Y-138248042D01*
X59862550Y-138248043D01*
X60175422Y-138415277D01*
X60449661Y-138640339D01*
X60674722Y-138914577D01*
X60841958Y-139227452D01*
X60944941Y-139566942D01*
X60979714Y-139920000D01*
X60944941Y-140273058D01*
X60841958Y-140612548D01*
X60841957Y-140612550D01*
X60674723Y-140925422D01*
X60449661Y-141199661D01*
X60175422Y-141424723D01*
X59862550Y-141591957D01*
X59862548Y-141591958D01*
X59523058Y-141694941D01*
X59346669Y-141712314D01*
X59258476Y-141721000D01*
X55581524Y-141721000D01*
X55493331Y-141712314D01*
X55316942Y-141694941D01*
X54977452Y-141591958D01*
X54977450Y-141591957D01*
X54664578Y-141424723D01*
X54390339Y-141199661D01*
X54165277Y-140925422D01*
X53998043Y-140612550D01*
X53998042Y-140612548D01*
X53895059Y-140273058D01*
X53860286Y-139920000D01*
X53895059Y-139566942D01*
X53998042Y-139227452D01*
X54165278Y-138914577D01*
X54390339Y-138640339D01*
X54664578Y-138415277D01*
X54977450Y-138248043D01*
X54977452Y-138248042D01*
X55316942Y-138145059D01*
X55493331Y-138127686D01*
X55581524Y-138119000D01*
X59258476Y-138119000D01*
X59346669Y-138127686D01*
G37*
G36*
X142735331Y-135998211D02*
G01*
X143063092Y-136133974D01*
X143358070Y-136331072D01*
X143608928Y-136581930D01*
X143806026Y-136876908D01*
X143941789Y-137204669D01*
X144011000Y-137552616D01*
X144011000Y-137907384D01*
X143941789Y-138255331D01*
X143806026Y-138583092D01*
X143608928Y-138878070D01*
X143358070Y-139128928D01*
X143063092Y-139326026D01*
X142735331Y-139461789D01*
X142387384Y-139531000D01*
X142032616Y-139531000D01*
X141684669Y-139461789D01*
X141356908Y-139326026D01*
X141061930Y-139128928D01*
X140811072Y-138878070D01*
X140613974Y-138583092D01*
X140478211Y-138255331D01*
X140409000Y-137907384D01*
X140409000Y-137552616D01*
X140478211Y-137204669D01*
X140613974Y-136876908D01*
X140811072Y-136581930D01*
X141061930Y-136331072D01*
X141356908Y-136133974D01*
X141684669Y-135998211D01*
X142032616Y-135929000D01*
X142387384Y-135929000D01*
X142735331Y-135998211D01*
G37*
G36*
X123856000Y-137191000D02*
G01*
X121254000Y-137191000D01*
X121254000Y-134589000D01*
X123856000Y-134589000D01*
X123856000Y-137191000D01*
G37*
G36*
X59346669Y-123287686D02*
G01*
X59523058Y-123305059D01*
X59862548Y-123408042D01*
X59862550Y-123408043D01*
X60175422Y-123575277D01*
X60175424Y-123575278D01*
X60175423Y-123575278D01*
X60449661Y-123800339D01*
X60674722Y-124074577D01*
X60841958Y-124387452D01*
X60944941Y-124726942D01*
X60979714Y-125080000D01*
X60944941Y-125433058D01*
X60841958Y-125772548D01*
X60841957Y-125772550D01*
X60674723Y-126085422D01*
X60449661Y-126359661D01*
X60175422Y-126584723D01*
X59862550Y-126751957D01*
X59862548Y-126751958D01*
X59523058Y-126854941D01*
X59346669Y-126872314D01*
X59258476Y-126881000D01*
X55581524Y-126881000D01*
X55493331Y-126872314D01*
X55316942Y-126854941D01*
X54977452Y-126751958D01*
X54977450Y-126751957D01*
X54664578Y-126584723D01*
X54390339Y-126359661D01*
X54165277Y-126085422D01*
X53998043Y-125772550D01*
X53998042Y-125772548D01*
X53895059Y-125433058D01*
X53860286Y-125080000D01*
X53895059Y-124726942D01*
X53998042Y-124387452D01*
X54165278Y-124074577D01*
X54390339Y-123800339D01*
X54664577Y-123575278D01*
X54664576Y-123575278D01*
X54664578Y-123575277D01*
X54977450Y-123408043D01*
X54977452Y-123408042D01*
X55316942Y-123305059D01*
X55493331Y-123287686D01*
X55581524Y-123279000D01*
X59258476Y-123279000D01*
X59346669Y-123287686D01*
G37*
G36*
X123856000Y-125126000D02*
G01*
X121254000Y-125126000D01*
X121254000Y-122524000D01*
X123856000Y-122524000D01*
X123856000Y-125126000D01*
G37*
G36*
X141001000Y-123856000D02*
G01*
X138399000Y-123856000D01*
X138399000Y-121254000D01*
X141001000Y-121254000D01*
X141001000Y-123856000D01*
G37*
G36*
X63116823Y-121701313D02*
G01*
X63277242Y-121749976D01*
X63409906Y-121820886D01*
X63425078Y-121828996D01*
X63554659Y-121935341D01*
X63661004Y-122064922D01*
X63661005Y-122064924D01*
X63740024Y-122212758D01*
X63788687Y-122373177D01*
X63805117Y-122540000D01*
X63788687Y-122706823D01*
X63740024Y-122867242D01*
X63669114Y-122999906D01*
X63661004Y-123015078D01*
X63554659Y-123144659D01*
X63425078Y-123251004D01*
X63425076Y-123251005D01*
X63277242Y-123330024D01*
X63116823Y-123378687D01*
X62991804Y-123391000D01*
X62008196Y-123391000D01*
X61883177Y-123378687D01*
X61722758Y-123330024D01*
X61574924Y-123251005D01*
X61574922Y-123251004D01*
X61445341Y-123144659D01*
X61338996Y-123015078D01*
X61330886Y-122999906D01*
X61259976Y-122867242D01*
X61211313Y-122706823D01*
X61194883Y-122540000D01*
X61211313Y-122373177D01*
X61259976Y-122212758D01*
X61338995Y-122064924D01*
X61338996Y-122064922D01*
X61445341Y-121935341D01*
X61574922Y-121828996D01*
X61590094Y-121820886D01*
X61722758Y-121749976D01*
X61883177Y-121701313D01*
X62008196Y-121689000D01*
X62991804Y-121689000D01*
X63116823Y-121701313D01*
G37*
G36*
X63116823Y-119161313D02*
G01*
X63277242Y-119209976D01*
X63409906Y-119280886D01*
X63425078Y-119288996D01*
X63554659Y-119395341D01*
X63661004Y-119524922D01*
X63661005Y-119524924D01*
X63740024Y-119672758D01*
X63788687Y-119833177D01*
X63805117Y-120000000D01*
X63788687Y-120166823D01*
X63740024Y-120327242D01*
X63738015Y-120331000D01*
X63661004Y-120475078D01*
X63554659Y-120604659D01*
X63425078Y-120711004D01*
X63425076Y-120711005D01*
X63277242Y-120790024D01*
X63116823Y-120838687D01*
X62991804Y-120851000D01*
X62008196Y-120851000D01*
X61883177Y-120838687D01*
X61722758Y-120790024D01*
X61574924Y-120711005D01*
X61574922Y-120711004D01*
X61445341Y-120604659D01*
X61338996Y-120475078D01*
X61261985Y-120331000D01*
X61259976Y-120327242D01*
X61211313Y-120166823D01*
X61194883Y-120000000D01*
X61211313Y-119833177D01*
X61259976Y-119672758D01*
X61338995Y-119524924D01*
X61338996Y-119524922D01*
X61445341Y-119395341D01*
X61574922Y-119288996D01*
X61590094Y-119280886D01*
X61722758Y-119209976D01*
X61883177Y-119161313D01*
X62008196Y-119149000D01*
X62991804Y-119149000D01*
X63116823Y-119161313D01*
G37*
G36*
X132746000Y-120681000D02*
G01*
X130144000Y-120681000D01*
X130144000Y-118079000D01*
X132746000Y-118079000D01*
X132746000Y-120681000D01*
G37*
G36*
X144461000Y-120331000D02*
G01*
X142559000Y-120331000D01*
X142559000Y-118429000D01*
X144461000Y-118429000D01*
X144461000Y-120331000D01*
G37*
G36*
X143787395Y-115925546D02*
G01*
X143960466Y-115997234D01*
X143960467Y-115997235D01*
X144116227Y-116101310D01*
X144248690Y-116233773D01*
X144248691Y-116233775D01*
X144352766Y-116389534D01*
X144424454Y-116562605D01*
X144461000Y-116746333D01*
X144461000Y-116933667D01*
X144424454Y-117117395D01*
X144352766Y-117290466D01*
X144352765Y-117290467D01*
X144248690Y-117446227D01*
X144116227Y-117578690D01*
X144037818Y-117631081D01*
X143960466Y-117682766D01*
X143787395Y-117754454D01*
X143603667Y-117791000D01*
X143416333Y-117791000D01*
X143232605Y-117754454D01*
X143059534Y-117682766D01*
X142982182Y-117631081D01*
X142903773Y-117578690D01*
X142771310Y-117446227D01*
X142667235Y-117290467D01*
X142667234Y-117290466D01*
X142595546Y-117117395D01*
X142559000Y-116933667D01*
X142559000Y-116746333D01*
X142595546Y-116562605D01*
X142667234Y-116389534D01*
X142771309Y-116233775D01*
X142771310Y-116233773D01*
X142903773Y-116101310D01*
X143059533Y-115997235D01*
X143059534Y-115997234D01*
X143232605Y-115925546D01*
X143416333Y-115889000D01*
X143603667Y-115889000D01*
X143787395Y-115925546D01*
G37*
G36*
X59346669Y-113127686D02*
G01*
X59523058Y-113145059D01*
X59862548Y-113248042D01*
X59862550Y-113248043D01*
X60175422Y-113415277D01*
X60175424Y-113415278D01*
X60175423Y-113415278D01*
X60449661Y-113640339D01*
X60674722Y-113914577D01*
X60841958Y-114227452D01*
X60944941Y-114566942D01*
X60979714Y-114920000D01*
X60944941Y-115273058D01*
X60841958Y-115612548D01*
X60841957Y-115612550D01*
X60674723Y-115925422D01*
X60449661Y-116199661D01*
X60175422Y-116424723D01*
X59862550Y-116591957D01*
X59862548Y-116591958D01*
X59523058Y-116694941D01*
X59346669Y-116712314D01*
X59258476Y-116721000D01*
X55581524Y-116721000D01*
X55493331Y-116712314D01*
X55316942Y-116694941D01*
X54977452Y-116591958D01*
X54977450Y-116591957D01*
X54664578Y-116424723D01*
X54390339Y-116199661D01*
X54165277Y-115925422D01*
X53998043Y-115612550D01*
X53998042Y-115612548D01*
X53895059Y-115273058D01*
X53860286Y-114920000D01*
X53895059Y-114566942D01*
X53998042Y-114227452D01*
X54165278Y-113914577D01*
X54390339Y-113640339D01*
X54664577Y-113415278D01*
X54664576Y-113415278D01*
X54664578Y-113415277D01*
X54977450Y-113248043D01*
X54977452Y-113248042D01*
X55316942Y-113145059D01*
X55493331Y-113127686D01*
X55581524Y-113119000D01*
X59258476Y-113119000D01*
X59346669Y-113127686D01*
G37*
G36*
X127666000Y-114966000D02*
G01*
X125064000Y-114966000D01*
X125064000Y-112364000D01*
X127666000Y-112364000D01*
X127666000Y-114966000D01*
G37*
G36*
X118141000Y-110775000D02*
G01*
X115539000Y-110775000D01*
X115539000Y-108173000D01*
X118141000Y-108173000D01*
X118141000Y-110775000D01*
G37*
G36*
X118141000Y-104806000D02*
G01*
X115539000Y-104806000D01*
X115539000Y-102204000D01*
X118141000Y-102204000D01*
X118141000Y-104806000D01*
G37*
G36*
X144506669Y-98287686D02*
G01*
X144683058Y-98305059D01*
X145022548Y-98408042D01*
X145022550Y-98408043D01*
X145335422Y-98575277D01*
X145335424Y-98575278D01*
X145335423Y-98575278D01*
X145609661Y-98800339D01*
X145834722Y-99074577D01*
X146001958Y-99387452D01*
X146104941Y-99726942D01*
X146139714Y-100080000D01*
X146104941Y-100433058D01*
X146001958Y-100772548D01*
X146001957Y-100772550D01*
X145834723Y-101085422D01*
X145609661Y-101359661D01*
X145335422Y-101584723D01*
X145022550Y-101751957D01*
X145022548Y-101751958D01*
X144683058Y-101854941D01*
X144506669Y-101872314D01*
X144418476Y-101881000D01*
X140741524Y-101881000D01*
X140653331Y-101872314D01*
X140476942Y-101854941D01*
X140137452Y-101751958D01*
X140137450Y-101751957D01*
X139824578Y-101584723D01*
X139550339Y-101359661D01*
X139325277Y-101085422D01*
X139158043Y-100772550D01*
X139158042Y-100772548D01*
X139055059Y-100433058D01*
X139020286Y-100080000D01*
X139055059Y-99726942D01*
X139158042Y-99387452D01*
X139325278Y-99074577D01*
X139550339Y-98800339D01*
X139824577Y-98575278D01*
X139824576Y-98575278D01*
X139824578Y-98575277D01*
X140137450Y-98408043D01*
X140137452Y-98408042D01*
X140476942Y-98305059D01*
X140653331Y-98287686D01*
X140741524Y-98279000D01*
X144418476Y-98279000D01*
X144506669Y-98287686D01*
G37*
G36*
X59346669Y-98287686D02*
G01*
X59523058Y-98305059D01*
X59862548Y-98408042D01*
X59862550Y-98408043D01*
X60175422Y-98575277D01*
X60175424Y-98575278D01*
X60175423Y-98575278D01*
X60449661Y-98800339D01*
X60674722Y-99074577D01*
X60841958Y-99387452D01*
X60944941Y-99726942D01*
X60979714Y-100080000D01*
X60944941Y-100433058D01*
X60841958Y-100772548D01*
X60841957Y-100772550D01*
X60674723Y-101085422D01*
X60449661Y-101359661D01*
X60175422Y-101584723D01*
X59862550Y-101751957D01*
X59862548Y-101751958D01*
X59523058Y-101854941D01*
X59346669Y-101872314D01*
X59258476Y-101881000D01*
X55581524Y-101881000D01*
X55493331Y-101872314D01*
X55316942Y-101854941D01*
X54977452Y-101751958D01*
X54977450Y-101751957D01*
X54664578Y-101584723D01*
X54390339Y-101359661D01*
X54165277Y-101085422D01*
X53998043Y-100772550D01*
X53998042Y-100772548D01*
X53895059Y-100433058D01*
X53860286Y-100080000D01*
X53895059Y-99726942D01*
X53998042Y-99387452D01*
X54165278Y-99074577D01*
X54390339Y-98800339D01*
X54664577Y-98575278D01*
X54664576Y-98575278D01*
X54664578Y-98575277D01*
X54977450Y-98408043D01*
X54977452Y-98408042D01*
X55316942Y-98305059D01*
X55493331Y-98287686D01*
X55581524Y-98279000D01*
X59258476Y-98279000D01*
X59346669Y-98287686D01*
G37*
G36*
X63116823Y-96701313D02*
G01*
X63277242Y-96749976D01*
X63409906Y-96820886D01*
X63425078Y-96828996D01*
X63554659Y-96935341D01*
X63661004Y-97064922D01*
X63661005Y-97064924D01*
X63740024Y-97212758D01*
X63788687Y-97373177D01*
X63805117Y-97540000D01*
X63788687Y-97706823D01*
X63740024Y-97867242D01*
X63669114Y-97999906D01*
X63661004Y-98015078D01*
X63554659Y-98144659D01*
X63425078Y-98251004D01*
X63425076Y-98251005D01*
X63277242Y-98330024D01*
X63116823Y-98378687D01*
X62991804Y-98391000D01*
X62008196Y-98391000D01*
X61883177Y-98378687D01*
X61722758Y-98330024D01*
X61574924Y-98251005D01*
X61574922Y-98251004D01*
X61445341Y-98144659D01*
X61338996Y-98015078D01*
X61330886Y-97999906D01*
X61259976Y-97867242D01*
X61211313Y-97706823D01*
X61194883Y-97540000D01*
X61211313Y-97373177D01*
X61259976Y-97212758D01*
X61338995Y-97064924D01*
X61338996Y-97064922D01*
X61445341Y-96935341D01*
X61574922Y-96828996D01*
X61590094Y-96820886D01*
X61722758Y-96749976D01*
X61883177Y-96701313D01*
X62008196Y-96689000D01*
X62991804Y-96689000D01*
X63116823Y-96701313D01*
G37*
G36*
X63116823Y-94161313D02*
G01*
X63277242Y-94209976D01*
X63409906Y-94280886D01*
X63425078Y-94288996D01*
X63554659Y-94395341D01*
X63661004Y-94524922D01*
X63661005Y-94524924D01*
X63740024Y-94672758D01*
X63788687Y-94833177D01*
X63805117Y-95000000D01*
X63788687Y-95166823D01*
X63740024Y-95327242D01*
X63669114Y-95459906D01*
X63661004Y-95475078D01*
X63554659Y-95604659D01*
X63425078Y-95711004D01*
X63425076Y-95711005D01*
X63277242Y-95790024D01*
X63116823Y-95838687D01*
X62991804Y-95851000D01*
X62008196Y-95851000D01*
X61883177Y-95838687D01*
X61722758Y-95790024D01*
X61574924Y-95711005D01*
X61574922Y-95711004D01*
X61445341Y-95604659D01*
X61338996Y-95475078D01*
X61330886Y-95459906D01*
X61259976Y-95327242D01*
X61211313Y-95166823D01*
X61194883Y-95000000D01*
X61211313Y-94833177D01*
X61259976Y-94672758D01*
X61338995Y-94524924D01*
X61338996Y-94524922D01*
X61445341Y-94395341D01*
X61574922Y-94288996D01*
X61590094Y-94280886D01*
X61722758Y-94209976D01*
X61883177Y-94161313D01*
X62008196Y-94149000D01*
X62991804Y-94149000D01*
X63116823Y-94161313D01*
G37*
G36*
X138116823Y-94161313D02*
G01*
X138277242Y-94209976D01*
X138409906Y-94280886D01*
X138425078Y-94288996D01*
X138554659Y-94395341D01*
X138661004Y-94524922D01*
X138661005Y-94524924D01*
X138740024Y-94672758D01*
X138788687Y-94833177D01*
X138805117Y-95000000D01*
X138788687Y-95166823D01*
X138740024Y-95327242D01*
X138669114Y-95459906D01*
X138661004Y-95475078D01*
X138554659Y-95604659D01*
X138425078Y-95711004D01*
X138425076Y-95711005D01*
X138277242Y-95790024D01*
X138116823Y-95838687D01*
X137991804Y-95851000D01*
X137008196Y-95851000D01*
X136883177Y-95838687D01*
X136722758Y-95790024D01*
X136574924Y-95711005D01*
X136574922Y-95711004D01*
X136445341Y-95604659D01*
X136338996Y-95475078D01*
X136330886Y-95459906D01*
X136259976Y-95327242D01*
X136211313Y-95166823D01*
X136194883Y-95000000D01*
X136211313Y-94833177D01*
X136259976Y-94672758D01*
X136338995Y-94524924D01*
X136338996Y-94524922D01*
X136445341Y-94395341D01*
X136574922Y-94288996D01*
X136590094Y-94280886D01*
X136722758Y-94209976D01*
X136883177Y-94161313D01*
X137008196Y-94149000D01*
X137991804Y-94149000D01*
X138116823Y-94161313D01*
G37*
G36*
X125761000Y-94011000D02*
G01*
X123159000Y-94011000D01*
X123159000Y-91409000D01*
X125761000Y-91409000D01*
X125761000Y-94011000D01*
G37*
G36*
X138116823Y-91621313D02*
G01*
X138277242Y-91669976D01*
X138372701Y-91721000D01*
X138425078Y-91748996D01*
X138554659Y-91855341D01*
X138661004Y-91984922D01*
X138661005Y-91984924D01*
X138740024Y-92132758D01*
X138788687Y-92293177D01*
X138805117Y-92460000D01*
X138788687Y-92626823D01*
X138740024Y-92787242D01*
X138669114Y-92919906D01*
X138661004Y-92935078D01*
X138554659Y-93064659D01*
X138425078Y-93171004D01*
X138425076Y-93171005D01*
X138277242Y-93250024D01*
X138116823Y-93298687D01*
X137991804Y-93311000D01*
X137008196Y-93311000D01*
X136883177Y-93298687D01*
X136722758Y-93250024D01*
X136574924Y-93171005D01*
X136574922Y-93171004D01*
X136445341Y-93064659D01*
X136338996Y-92935078D01*
X136330886Y-92919906D01*
X136259976Y-92787242D01*
X136211313Y-92626823D01*
X136194883Y-92460000D01*
X136211313Y-92293177D01*
X136259976Y-92132758D01*
X136338995Y-91984924D01*
X136338996Y-91984922D01*
X136445341Y-91855341D01*
X136574922Y-91748996D01*
X136627299Y-91721000D01*
X136722758Y-91669976D01*
X136883177Y-91621313D01*
X137008196Y-91609000D01*
X137991804Y-91609000D01*
X138116823Y-91621313D01*
G37*
G36*
X59346669Y-88127686D02*
G01*
X59523058Y-88145059D01*
X59862548Y-88248042D01*
X59862550Y-88248043D01*
X60175422Y-88415277D01*
X60175424Y-88415278D01*
X60175423Y-88415278D01*
X60449661Y-88640339D01*
X60674722Y-88914577D01*
X60841958Y-89227452D01*
X60944941Y-89566942D01*
X60979714Y-89920000D01*
X60944941Y-90273058D01*
X60841958Y-90612548D01*
X60841957Y-90612550D01*
X60674723Y-90925422D01*
X60449661Y-91199661D01*
X60175422Y-91424723D01*
X59862550Y-91591957D01*
X59862548Y-91591958D01*
X59523058Y-91694941D01*
X59346669Y-91712314D01*
X59258476Y-91721000D01*
X55581524Y-91721000D01*
X55493331Y-91712314D01*
X55316942Y-91694941D01*
X54977452Y-91591958D01*
X54977450Y-91591957D01*
X54664578Y-91424723D01*
X54390339Y-91199661D01*
X54165277Y-90925422D01*
X53998043Y-90612550D01*
X53998042Y-90612548D01*
X53895059Y-90273058D01*
X53860286Y-89920000D01*
X53895059Y-89566942D01*
X53998042Y-89227452D01*
X54165278Y-88914577D01*
X54390339Y-88640339D01*
X54664577Y-88415278D01*
X54664576Y-88415278D01*
X54664578Y-88415277D01*
X54977450Y-88248043D01*
X54977452Y-88248042D01*
X55316942Y-88145059D01*
X55493331Y-88127686D01*
X55581524Y-88119000D01*
X59258476Y-88119000D01*
X59346669Y-88127686D01*
G37*
G36*
X144506669Y-88127686D02*
G01*
X144683058Y-88145059D01*
X145022548Y-88248042D01*
X145022550Y-88248043D01*
X145335422Y-88415277D01*
X145335424Y-88415278D01*
X145335423Y-88415278D01*
X145609661Y-88640339D01*
X145834722Y-88914577D01*
X146001958Y-89227452D01*
X146104941Y-89566942D01*
X146139714Y-89920000D01*
X146104941Y-90273058D01*
X146001958Y-90612548D01*
X146001957Y-90612550D01*
X145834723Y-90925422D01*
X145609661Y-91199661D01*
X145335422Y-91424723D01*
X145022550Y-91591957D01*
X145022548Y-91591958D01*
X144683058Y-91694941D01*
X144506669Y-91712314D01*
X144418476Y-91721000D01*
X140741524Y-91721000D01*
X140653331Y-91712314D01*
X140476942Y-91694941D01*
X140137452Y-91591958D01*
X140137450Y-91591957D01*
X139824578Y-91424723D01*
X139550339Y-91199661D01*
X139325277Y-90925422D01*
X139158043Y-90612550D01*
X139158042Y-90612548D01*
X139055059Y-90273058D01*
X139020286Y-89920000D01*
X139055059Y-89566942D01*
X139158042Y-89227452D01*
X139325278Y-88914577D01*
X139550339Y-88640339D01*
X139824577Y-88415278D01*
X139824576Y-88415278D01*
X139824578Y-88415277D01*
X140137450Y-88248043D01*
X140137452Y-88248042D01*
X140476942Y-88145059D01*
X140653331Y-88127686D01*
X140741524Y-88119000D01*
X144418476Y-88119000D01*
X144506669Y-88127686D01*
G37*
G36*
X114966000Y-86391000D02*
G01*
X112364000Y-86391000D01*
X112364000Y-83789000D01*
X114966000Y-83789000D01*
X114966000Y-86391000D01*
G37*
G36*
X144506669Y-73287686D02*
G01*
X144683058Y-73305059D01*
X145022548Y-73408042D01*
X145022550Y-73408043D01*
X145335422Y-73575277D01*
X145335424Y-73575278D01*
X145335423Y-73575278D01*
X145609661Y-73800339D01*
X145834722Y-74074577D01*
X146001958Y-74387452D01*
X146104941Y-74726942D01*
X146139714Y-75080000D01*
X146104941Y-75433058D01*
X146001958Y-75772548D01*
X146001957Y-75772550D01*
X145834723Y-76085422D01*
X145609661Y-76359661D01*
X145335422Y-76584723D01*
X145022550Y-76751957D01*
X145022548Y-76751958D01*
X144683058Y-76854941D01*
X144506669Y-76872314D01*
X144418476Y-76881000D01*
X140741524Y-76881000D01*
X140653331Y-76872314D01*
X140476942Y-76854941D01*
X140137452Y-76751958D01*
X140137450Y-76751957D01*
X139824578Y-76584723D01*
X139550339Y-76359661D01*
X139325277Y-76085422D01*
X139158043Y-75772550D01*
X139158042Y-75772548D01*
X139055059Y-75433058D01*
X139020286Y-75080000D01*
X139055059Y-74726942D01*
X139158042Y-74387452D01*
X139325278Y-74074577D01*
X139550339Y-73800339D01*
X139824577Y-73575278D01*
X139824576Y-73575278D01*
X139824578Y-73575277D01*
X140137450Y-73408043D01*
X140137452Y-73408042D01*
X140476942Y-73305059D01*
X140653331Y-73287686D01*
X140741524Y-73279000D01*
X144418476Y-73279000D01*
X144506669Y-73287686D01*
G37*
G36*
X59346669Y-73287686D02*
G01*
X59523058Y-73305059D01*
X59862548Y-73408042D01*
X59862550Y-73408043D01*
X60175422Y-73575277D01*
X60175424Y-73575278D01*
X60175423Y-73575278D01*
X60449661Y-73800339D01*
X60674722Y-74074577D01*
X60841958Y-74387452D01*
X60944941Y-74726942D01*
X60979714Y-75080000D01*
X60944941Y-75433058D01*
X60841958Y-75772548D01*
X60841957Y-75772550D01*
X60674723Y-76085422D01*
X60449661Y-76359661D01*
X60175422Y-76584723D01*
X59862550Y-76751957D01*
X59862548Y-76751958D01*
X59523058Y-76854941D01*
X59346669Y-76872314D01*
X59258476Y-76881000D01*
X55581524Y-76881000D01*
X55493331Y-76872314D01*
X55316942Y-76854941D01*
X54977452Y-76751958D01*
X54977450Y-76751957D01*
X54664578Y-76584723D01*
X54390339Y-76359661D01*
X54165277Y-76085422D01*
X53998043Y-75772550D01*
X53998042Y-75772548D01*
X53895059Y-75433058D01*
X53860286Y-75080000D01*
X53895059Y-74726942D01*
X53998042Y-74387452D01*
X54165278Y-74074577D01*
X54390339Y-73800339D01*
X54664577Y-73575278D01*
X54664576Y-73575278D01*
X54664578Y-73575277D01*
X54977450Y-73408043D01*
X54977452Y-73408042D01*
X55316942Y-73305059D01*
X55493331Y-73287686D01*
X55581524Y-73279000D01*
X59258476Y-73279000D01*
X59346669Y-73287686D01*
G37*
G36*
X63116823Y-71701313D02*
G01*
X63277242Y-71749976D01*
X63409906Y-71820886D01*
X63425078Y-71828996D01*
X63554659Y-71935341D01*
X63661004Y-72064922D01*
X63661005Y-72064924D01*
X63740024Y-72212758D01*
X63788687Y-72373177D01*
X63805117Y-72540000D01*
X63788687Y-72706823D01*
X63740024Y-72867242D01*
X63669114Y-72999906D01*
X63661004Y-73015078D01*
X63554659Y-73144659D01*
X63425078Y-73251004D01*
X63425076Y-73251005D01*
X63277242Y-73330024D01*
X63116823Y-73378687D01*
X62991804Y-73391000D01*
X62008196Y-73391000D01*
X61883177Y-73378687D01*
X61722758Y-73330024D01*
X61574924Y-73251005D01*
X61574922Y-73251004D01*
X61445341Y-73144659D01*
X61338996Y-73015078D01*
X61330886Y-72999906D01*
X61259976Y-72867242D01*
X61211313Y-72706823D01*
X61194883Y-72540000D01*
X61211313Y-72373177D01*
X61259976Y-72212758D01*
X61338995Y-72064924D01*
X61338996Y-72064922D01*
X61445341Y-71935341D01*
X61574922Y-71828996D01*
X61590094Y-71820886D01*
X61722758Y-71749976D01*
X61883177Y-71701313D01*
X62008196Y-71689000D01*
X62991804Y-71689000D01*
X63116823Y-71701313D01*
G37*
G36*
X63116823Y-69161313D02*
G01*
X63277242Y-69209976D01*
X63409906Y-69280886D01*
X63425078Y-69288996D01*
X63554659Y-69395341D01*
X63661004Y-69524922D01*
X63661005Y-69524924D01*
X63740024Y-69672758D01*
X63788687Y-69833177D01*
X63805117Y-70000000D01*
X63788687Y-70166823D01*
X63740024Y-70327242D01*
X63669114Y-70459906D01*
X63661004Y-70475078D01*
X63554659Y-70604659D01*
X63425078Y-70711004D01*
X63425076Y-70711005D01*
X63277242Y-70790024D01*
X63116823Y-70838687D01*
X62991804Y-70851000D01*
X62008196Y-70851000D01*
X61883177Y-70838687D01*
X61722758Y-70790024D01*
X61574924Y-70711005D01*
X61574922Y-70711004D01*
X61445341Y-70604659D01*
X61338996Y-70475078D01*
X61330886Y-70459906D01*
X61259976Y-70327242D01*
X61211313Y-70166823D01*
X61194883Y-70000000D01*
X61211313Y-69833177D01*
X61259976Y-69672758D01*
X61338995Y-69524924D01*
X61338996Y-69524922D01*
X61445341Y-69395341D01*
X61574922Y-69288996D01*
X61590094Y-69280886D01*
X61722758Y-69209976D01*
X61883177Y-69161313D01*
X62008196Y-69149000D01*
X62991804Y-69149000D01*
X63116823Y-69161313D01*
G37*
G36*
X138116823Y-69161313D02*
G01*
X138277242Y-69209976D01*
X138409906Y-69280886D01*
X138425078Y-69288996D01*
X138554659Y-69395341D01*
X138661004Y-69524922D01*
X138661005Y-69524924D01*
X138740024Y-69672758D01*
X138788687Y-69833177D01*
X138805117Y-70000000D01*
X138788687Y-70166823D01*
X138740024Y-70327242D01*
X138669114Y-70459906D01*
X138661004Y-70475078D01*
X138554659Y-70604659D01*
X138425078Y-70711004D01*
X138425076Y-70711005D01*
X138277242Y-70790024D01*
X138116823Y-70838687D01*
X137991804Y-70851000D01*
X137008196Y-70851000D01*
X136883177Y-70838687D01*
X136722758Y-70790024D01*
X136574924Y-70711005D01*
X136574922Y-70711004D01*
X136445341Y-70604659D01*
X136338996Y-70475078D01*
X136330886Y-70459906D01*
X136259976Y-70327242D01*
X136211313Y-70166823D01*
X136194883Y-70000000D01*
X136211313Y-69833177D01*
X136259976Y-69672758D01*
X136338995Y-69524924D01*
X136338996Y-69524922D01*
X136445341Y-69395341D01*
X136574922Y-69288996D01*
X136590094Y-69280886D01*
X136722758Y-69209976D01*
X136883177Y-69161313D01*
X137008196Y-69149000D01*
X137991804Y-69149000D01*
X138116823Y-69161313D01*
G37*
G36*
X138116823Y-66621313D02*
G01*
X138277242Y-66669976D01*
X138372701Y-66721000D01*
X138425078Y-66748996D01*
X138554659Y-66855341D01*
X138661004Y-66984922D01*
X138661005Y-66984924D01*
X138740024Y-67132758D01*
X138788687Y-67293177D01*
X138805117Y-67460000D01*
X138788687Y-67626823D01*
X138740024Y-67787242D01*
X138689910Y-67880999D01*
X138661004Y-67935078D01*
X138554659Y-68064659D01*
X138425078Y-68171004D01*
X138425076Y-68171005D01*
X138277242Y-68250024D01*
X138116823Y-68298687D01*
X137991804Y-68311000D01*
X137008196Y-68311000D01*
X136883177Y-68298687D01*
X136722758Y-68250024D01*
X136574924Y-68171005D01*
X136574922Y-68171004D01*
X136445341Y-68064659D01*
X136338996Y-67935078D01*
X136310090Y-67880999D01*
X136259976Y-67787242D01*
X136211313Y-67626823D01*
X136194883Y-67460000D01*
X136211313Y-67293177D01*
X136259976Y-67132758D01*
X136338995Y-66984924D01*
X136338996Y-66984922D01*
X136445341Y-66855341D01*
X136574922Y-66748996D01*
X136627299Y-66721000D01*
X136722758Y-66669976D01*
X136883177Y-66621313D01*
X137008196Y-66609000D01*
X137991804Y-66609000D01*
X138116823Y-66621313D01*
G37*
G36*
X123134239Y-61811467D02*
G01*
X123448282Y-61873934D01*
X124039926Y-62119001D01*
X124572392Y-62474784D01*
X125025216Y-62927608D01*
X125380999Y-63460074D01*
X125626066Y-64051718D01*
X125626066Y-64051719D01*
X125751000Y-64679803D01*
X125751000Y-65320197D01*
X125692848Y-65612548D01*
X125626066Y-65948282D01*
X125380999Y-66539926D01*
X125025216Y-67072392D01*
X124572392Y-67525216D01*
X124039926Y-67880999D01*
X123448282Y-68126066D01*
X123222363Y-68171004D01*
X122820197Y-68251000D01*
X122179803Y-68251000D01*
X121777637Y-68171004D01*
X121551718Y-68126066D01*
X120960074Y-67880999D01*
X120427608Y-67525216D01*
X119974784Y-67072392D01*
X119619001Y-66539926D01*
X119373934Y-65948282D01*
X119307152Y-65612548D01*
X119249000Y-65320197D01*
X119249000Y-64679803D01*
X119373934Y-64051719D01*
X119373934Y-64051718D01*
X119619001Y-63460074D01*
X119974784Y-62927608D01*
X120427608Y-62474784D01*
X120960074Y-62119001D01*
X121551718Y-61873934D01*
X121865761Y-61811467D01*
X122179803Y-61749000D01*
X122820197Y-61749000D01*
X123134239Y-61811467D01*
G37*
G36*
X83134239Y-61811467D02*
G01*
X83448282Y-61873934D01*
X84039926Y-62119001D01*
X84572392Y-62474784D01*
X85025216Y-62927608D01*
X85380999Y-63460074D01*
X85626066Y-64051718D01*
X85626066Y-64051719D01*
X85751000Y-64679803D01*
X85751000Y-65320197D01*
X85692848Y-65612548D01*
X85626066Y-65948282D01*
X85380999Y-66539926D01*
X85025216Y-67072392D01*
X84572392Y-67525216D01*
X84039926Y-67880999D01*
X83448282Y-68126066D01*
X83222363Y-68171004D01*
X82820197Y-68251000D01*
X82179803Y-68251000D01*
X81777637Y-68171004D01*
X81551718Y-68126066D01*
X80960074Y-67880999D01*
X80427608Y-67525216D01*
X79974784Y-67072392D01*
X79619001Y-66539926D01*
X79373934Y-65948282D01*
X79307152Y-65612548D01*
X79249000Y-65320197D01*
X79249000Y-64679803D01*
X79373934Y-64051719D01*
X79373934Y-64051718D01*
X79619001Y-63460074D01*
X79974784Y-62927608D01*
X80427608Y-62474784D01*
X80960074Y-62119001D01*
X81551718Y-61873934D01*
X81865761Y-61811467D01*
X82179803Y-61749000D01*
X82820197Y-61749000D01*
X83134239Y-61811467D01*
G37*
G36*
X59346669Y-63127686D02*
G01*
X59523058Y-63145059D01*
X59862548Y-63248042D01*
X59862550Y-63248043D01*
X60175422Y-63415277D01*
X60449661Y-63640339D01*
X60674723Y-63914578D01*
X60841957Y-64227450D01*
X60841958Y-64227452D01*
X60944941Y-64566942D01*
X60979714Y-64920000D01*
X60944941Y-65273058D01*
X60841958Y-65612548D01*
X60841957Y-65612550D01*
X60674723Y-65925422D01*
X60449661Y-66199661D01*
X60175422Y-66424723D01*
X59959893Y-66539926D01*
X59862548Y-66591958D01*
X59523058Y-66694941D01*
X59346669Y-66712314D01*
X59258476Y-66721000D01*
X55581524Y-66721000D01*
X55493331Y-66712314D01*
X55316942Y-66694941D01*
X54977452Y-66591958D01*
X54880107Y-66539926D01*
X54664578Y-66424723D01*
X54390339Y-66199661D01*
X54165277Y-65925422D01*
X53998043Y-65612550D01*
X53998042Y-65612548D01*
X53895059Y-65273058D01*
X53860286Y-64920000D01*
X53895059Y-64566942D01*
X53998042Y-64227452D01*
X53998043Y-64227450D01*
X54165277Y-63914578D01*
X54390339Y-63640339D01*
X54664578Y-63415277D01*
X54977450Y-63248043D01*
X54977452Y-63248042D01*
X55316942Y-63145059D01*
X55493331Y-63127686D01*
X55581524Y-63119000D01*
X59258476Y-63119000D01*
X59346669Y-63127686D01*
G37*
G36*
X144506669Y-63127686D02*
G01*
X144683058Y-63145059D01*
X145022548Y-63248042D01*
X145022550Y-63248043D01*
X145335422Y-63415277D01*
X145609661Y-63640339D01*
X145834723Y-63914578D01*
X146001957Y-64227450D01*
X146001958Y-64227452D01*
X146104941Y-64566942D01*
X146139714Y-64920000D01*
X146104941Y-65273058D01*
X146001958Y-65612548D01*
X146001957Y-65612550D01*
X145834723Y-65925422D01*
X145609661Y-66199661D01*
X145335422Y-66424723D01*
X145119893Y-66539926D01*
X145022548Y-66591958D01*
X144683058Y-66694941D01*
X144506669Y-66712314D01*
X144418476Y-66721000D01*
X140741524Y-66721000D01*
X140653331Y-66712314D01*
X140476942Y-66694941D01*
X140137452Y-66591958D01*
X140040107Y-66539926D01*
X139824578Y-66424723D01*
X139550339Y-66199661D01*
X139325277Y-65925422D01*
X139158043Y-65612550D01*
X139158042Y-65612548D01*
X139055059Y-65273058D01*
X139020286Y-64920000D01*
X139055059Y-64566942D01*
X139158042Y-64227452D01*
X139158043Y-64227450D01*
X139325277Y-63914578D01*
X139550339Y-63640339D01*
X139824578Y-63415277D01*
X140137450Y-63248043D01*
X140137452Y-63248042D01*
X140476942Y-63145059D01*
X140653331Y-63127686D01*
X140741524Y-63119000D01*
X144418476Y-63119000D01*
X144506669Y-63127686D01*
G37*
M02*
