%TF.GenerationSoftware,KiCad,Pcbnew,5.1.5*%
%TF.CreationDate,2020-04-14T20:04:17+02:00*%
%TF.ProjectId,daq_4ch_24bit,6461715f-3463-4685-9f32-346269742e6b,1.1.0*%
%TF.SameCoordinates,Original*%
%TF.FileFunction,Copper,L4,Bot*%
%TF.FilePolarity,Positive*%
%FSLAX46Y46*%
G04 Gerber Fmt 4.6, Leading zero omitted, Abs format (unit mm)*
G04 Created by KiCad (PCBNEW 5.1.5) date 2020-04-14 20:04:17*
%MOMM*%
%LPD*%
G04 APERTURE LIST*
%ADD10C,0.050000*%
%ADD11C,0.800000*%
%ADD12C,6.400000*%
%ADD13R,2.500000X2.500000*%
%ADD14C,1.800000*%
%ADD15R,1.800000X1.800000*%
%ADD16C,3.500000*%
%ADD17C,1.700000*%
%ADD18R,1.700000X1.700000*%
%ADD19O,2.500000X1.600000*%
%ADD20O,7.000000X3.500000*%
%ADD21C,0.350000*%
%ADD22C,0.250000*%
%ADD23C,0.254000*%
G04 APERTURE END LIST*
D10*
X150000000Y-57500000D02*
X150000000Y-157500000D01*
X50000000Y-157500000D02*
X50000000Y-57500000D01*
X50000000Y-157500000D02*
X150000000Y-157500000D01*
X50000000Y-57500000D02*
X150000000Y-57500000D01*
D11*
X124197056Y-63302944D03*
X122500000Y-62600000D03*
X120802944Y-63302944D03*
X120100000Y-65000000D03*
X120802944Y-66697056D03*
X122500000Y-67400000D03*
X124197056Y-66697056D03*
X124900000Y-65000000D03*
D12*
X122500000Y-65000000D03*
D11*
X84197056Y-63302944D03*
X82500000Y-62600000D03*
X80802944Y-63302944D03*
X80100000Y-65000000D03*
X80802944Y-66697056D03*
X82500000Y-67400000D03*
X84197056Y-66697056D03*
X84900000Y-65000000D03*
D12*
X82500000Y-65000000D03*
D11*
X124197056Y-148302944D03*
X122500000Y-147600000D03*
X120802944Y-148302944D03*
X120100000Y-150000000D03*
X120802944Y-151697056D03*
X122500000Y-152400000D03*
X124197056Y-151697056D03*
X124900000Y-150000000D03*
D12*
X122500000Y-150000000D03*
D11*
X84197056Y-148302944D03*
X82500000Y-147600000D03*
X80802944Y-148302944D03*
X80100000Y-150000000D03*
X80802944Y-151697056D03*
X82500000Y-152400000D03*
X84197056Y-151697056D03*
X84900000Y-150000000D03*
D12*
X82500000Y-150000000D03*
D13*
X113665000Y-85090000D03*
X116840000Y-109474000D03*
X116840000Y-103505000D03*
X126365000Y-113665000D03*
D14*
X143510000Y-116840000D03*
D15*
X143510000Y-119380000D03*
D16*
X142210000Y-149770000D03*
X142210000Y-137730000D03*
D17*
X139500000Y-142500000D03*
X139500000Y-145000000D03*
X137500000Y-145000000D03*
D18*
X137500000Y-142500000D03*
D13*
X122555000Y-123825000D03*
X122555000Y-135890000D03*
X131445000Y-119380000D03*
X124460000Y-92710000D03*
X139700000Y-122555000D03*
D19*
X137500000Y-92460000D03*
X137500000Y-95000000D03*
D20*
X142580000Y-100080000D03*
X142580000Y-89920000D03*
D19*
X137500000Y-67460000D03*
X137500000Y-70000000D03*
D20*
X142580000Y-75080000D03*
X142580000Y-64920000D03*
D19*
X62500000Y-72540000D03*
X62500000Y-70000000D03*
D20*
X57420000Y-64920000D03*
X57420000Y-75080000D03*
D19*
X62500000Y-97540000D03*
X62500000Y-95000000D03*
D20*
X57420000Y-89920000D03*
X57420000Y-100080000D03*
D19*
X62500000Y-147540000D03*
X62500000Y-145000000D03*
D20*
X57420000Y-139920000D03*
X57420000Y-150080000D03*
D19*
X62500000Y-122540000D03*
X62500000Y-120000000D03*
D20*
X57420000Y-114920000D03*
X57420000Y-125080000D03*
D11*
X106553000Y-70612000D03*
X99695000Y-116840000D03*
X99822000Y-127000000D03*
X75692000Y-66929000D03*
X75497500Y-92142500D03*
X75565000Y-116967000D03*
X75565000Y-142367000D03*
X107315000Y-96198001D03*
X107315000Y-91409998D03*
X112268000Y-102870000D03*
X112268000Y-105410000D03*
X113792000Y-100330000D03*
X106934000Y-77597000D03*
X96139000Y-70231000D03*
X92377500Y-99265500D03*
X75535500Y-90267500D03*
X75397502Y-115102500D03*
X75565000Y-140462000D03*
X105791000Y-98679000D03*
X105791000Y-93726000D03*
X75623135Y-65092865D03*
X109220000Y-85344000D03*
X142875000Y-131445000D03*
X146050000Y-131445000D03*
X147447000Y-129667000D03*
X138176000Y-127762000D03*
X138303000Y-108966000D03*
X135128000Y-106934000D03*
X130048000Y-110744000D03*
X130175000Y-113665000D03*
X132715000Y-113665000D03*
X136017000Y-115570000D03*
X137033000Y-118745000D03*
X135890000Y-122555000D03*
X133604000Y-122428000D03*
X129540000Y-126365000D03*
X131865000Y-125814000D03*
X134239000Y-140081000D03*
X127762000Y-141224000D03*
X129286000Y-139573000D03*
X69215000Y-79813000D03*
X71120000Y-72320000D03*
X73025000Y-72320000D03*
X74930000Y-72320000D03*
X69215000Y-105175000D03*
X71120000Y-97555000D03*
X73025000Y-97555000D03*
X74930000Y-97555000D03*
X71120000Y-147790000D03*
X73025000Y-147790000D03*
X74930000Y-147790000D03*
X69215000Y-130010000D03*
X71120000Y-122390000D03*
X73025000Y-122390000D03*
X74930000Y-122390000D03*
X95885000Y-64135000D03*
X93345000Y-69215000D03*
X94742000Y-73406000D03*
X107188000Y-65786000D03*
X108585000Y-69850000D03*
X105029000Y-73914000D03*
X93980000Y-81280000D03*
X92075000Y-82550000D03*
X105664000Y-83312000D03*
X99568000Y-90805000D03*
X99568000Y-92710000D03*
X99568000Y-94615000D03*
X120015000Y-100965000D03*
X122555000Y-100965000D03*
X125857000Y-102870000D03*
X128905000Y-100965000D03*
X122428000Y-106934000D03*
X119888000Y-106934000D03*
X126492000Y-109855000D03*
X133731000Y-134493000D03*
X131445000Y-152273000D03*
X101981000Y-98679000D03*
X145415000Y-122555000D03*
X145415000Y-125095000D03*
X147447000Y-126873000D03*
X99314000Y-104013000D03*
X91948000Y-87630000D03*
X136397988Y-112014000D03*
X139065000Y-113665000D03*
X99695000Y-78740000D03*
X101600000Y-95250000D03*
X74930000Y-151638000D03*
X110490000Y-82550000D03*
X105029000Y-78232000D03*
X102870000Y-77470000D03*
X102235000Y-86360000D03*
X139319000Y-110998000D03*
X137861000Y-116520000D03*
X128905000Y-105283000D03*
X90170000Y-98425000D03*
X89535000Y-100330000D03*
X88900000Y-95885000D03*
X88900000Y-93980000D03*
X99441000Y-98044000D03*
X115316000Y-91694000D03*
X116332000Y-94488000D03*
X104648000Y-81788000D03*
X142113000Y-112141000D03*
X127635000Y-123190000D03*
X134747000Y-128905000D03*
X131710000Y-137500000D03*
X108585000Y-102870000D03*
X125222000Y-134489066D03*
X118872000Y-125095000D03*
X119761000Y-127381000D03*
X79377156Y-113423762D03*
X81153000Y-113411000D03*
X81153000Y-114427000D03*
X79375000Y-114427000D03*
X83636073Y-89845931D03*
X78867000Y-89154000D03*
X82676998Y-90678000D03*
X78867000Y-90297000D03*
X81280000Y-72136000D03*
X81914992Y-75692000D03*
X81026000Y-76581000D03*
X80518000Y-73025000D03*
X108331000Y-93636000D03*
X108839000Y-99060000D03*
D21*
X99822000Y-116967000D02*
X99695000Y-116840000D01*
X107315000Y-96198001D02*
X107315000Y-91409998D01*
D22*
X120486001Y-126709001D02*
X119271999Y-125494999D01*
X120486001Y-130318752D02*
X120486001Y-126709001D01*
X124656315Y-134489066D02*
X120486001Y-130318752D01*
X125222000Y-134489066D02*
X124656315Y-134489066D01*
X119271999Y-125494999D02*
X118872000Y-125095000D01*
X121055000Y-135890000D02*
X122555000Y-135890000D01*
X119761000Y-134596000D02*
X121055000Y-135890000D01*
X119761000Y-127381000D02*
X119761000Y-134596000D01*
X81140238Y-113423762D02*
X81153000Y-113411000D01*
X79377156Y-113423762D02*
X81140238Y-113423762D01*
X81153000Y-114427000D02*
X79375000Y-114427000D01*
X83636073Y-89845931D02*
X79558931Y-89845931D01*
X79266999Y-89553999D02*
X78867000Y-89154000D01*
X79558931Y-89845931D02*
X79266999Y-89553999D01*
X79248000Y-90678000D02*
X78867000Y-90297000D01*
X82676998Y-90678000D02*
X79248000Y-90678000D01*
X81914992Y-72770992D02*
X81914992Y-75126315D01*
X81280000Y-72136000D02*
X81914992Y-72770992D01*
X81914992Y-75126315D02*
X81914992Y-75692000D01*
X80917999Y-73424999D02*
X80518000Y-73025000D01*
X81026000Y-76581000D02*
X81026000Y-73533000D01*
X81026000Y-73533000D02*
X80917999Y-73424999D01*
X108839000Y-94144000D02*
X108331000Y-93636000D01*
X108839000Y-99060000D02*
X108839000Y-94144000D01*
D23*
G36*
X129244063Y-111403774D02*
G01*
X129388226Y-111547937D01*
X129557744Y-111661205D01*
X129746102Y-111739226D01*
X129946061Y-111779000D01*
X130149939Y-111779000D01*
X130349898Y-111739226D01*
X130538256Y-111661205D01*
X130707774Y-111547937D01*
X130851937Y-111403774D01*
X130953349Y-111252000D01*
X135696277Y-111252000D01*
X135594051Y-111354226D01*
X135480783Y-111523744D01*
X135402762Y-111712102D01*
X135362988Y-111912061D01*
X135362988Y-112115939D01*
X135402762Y-112315898D01*
X135480783Y-112504256D01*
X135594051Y-112673774D01*
X135738214Y-112817937D01*
X135907732Y-112931205D01*
X136096090Y-113009226D01*
X136296049Y-113049000D01*
X136499927Y-113049000D01*
X136699886Y-113009226D01*
X136888244Y-112931205D01*
X137057762Y-112817937D01*
X137201925Y-112673774D01*
X137315193Y-112504256D01*
X137393214Y-112315898D01*
X137432988Y-112115939D01*
X137432988Y-111912061D01*
X137393214Y-111712102D01*
X137315193Y-111523744D01*
X137201925Y-111354226D01*
X137099699Y-111252000D01*
X138314247Y-111252000D01*
X138323774Y-111299898D01*
X138401795Y-111488256D01*
X138515063Y-111657774D01*
X138659226Y-111801937D01*
X138828744Y-111915205D01*
X139017102Y-111993226D01*
X139217061Y-112033000D01*
X139420939Y-112033000D01*
X139620898Y-111993226D01*
X139809256Y-111915205D01*
X139978774Y-111801937D01*
X140122937Y-111657774D01*
X140236205Y-111488256D01*
X140314226Y-111299898D01*
X140323753Y-111252000D01*
X145997394Y-111252000D01*
X146558000Y-111812606D01*
X146558000Y-126340532D01*
X146529795Y-126382744D01*
X146451774Y-126571102D01*
X146412000Y-126771061D01*
X146412000Y-126974939D01*
X146451774Y-127174898D01*
X146529795Y-127363256D01*
X146558000Y-127405468D01*
X146558000Y-129134532D01*
X146529795Y-129176744D01*
X146451774Y-129365102D01*
X146412000Y-129565061D01*
X146412000Y-129768939D01*
X146451774Y-129968898D01*
X146527845Y-130152549D01*
X146250741Y-130429653D01*
X146151939Y-130410000D01*
X145948061Y-130410000D01*
X145748102Y-130449774D01*
X145559744Y-130527795D01*
X145390226Y-130641063D01*
X145348289Y-130683000D01*
X143576711Y-130683000D01*
X143534774Y-130641063D01*
X143365256Y-130527795D01*
X143176898Y-130449774D01*
X142976939Y-130410000D01*
X142773061Y-130410000D01*
X142573102Y-130449774D01*
X142384744Y-130527795D01*
X142215226Y-130641063D01*
X142173289Y-130683000D01*
X139065000Y-130683000D01*
X139040224Y-130685440D01*
X139016399Y-130692667D01*
X138994443Y-130704403D01*
X138975197Y-130720197D01*
X138340197Y-131355197D01*
X138324403Y-131374443D01*
X138312667Y-131396399D01*
X138305440Y-131420224D01*
X138303000Y-131445000D01*
X138303000Y-139647394D01*
X137742394Y-140208000D01*
X135269015Y-140208000D01*
X135274000Y-140182939D01*
X135274000Y-139979061D01*
X135234226Y-139779102D01*
X135156205Y-139590744D01*
X135042937Y-139421226D01*
X134898774Y-139277063D01*
X134729256Y-139163795D01*
X134540898Y-139085774D01*
X134340939Y-139046000D01*
X134137061Y-139046000D01*
X133937102Y-139085774D01*
X133748744Y-139163795D01*
X133579226Y-139277063D01*
X133435063Y-139421226D01*
X133321795Y-139590744D01*
X133243774Y-139779102D01*
X133204000Y-139979061D01*
X133204000Y-140182939D01*
X133208985Y-140208000D01*
X130106490Y-140208000D01*
X130203205Y-140063256D01*
X130281226Y-139874898D01*
X130321000Y-139674939D01*
X130321000Y-139471061D01*
X130281226Y-139271102D01*
X130203205Y-139082744D01*
X130089937Y-138913226D01*
X129945774Y-138769063D01*
X129776256Y-138655795D01*
X129587898Y-138577774D01*
X129387939Y-138538000D01*
X129184061Y-138538000D01*
X128984102Y-138577774D01*
X128795744Y-138655795D01*
X128626226Y-138769063D01*
X128482063Y-138913226D01*
X128368795Y-139082744D01*
X128290774Y-139271102D01*
X128251000Y-139471061D01*
X128251000Y-139674939D01*
X128290774Y-139874898D01*
X128368795Y-140063256D01*
X128465510Y-140208000D01*
X127959459Y-140208000D01*
X127863939Y-140189000D01*
X127660061Y-140189000D01*
X127564541Y-140208000D01*
X125782606Y-140208000D01*
X124587000Y-139012394D01*
X124587000Y-135309556D01*
X124731744Y-135406271D01*
X124920102Y-135484292D01*
X125120061Y-135524066D01*
X125323939Y-135524066D01*
X125523898Y-135484292D01*
X125712256Y-135406271D01*
X125881774Y-135293003D01*
X126025937Y-135148840D01*
X126139205Y-134979322D01*
X126217226Y-134790964D01*
X126257000Y-134591005D01*
X126257000Y-134391061D01*
X132696000Y-134391061D01*
X132696000Y-134594939D01*
X132735774Y-134794898D01*
X132813795Y-134983256D01*
X132927063Y-135152774D01*
X133071226Y-135296937D01*
X133240744Y-135410205D01*
X133429102Y-135488226D01*
X133629061Y-135528000D01*
X133832939Y-135528000D01*
X134032898Y-135488226D01*
X134221256Y-135410205D01*
X134390774Y-135296937D01*
X134534937Y-135152774D01*
X134648205Y-134983256D01*
X134726226Y-134794898D01*
X134766000Y-134594939D01*
X134766000Y-134391061D01*
X134726226Y-134191102D01*
X134648205Y-134002744D01*
X134534937Y-133833226D01*
X134390774Y-133689063D01*
X134221256Y-133575795D01*
X134032898Y-133497774D01*
X133832939Y-133458000D01*
X133629061Y-133458000D01*
X133429102Y-133497774D01*
X133240744Y-133575795D01*
X133071226Y-133689063D01*
X132927063Y-133833226D01*
X132813795Y-134002744D01*
X132735774Y-134191102D01*
X132696000Y-134391061D01*
X126257000Y-134391061D01*
X126257000Y-134387127D01*
X126217226Y-134187168D01*
X126139205Y-133998810D01*
X126025937Y-133829292D01*
X125881774Y-133685129D01*
X125712256Y-133571861D01*
X125523898Y-133493840D01*
X125323939Y-133454066D01*
X125120061Y-133454066D01*
X124920102Y-133493840D01*
X124789845Y-133547794D01*
X124587000Y-133344949D01*
X124587000Y-127660061D01*
X137141000Y-127660061D01*
X137141000Y-127863939D01*
X137180774Y-128063898D01*
X137258795Y-128252256D01*
X137372063Y-128421774D01*
X137516226Y-128565937D01*
X137685744Y-128679205D01*
X137874102Y-128757226D01*
X138074061Y-128797000D01*
X138277939Y-128797000D01*
X138477898Y-128757226D01*
X138666256Y-128679205D01*
X138835774Y-128565937D01*
X138979937Y-128421774D01*
X139093205Y-128252256D01*
X139171226Y-128063898D01*
X139211000Y-127863939D01*
X139211000Y-127660061D01*
X139171226Y-127460102D01*
X139093205Y-127271744D01*
X138979937Y-127102226D01*
X138835774Y-126958063D01*
X138666256Y-126844795D01*
X138477898Y-126766774D01*
X138277939Y-126727000D01*
X138074061Y-126727000D01*
X137874102Y-126766774D01*
X137685744Y-126844795D01*
X137516226Y-126958063D01*
X137372063Y-127102226D01*
X137258795Y-127271744D01*
X137180774Y-127460102D01*
X137141000Y-127660061D01*
X124587000Y-127660061D01*
X124587000Y-126263061D01*
X128505000Y-126263061D01*
X128505000Y-126466939D01*
X128544774Y-126666898D01*
X128622795Y-126855256D01*
X128736063Y-127024774D01*
X128880226Y-127168937D01*
X129049744Y-127282205D01*
X129238102Y-127360226D01*
X129438061Y-127400000D01*
X129641939Y-127400000D01*
X129841898Y-127360226D01*
X130030256Y-127282205D01*
X130199774Y-127168937D01*
X130343937Y-127024774D01*
X130457205Y-126855256D01*
X130535226Y-126666898D01*
X130575000Y-126466939D01*
X130575000Y-126263061D01*
X130535226Y-126063102D01*
X130457205Y-125874744D01*
X130348504Y-125712061D01*
X130830000Y-125712061D01*
X130830000Y-125915939D01*
X130869774Y-126115898D01*
X130947795Y-126304256D01*
X131061063Y-126473774D01*
X131205226Y-126617937D01*
X131374744Y-126731205D01*
X131563102Y-126809226D01*
X131763061Y-126849000D01*
X131966939Y-126849000D01*
X132166898Y-126809226D01*
X132355256Y-126731205D01*
X132524774Y-126617937D01*
X132668937Y-126473774D01*
X132782205Y-126304256D01*
X132860226Y-126115898D01*
X132900000Y-125915939D01*
X132900000Y-125712061D01*
X132860226Y-125512102D01*
X132782205Y-125323744D01*
X132668937Y-125154226D01*
X132524774Y-125010063D01*
X132499329Y-124993061D01*
X144380000Y-124993061D01*
X144380000Y-125196939D01*
X144419774Y-125396898D01*
X144497795Y-125585256D01*
X144611063Y-125754774D01*
X144755226Y-125898937D01*
X144924744Y-126012205D01*
X145113102Y-126090226D01*
X145313061Y-126130000D01*
X145516939Y-126130000D01*
X145716898Y-126090226D01*
X145905256Y-126012205D01*
X146074774Y-125898937D01*
X146218937Y-125754774D01*
X146332205Y-125585256D01*
X146410226Y-125396898D01*
X146450000Y-125196939D01*
X146450000Y-124993061D01*
X146410226Y-124793102D01*
X146332205Y-124604744D01*
X146218937Y-124435226D01*
X146074774Y-124291063D01*
X145905256Y-124177795D01*
X145716898Y-124099774D01*
X145516939Y-124060000D01*
X145313061Y-124060000D01*
X145113102Y-124099774D01*
X144924744Y-124177795D01*
X144755226Y-124291063D01*
X144611063Y-124435226D01*
X144497795Y-124604744D01*
X144419774Y-124793102D01*
X144380000Y-124993061D01*
X132499329Y-124993061D01*
X132355256Y-124896795D01*
X132166898Y-124818774D01*
X131966939Y-124779000D01*
X131763061Y-124779000D01*
X131563102Y-124818774D01*
X131374744Y-124896795D01*
X131205226Y-125010063D01*
X131061063Y-125154226D01*
X130947795Y-125323744D01*
X130869774Y-125512102D01*
X130830000Y-125712061D01*
X130348504Y-125712061D01*
X130343937Y-125705226D01*
X130199774Y-125561063D01*
X130030256Y-125447795D01*
X129841898Y-125369774D01*
X129641939Y-125330000D01*
X129438061Y-125330000D01*
X129238102Y-125369774D01*
X129049744Y-125447795D01*
X128880226Y-125561063D01*
X128736063Y-125705226D01*
X128622795Y-125874744D01*
X128544774Y-126063102D01*
X128505000Y-126263061D01*
X124587000Y-126263061D01*
X124587000Y-122326061D01*
X132569000Y-122326061D01*
X132569000Y-122529939D01*
X132608774Y-122729898D01*
X132686795Y-122918256D01*
X132800063Y-123087774D01*
X132944226Y-123231937D01*
X133113744Y-123345205D01*
X133302102Y-123423226D01*
X133502061Y-123463000D01*
X133705939Y-123463000D01*
X133905898Y-123423226D01*
X134094256Y-123345205D01*
X134263774Y-123231937D01*
X134407937Y-123087774D01*
X134521205Y-122918256D01*
X134599226Y-122729898D01*
X134639000Y-122529939D01*
X134639000Y-122453061D01*
X134855000Y-122453061D01*
X134855000Y-122656939D01*
X134894774Y-122856898D01*
X134972795Y-123045256D01*
X135086063Y-123214774D01*
X135230226Y-123358937D01*
X135399744Y-123472205D01*
X135588102Y-123550226D01*
X135788061Y-123590000D01*
X135991939Y-123590000D01*
X136191898Y-123550226D01*
X136380256Y-123472205D01*
X136549774Y-123358937D01*
X136693937Y-123214774D01*
X136807205Y-123045256D01*
X136885226Y-122856898D01*
X136925000Y-122656939D01*
X136925000Y-122453061D01*
X136885226Y-122253102D01*
X136807205Y-122064744D01*
X136693937Y-121895226D01*
X136549774Y-121751063D01*
X136380256Y-121637795D01*
X136191898Y-121559774D01*
X135991939Y-121520000D01*
X135788061Y-121520000D01*
X135588102Y-121559774D01*
X135399744Y-121637795D01*
X135230226Y-121751063D01*
X135086063Y-121895226D01*
X134972795Y-122064744D01*
X134894774Y-122253102D01*
X134855000Y-122453061D01*
X134639000Y-122453061D01*
X134639000Y-122326061D01*
X134599226Y-122126102D01*
X134521205Y-121937744D01*
X134407937Y-121768226D01*
X134263774Y-121624063D01*
X134094256Y-121510795D01*
X133905898Y-121432774D01*
X133705939Y-121393000D01*
X133502061Y-121393000D01*
X133302102Y-121432774D01*
X133113744Y-121510795D01*
X132944226Y-121624063D01*
X132800063Y-121768226D01*
X132686795Y-121937744D01*
X132608774Y-122126102D01*
X132569000Y-122326061D01*
X124587000Y-122326061D01*
X124587000Y-121305000D01*
X137811928Y-121305000D01*
X137811928Y-123805000D01*
X137824188Y-123929482D01*
X137860498Y-124049180D01*
X137919463Y-124159494D01*
X137998815Y-124256185D01*
X138095506Y-124335537D01*
X138205820Y-124394502D01*
X138325518Y-124430812D01*
X138450000Y-124443072D01*
X140950000Y-124443072D01*
X141074482Y-124430812D01*
X141194180Y-124394502D01*
X141304494Y-124335537D01*
X141401185Y-124256185D01*
X141480537Y-124159494D01*
X141539502Y-124049180D01*
X141575812Y-123929482D01*
X141588072Y-123805000D01*
X141588072Y-122453061D01*
X144380000Y-122453061D01*
X144380000Y-122656939D01*
X144419774Y-122856898D01*
X144497795Y-123045256D01*
X144611063Y-123214774D01*
X144755226Y-123358937D01*
X144924744Y-123472205D01*
X145113102Y-123550226D01*
X145313061Y-123590000D01*
X145516939Y-123590000D01*
X145716898Y-123550226D01*
X145905256Y-123472205D01*
X146074774Y-123358937D01*
X146218937Y-123214774D01*
X146332205Y-123045256D01*
X146410226Y-122856898D01*
X146450000Y-122656939D01*
X146450000Y-122453061D01*
X146410226Y-122253102D01*
X146332205Y-122064744D01*
X146218937Y-121895226D01*
X146074774Y-121751063D01*
X145905256Y-121637795D01*
X145716898Y-121559774D01*
X145516939Y-121520000D01*
X145313061Y-121520000D01*
X145113102Y-121559774D01*
X144924744Y-121637795D01*
X144755226Y-121751063D01*
X144611063Y-121895226D01*
X144497795Y-122064744D01*
X144419774Y-122253102D01*
X144380000Y-122453061D01*
X141588072Y-122453061D01*
X141588072Y-121305000D01*
X141575812Y-121180518D01*
X141539502Y-121060820D01*
X141480537Y-120950506D01*
X141401185Y-120853815D01*
X141304494Y-120774463D01*
X141194180Y-120715498D01*
X141074482Y-120679188D01*
X140950000Y-120666928D01*
X138450000Y-120666928D01*
X138325518Y-120679188D01*
X138205820Y-120715498D01*
X138095506Y-120774463D01*
X137998815Y-120853815D01*
X137919463Y-120950506D01*
X137860498Y-121060820D01*
X137824188Y-121180518D01*
X137811928Y-121305000D01*
X124587000Y-121305000D01*
X124587000Y-120630000D01*
X129556928Y-120630000D01*
X129569188Y-120754482D01*
X129605498Y-120874180D01*
X129664463Y-120984494D01*
X129743815Y-121081185D01*
X129840506Y-121160537D01*
X129950820Y-121219502D01*
X130070518Y-121255812D01*
X130195000Y-121268072D01*
X131159250Y-121265000D01*
X131318000Y-121106250D01*
X131318000Y-119507000D01*
X131572000Y-119507000D01*
X131572000Y-121106250D01*
X131730750Y-121265000D01*
X132695000Y-121268072D01*
X132819482Y-121255812D01*
X132939180Y-121219502D01*
X133049494Y-121160537D01*
X133146185Y-121081185D01*
X133225537Y-120984494D01*
X133284502Y-120874180D01*
X133320812Y-120754482D01*
X133333072Y-120630000D01*
X133330000Y-119665750D01*
X133171250Y-119507000D01*
X131572000Y-119507000D01*
X131318000Y-119507000D01*
X129718750Y-119507000D01*
X129560000Y-119665750D01*
X129556928Y-120630000D01*
X124587000Y-120630000D01*
X124587000Y-118130000D01*
X129556928Y-118130000D01*
X129560000Y-119094250D01*
X129718750Y-119253000D01*
X131318000Y-119253000D01*
X131318000Y-117653750D01*
X131572000Y-117653750D01*
X131572000Y-119253000D01*
X133171250Y-119253000D01*
X133330000Y-119094250D01*
X133331437Y-118643061D01*
X135998000Y-118643061D01*
X135998000Y-118846939D01*
X136037774Y-119046898D01*
X136115795Y-119235256D01*
X136229063Y-119404774D01*
X136373226Y-119548937D01*
X136542744Y-119662205D01*
X136731102Y-119740226D01*
X136931061Y-119780000D01*
X137134939Y-119780000D01*
X137334898Y-119740226D01*
X137523256Y-119662205D01*
X137692774Y-119548937D01*
X137836937Y-119404774D01*
X137950205Y-119235256D01*
X138028226Y-119046898D01*
X138068000Y-118846939D01*
X138068000Y-118643061D01*
X138035566Y-118480000D01*
X141971928Y-118480000D01*
X141971928Y-120280000D01*
X141984188Y-120404482D01*
X142020498Y-120524180D01*
X142079463Y-120634494D01*
X142158815Y-120731185D01*
X142255506Y-120810537D01*
X142365820Y-120869502D01*
X142485518Y-120905812D01*
X142610000Y-120918072D01*
X144410000Y-120918072D01*
X144534482Y-120905812D01*
X144654180Y-120869502D01*
X144764494Y-120810537D01*
X144861185Y-120731185D01*
X144940537Y-120634494D01*
X144999502Y-120524180D01*
X145035812Y-120404482D01*
X145048072Y-120280000D01*
X145048072Y-118480000D01*
X145035812Y-118355518D01*
X144999502Y-118235820D01*
X144940537Y-118125506D01*
X144861185Y-118028815D01*
X144764494Y-117949463D01*
X144654180Y-117890498D01*
X144635873Y-117884944D01*
X144702312Y-117818505D01*
X144870299Y-117567095D01*
X144986011Y-117287743D01*
X145045000Y-116991184D01*
X145045000Y-116688816D01*
X144986011Y-116392257D01*
X144870299Y-116112905D01*
X144702312Y-115861495D01*
X144488505Y-115647688D01*
X144237095Y-115479701D01*
X143957743Y-115363989D01*
X143661184Y-115305000D01*
X143358816Y-115305000D01*
X143062257Y-115363989D01*
X142782905Y-115479701D01*
X142531495Y-115647688D01*
X142317688Y-115861495D01*
X142149701Y-116112905D01*
X142033989Y-116392257D01*
X141975000Y-116688816D01*
X141975000Y-116991184D01*
X142033989Y-117287743D01*
X142149701Y-117567095D01*
X142317688Y-117818505D01*
X142384127Y-117884944D01*
X142365820Y-117890498D01*
X142255506Y-117949463D01*
X142158815Y-118028815D01*
X142079463Y-118125506D01*
X142020498Y-118235820D01*
X141984188Y-118355518D01*
X141971928Y-118480000D01*
X138035566Y-118480000D01*
X138028226Y-118443102D01*
X137950205Y-118254744D01*
X137836937Y-118085226D01*
X137692774Y-117941063D01*
X137523256Y-117827795D01*
X137334898Y-117749774D01*
X137134939Y-117710000D01*
X136931061Y-117710000D01*
X136731102Y-117749774D01*
X136542744Y-117827795D01*
X136373226Y-117941063D01*
X136229063Y-118085226D01*
X136115795Y-118254744D01*
X136037774Y-118443102D01*
X135998000Y-118643061D01*
X133331437Y-118643061D01*
X133333072Y-118130000D01*
X133320812Y-118005518D01*
X133284502Y-117885820D01*
X133225537Y-117775506D01*
X133146185Y-117678815D01*
X133049494Y-117599463D01*
X132939180Y-117540498D01*
X132819482Y-117504188D01*
X132695000Y-117491928D01*
X131730750Y-117495000D01*
X131572000Y-117653750D01*
X131318000Y-117653750D01*
X131159250Y-117495000D01*
X130195000Y-117491928D01*
X130070518Y-117504188D01*
X129950820Y-117540498D01*
X129840506Y-117599463D01*
X129743815Y-117678815D01*
X129664463Y-117775506D01*
X129605498Y-117885820D01*
X129569188Y-118005518D01*
X129556928Y-118130000D01*
X124587000Y-118130000D01*
X124587000Y-115272585D01*
X124663815Y-115366185D01*
X124760506Y-115445537D01*
X124870820Y-115504502D01*
X124990518Y-115540812D01*
X125115000Y-115553072D01*
X127615000Y-115553072D01*
X127739482Y-115540812D01*
X127859180Y-115504502D01*
X127927355Y-115468061D01*
X134982000Y-115468061D01*
X134982000Y-115671939D01*
X135021774Y-115871898D01*
X135099795Y-116060256D01*
X135213063Y-116229774D01*
X135357226Y-116373937D01*
X135526744Y-116487205D01*
X135715102Y-116565226D01*
X135915061Y-116605000D01*
X136118939Y-116605000D01*
X136318898Y-116565226D01*
X136507256Y-116487205D01*
X136676774Y-116373937D01*
X136820937Y-116229774D01*
X136926184Y-116072260D01*
X136865774Y-116218102D01*
X136826000Y-116418061D01*
X136826000Y-116621939D01*
X136865774Y-116821898D01*
X136943795Y-117010256D01*
X137057063Y-117179774D01*
X137201226Y-117323937D01*
X137370744Y-117437205D01*
X137559102Y-117515226D01*
X137759061Y-117555000D01*
X137962939Y-117555000D01*
X138162898Y-117515226D01*
X138351256Y-117437205D01*
X138520774Y-117323937D01*
X138664937Y-117179774D01*
X138778205Y-117010256D01*
X138856226Y-116821898D01*
X138896000Y-116621939D01*
X138896000Y-116418061D01*
X138856226Y-116218102D01*
X138778205Y-116029744D01*
X138664937Y-115860226D01*
X138520774Y-115716063D01*
X138351256Y-115602795D01*
X138162898Y-115524774D01*
X137962939Y-115485000D01*
X137759061Y-115485000D01*
X137559102Y-115524774D01*
X137370744Y-115602795D01*
X137201226Y-115716063D01*
X137057063Y-115860226D01*
X136951816Y-116017740D01*
X137012226Y-115871898D01*
X137052000Y-115671939D01*
X137052000Y-115468061D01*
X137012226Y-115268102D01*
X136934205Y-115079744D01*
X136820937Y-114910226D01*
X136676774Y-114766063D01*
X136507256Y-114652795D01*
X136318898Y-114574774D01*
X136118939Y-114535000D01*
X135915061Y-114535000D01*
X135715102Y-114574774D01*
X135526744Y-114652795D01*
X135357226Y-114766063D01*
X135213063Y-114910226D01*
X135099795Y-115079744D01*
X135021774Y-115268102D01*
X134982000Y-115468061D01*
X127927355Y-115468061D01*
X127969494Y-115445537D01*
X128066185Y-115366185D01*
X128145537Y-115269494D01*
X128204502Y-115159180D01*
X128240812Y-115039482D01*
X128253072Y-114915000D01*
X128253072Y-113563061D01*
X129140000Y-113563061D01*
X129140000Y-113766939D01*
X129179774Y-113966898D01*
X129257795Y-114155256D01*
X129371063Y-114324774D01*
X129515226Y-114468937D01*
X129684744Y-114582205D01*
X129873102Y-114660226D01*
X130073061Y-114700000D01*
X130276939Y-114700000D01*
X130476898Y-114660226D01*
X130665256Y-114582205D01*
X130834774Y-114468937D01*
X130978937Y-114324774D01*
X131092205Y-114155256D01*
X131170226Y-113966898D01*
X131210000Y-113766939D01*
X131210000Y-113563061D01*
X131680000Y-113563061D01*
X131680000Y-113766939D01*
X131719774Y-113966898D01*
X131797795Y-114155256D01*
X131911063Y-114324774D01*
X132055226Y-114468937D01*
X132224744Y-114582205D01*
X132413102Y-114660226D01*
X132613061Y-114700000D01*
X132816939Y-114700000D01*
X133016898Y-114660226D01*
X133205256Y-114582205D01*
X133374774Y-114468937D01*
X133518937Y-114324774D01*
X133632205Y-114155256D01*
X133710226Y-113966898D01*
X133750000Y-113766939D01*
X133750000Y-113563061D01*
X138030000Y-113563061D01*
X138030000Y-113766939D01*
X138069774Y-113966898D01*
X138147795Y-114155256D01*
X138261063Y-114324774D01*
X138405226Y-114468937D01*
X138574744Y-114582205D01*
X138763102Y-114660226D01*
X138963061Y-114700000D01*
X139166939Y-114700000D01*
X139366898Y-114660226D01*
X139555256Y-114582205D01*
X139724774Y-114468937D01*
X139868937Y-114324774D01*
X139982205Y-114155256D01*
X140060226Y-113966898D01*
X140100000Y-113766939D01*
X140100000Y-113563061D01*
X140060226Y-113363102D01*
X139982205Y-113174744D01*
X139868937Y-113005226D01*
X139724774Y-112861063D01*
X139555256Y-112747795D01*
X139366898Y-112669774D01*
X139166939Y-112630000D01*
X138963061Y-112630000D01*
X138763102Y-112669774D01*
X138574744Y-112747795D01*
X138405226Y-112861063D01*
X138261063Y-113005226D01*
X138147795Y-113174744D01*
X138069774Y-113363102D01*
X138030000Y-113563061D01*
X133750000Y-113563061D01*
X133710226Y-113363102D01*
X133632205Y-113174744D01*
X133518937Y-113005226D01*
X133374774Y-112861063D01*
X133205256Y-112747795D01*
X133016898Y-112669774D01*
X132816939Y-112630000D01*
X132613061Y-112630000D01*
X132413102Y-112669774D01*
X132224744Y-112747795D01*
X132055226Y-112861063D01*
X131911063Y-113005226D01*
X131797795Y-113174744D01*
X131719774Y-113363102D01*
X131680000Y-113563061D01*
X131210000Y-113563061D01*
X131170226Y-113363102D01*
X131092205Y-113174744D01*
X130978937Y-113005226D01*
X130834774Y-112861063D01*
X130665256Y-112747795D01*
X130476898Y-112669774D01*
X130276939Y-112630000D01*
X130073061Y-112630000D01*
X129873102Y-112669774D01*
X129684744Y-112747795D01*
X129515226Y-112861063D01*
X129371063Y-113005226D01*
X129257795Y-113174744D01*
X129179774Y-113363102D01*
X129140000Y-113563061D01*
X128253072Y-113563061D01*
X128253072Y-112415000D01*
X128240812Y-112290518D01*
X128204502Y-112170820D01*
X128145537Y-112060506D01*
X128066185Y-111963815D01*
X127969494Y-111884463D01*
X127859180Y-111825498D01*
X127739482Y-111789188D01*
X127615000Y-111776928D01*
X125115000Y-111776928D01*
X124990518Y-111789188D01*
X124870820Y-111825498D01*
X124760506Y-111884463D01*
X124663815Y-111963815D01*
X124587000Y-112057415D01*
X124587000Y-111812606D01*
X125147606Y-111252000D01*
X129142651Y-111252000D01*
X129244063Y-111403774D01*
G37*
X129244063Y-111403774D02*
X129388226Y-111547937D01*
X129557744Y-111661205D01*
X129746102Y-111739226D01*
X129946061Y-111779000D01*
X130149939Y-111779000D01*
X130349898Y-111739226D01*
X130538256Y-111661205D01*
X130707774Y-111547937D01*
X130851937Y-111403774D01*
X130953349Y-111252000D01*
X135696277Y-111252000D01*
X135594051Y-111354226D01*
X135480783Y-111523744D01*
X135402762Y-111712102D01*
X135362988Y-111912061D01*
X135362988Y-112115939D01*
X135402762Y-112315898D01*
X135480783Y-112504256D01*
X135594051Y-112673774D01*
X135738214Y-112817937D01*
X135907732Y-112931205D01*
X136096090Y-113009226D01*
X136296049Y-113049000D01*
X136499927Y-113049000D01*
X136699886Y-113009226D01*
X136888244Y-112931205D01*
X137057762Y-112817937D01*
X137201925Y-112673774D01*
X137315193Y-112504256D01*
X137393214Y-112315898D01*
X137432988Y-112115939D01*
X137432988Y-111912061D01*
X137393214Y-111712102D01*
X137315193Y-111523744D01*
X137201925Y-111354226D01*
X137099699Y-111252000D01*
X138314247Y-111252000D01*
X138323774Y-111299898D01*
X138401795Y-111488256D01*
X138515063Y-111657774D01*
X138659226Y-111801937D01*
X138828744Y-111915205D01*
X139017102Y-111993226D01*
X139217061Y-112033000D01*
X139420939Y-112033000D01*
X139620898Y-111993226D01*
X139809256Y-111915205D01*
X139978774Y-111801937D01*
X140122937Y-111657774D01*
X140236205Y-111488256D01*
X140314226Y-111299898D01*
X140323753Y-111252000D01*
X145997394Y-111252000D01*
X146558000Y-111812606D01*
X146558000Y-126340532D01*
X146529795Y-126382744D01*
X146451774Y-126571102D01*
X146412000Y-126771061D01*
X146412000Y-126974939D01*
X146451774Y-127174898D01*
X146529795Y-127363256D01*
X146558000Y-127405468D01*
X146558000Y-129134532D01*
X146529795Y-129176744D01*
X146451774Y-129365102D01*
X146412000Y-129565061D01*
X146412000Y-129768939D01*
X146451774Y-129968898D01*
X146527845Y-130152549D01*
X146250741Y-130429653D01*
X146151939Y-130410000D01*
X145948061Y-130410000D01*
X145748102Y-130449774D01*
X145559744Y-130527795D01*
X145390226Y-130641063D01*
X145348289Y-130683000D01*
X143576711Y-130683000D01*
X143534774Y-130641063D01*
X143365256Y-130527795D01*
X143176898Y-130449774D01*
X142976939Y-130410000D01*
X142773061Y-130410000D01*
X142573102Y-130449774D01*
X142384744Y-130527795D01*
X142215226Y-130641063D01*
X142173289Y-130683000D01*
X139065000Y-130683000D01*
X139040224Y-130685440D01*
X139016399Y-130692667D01*
X138994443Y-130704403D01*
X138975197Y-130720197D01*
X138340197Y-131355197D01*
X138324403Y-131374443D01*
X138312667Y-131396399D01*
X138305440Y-131420224D01*
X138303000Y-131445000D01*
X138303000Y-139647394D01*
X137742394Y-140208000D01*
X135269015Y-140208000D01*
X135274000Y-140182939D01*
X135274000Y-139979061D01*
X135234226Y-139779102D01*
X135156205Y-139590744D01*
X135042937Y-139421226D01*
X134898774Y-139277063D01*
X134729256Y-139163795D01*
X134540898Y-139085774D01*
X134340939Y-139046000D01*
X134137061Y-139046000D01*
X133937102Y-139085774D01*
X133748744Y-139163795D01*
X133579226Y-139277063D01*
X133435063Y-139421226D01*
X133321795Y-139590744D01*
X133243774Y-139779102D01*
X133204000Y-139979061D01*
X133204000Y-140182939D01*
X133208985Y-140208000D01*
X130106490Y-140208000D01*
X130203205Y-140063256D01*
X130281226Y-139874898D01*
X130321000Y-139674939D01*
X130321000Y-139471061D01*
X130281226Y-139271102D01*
X130203205Y-139082744D01*
X130089937Y-138913226D01*
X129945774Y-138769063D01*
X129776256Y-138655795D01*
X129587898Y-138577774D01*
X129387939Y-138538000D01*
X129184061Y-138538000D01*
X128984102Y-138577774D01*
X128795744Y-138655795D01*
X128626226Y-138769063D01*
X128482063Y-138913226D01*
X128368795Y-139082744D01*
X128290774Y-139271102D01*
X128251000Y-139471061D01*
X128251000Y-139674939D01*
X128290774Y-139874898D01*
X128368795Y-140063256D01*
X128465510Y-140208000D01*
X127959459Y-140208000D01*
X127863939Y-140189000D01*
X127660061Y-140189000D01*
X127564541Y-140208000D01*
X125782606Y-140208000D01*
X124587000Y-139012394D01*
X124587000Y-135309556D01*
X124731744Y-135406271D01*
X124920102Y-135484292D01*
X125120061Y-135524066D01*
X125323939Y-135524066D01*
X125523898Y-135484292D01*
X125712256Y-135406271D01*
X125881774Y-135293003D01*
X126025937Y-135148840D01*
X126139205Y-134979322D01*
X126217226Y-134790964D01*
X126257000Y-134591005D01*
X126257000Y-134391061D01*
X132696000Y-134391061D01*
X132696000Y-134594939D01*
X132735774Y-134794898D01*
X132813795Y-134983256D01*
X132927063Y-135152774D01*
X133071226Y-135296937D01*
X133240744Y-135410205D01*
X133429102Y-135488226D01*
X133629061Y-135528000D01*
X133832939Y-135528000D01*
X134032898Y-135488226D01*
X134221256Y-135410205D01*
X134390774Y-135296937D01*
X134534937Y-135152774D01*
X134648205Y-134983256D01*
X134726226Y-134794898D01*
X134766000Y-134594939D01*
X134766000Y-134391061D01*
X134726226Y-134191102D01*
X134648205Y-134002744D01*
X134534937Y-133833226D01*
X134390774Y-133689063D01*
X134221256Y-133575795D01*
X134032898Y-133497774D01*
X133832939Y-133458000D01*
X133629061Y-133458000D01*
X133429102Y-133497774D01*
X133240744Y-133575795D01*
X133071226Y-133689063D01*
X132927063Y-133833226D01*
X132813795Y-134002744D01*
X132735774Y-134191102D01*
X132696000Y-134391061D01*
X126257000Y-134391061D01*
X126257000Y-134387127D01*
X126217226Y-134187168D01*
X126139205Y-133998810D01*
X126025937Y-133829292D01*
X125881774Y-133685129D01*
X125712256Y-133571861D01*
X125523898Y-133493840D01*
X125323939Y-133454066D01*
X125120061Y-133454066D01*
X124920102Y-133493840D01*
X124789845Y-133547794D01*
X124587000Y-133344949D01*
X124587000Y-127660061D01*
X137141000Y-127660061D01*
X137141000Y-127863939D01*
X137180774Y-128063898D01*
X137258795Y-128252256D01*
X137372063Y-128421774D01*
X137516226Y-128565937D01*
X137685744Y-128679205D01*
X137874102Y-128757226D01*
X138074061Y-128797000D01*
X138277939Y-128797000D01*
X138477898Y-128757226D01*
X138666256Y-128679205D01*
X138835774Y-128565937D01*
X138979937Y-128421774D01*
X139093205Y-128252256D01*
X139171226Y-128063898D01*
X139211000Y-127863939D01*
X139211000Y-127660061D01*
X139171226Y-127460102D01*
X139093205Y-127271744D01*
X138979937Y-127102226D01*
X138835774Y-126958063D01*
X138666256Y-126844795D01*
X138477898Y-126766774D01*
X138277939Y-126727000D01*
X138074061Y-126727000D01*
X137874102Y-126766774D01*
X137685744Y-126844795D01*
X137516226Y-126958063D01*
X137372063Y-127102226D01*
X137258795Y-127271744D01*
X137180774Y-127460102D01*
X137141000Y-127660061D01*
X124587000Y-127660061D01*
X124587000Y-126263061D01*
X128505000Y-126263061D01*
X128505000Y-126466939D01*
X128544774Y-126666898D01*
X128622795Y-126855256D01*
X128736063Y-127024774D01*
X128880226Y-127168937D01*
X129049744Y-127282205D01*
X129238102Y-127360226D01*
X129438061Y-127400000D01*
X129641939Y-127400000D01*
X129841898Y-127360226D01*
X130030256Y-127282205D01*
X130199774Y-127168937D01*
X130343937Y-127024774D01*
X130457205Y-126855256D01*
X130535226Y-126666898D01*
X130575000Y-126466939D01*
X130575000Y-126263061D01*
X130535226Y-126063102D01*
X130457205Y-125874744D01*
X130348504Y-125712061D01*
X130830000Y-125712061D01*
X130830000Y-125915939D01*
X130869774Y-126115898D01*
X130947795Y-126304256D01*
X131061063Y-126473774D01*
X131205226Y-126617937D01*
X131374744Y-126731205D01*
X131563102Y-126809226D01*
X131763061Y-126849000D01*
X131966939Y-126849000D01*
X132166898Y-126809226D01*
X132355256Y-126731205D01*
X132524774Y-126617937D01*
X132668937Y-126473774D01*
X132782205Y-126304256D01*
X132860226Y-126115898D01*
X132900000Y-125915939D01*
X132900000Y-125712061D01*
X132860226Y-125512102D01*
X132782205Y-125323744D01*
X132668937Y-125154226D01*
X132524774Y-125010063D01*
X132499329Y-124993061D01*
X144380000Y-124993061D01*
X144380000Y-125196939D01*
X144419774Y-125396898D01*
X144497795Y-125585256D01*
X144611063Y-125754774D01*
X144755226Y-125898937D01*
X144924744Y-126012205D01*
X145113102Y-126090226D01*
X145313061Y-126130000D01*
X145516939Y-126130000D01*
X145716898Y-126090226D01*
X145905256Y-126012205D01*
X146074774Y-125898937D01*
X146218937Y-125754774D01*
X146332205Y-125585256D01*
X146410226Y-125396898D01*
X146450000Y-125196939D01*
X146450000Y-124993061D01*
X146410226Y-124793102D01*
X146332205Y-124604744D01*
X146218937Y-124435226D01*
X146074774Y-124291063D01*
X145905256Y-124177795D01*
X145716898Y-124099774D01*
X145516939Y-124060000D01*
X145313061Y-124060000D01*
X145113102Y-124099774D01*
X144924744Y-124177795D01*
X144755226Y-124291063D01*
X144611063Y-124435226D01*
X144497795Y-124604744D01*
X144419774Y-124793102D01*
X144380000Y-124993061D01*
X132499329Y-124993061D01*
X132355256Y-124896795D01*
X132166898Y-124818774D01*
X131966939Y-124779000D01*
X131763061Y-124779000D01*
X131563102Y-124818774D01*
X131374744Y-124896795D01*
X131205226Y-125010063D01*
X131061063Y-125154226D01*
X130947795Y-125323744D01*
X130869774Y-125512102D01*
X130830000Y-125712061D01*
X130348504Y-125712061D01*
X130343937Y-125705226D01*
X130199774Y-125561063D01*
X130030256Y-125447795D01*
X129841898Y-125369774D01*
X129641939Y-125330000D01*
X129438061Y-125330000D01*
X129238102Y-125369774D01*
X129049744Y-125447795D01*
X128880226Y-125561063D01*
X128736063Y-125705226D01*
X128622795Y-125874744D01*
X128544774Y-126063102D01*
X128505000Y-126263061D01*
X124587000Y-126263061D01*
X124587000Y-122326061D01*
X132569000Y-122326061D01*
X132569000Y-122529939D01*
X132608774Y-122729898D01*
X132686795Y-122918256D01*
X132800063Y-123087774D01*
X132944226Y-123231937D01*
X133113744Y-123345205D01*
X133302102Y-123423226D01*
X133502061Y-123463000D01*
X133705939Y-123463000D01*
X133905898Y-123423226D01*
X134094256Y-123345205D01*
X134263774Y-123231937D01*
X134407937Y-123087774D01*
X134521205Y-122918256D01*
X134599226Y-122729898D01*
X134639000Y-122529939D01*
X134639000Y-122453061D01*
X134855000Y-122453061D01*
X134855000Y-122656939D01*
X134894774Y-122856898D01*
X134972795Y-123045256D01*
X135086063Y-123214774D01*
X135230226Y-123358937D01*
X135399744Y-123472205D01*
X135588102Y-123550226D01*
X135788061Y-123590000D01*
X135991939Y-123590000D01*
X136191898Y-123550226D01*
X136380256Y-123472205D01*
X136549774Y-123358937D01*
X136693937Y-123214774D01*
X136807205Y-123045256D01*
X136885226Y-122856898D01*
X136925000Y-122656939D01*
X136925000Y-122453061D01*
X136885226Y-122253102D01*
X136807205Y-122064744D01*
X136693937Y-121895226D01*
X136549774Y-121751063D01*
X136380256Y-121637795D01*
X136191898Y-121559774D01*
X135991939Y-121520000D01*
X135788061Y-121520000D01*
X135588102Y-121559774D01*
X135399744Y-121637795D01*
X135230226Y-121751063D01*
X135086063Y-121895226D01*
X134972795Y-122064744D01*
X134894774Y-122253102D01*
X134855000Y-122453061D01*
X134639000Y-122453061D01*
X134639000Y-122326061D01*
X134599226Y-122126102D01*
X134521205Y-121937744D01*
X134407937Y-121768226D01*
X134263774Y-121624063D01*
X134094256Y-121510795D01*
X133905898Y-121432774D01*
X133705939Y-121393000D01*
X133502061Y-121393000D01*
X133302102Y-121432774D01*
X133113744Y-121510795D01*
X132944226Y-121624063D01*
X132800063Y-121768226D01*
X132686795Y-121937744D01*
X132608774Y-122126102D01*
X132569000Y-122326061D01*
X124587000Y-122326061D01*
X124587000Y-121305000D01*
X137811928Y-121305000D01*
X137811928Y-123805000D01*
X137824188Y-123929482D01*
X137860498Y-124049180D01*
X137919463Y-124159494D01*
X137998815Y-124256185D01*
X138095506Y-124335537D01*
X138205820Y-124394502D01*
X138325518Y-124430812D01*
X138450000Y-124443072D01*
X140950000Y-124443072D01*
X141074482Y-124430812D01*
X141194180Y-124394502D01*
X141304494Y-124335537D01*
X141401185Y-124256185D01*
X141480537Y-124159494D01*
X141539502Y-124049180D01*
X141575812Y-123929482D01*
X141588072Y-123805000D01*
X141588072Y-122453061D01*
X144380000Y-122453061D01*
X144380000Y-122656939D01*
X144419774Y-122856898D01*
X144497795Y-123045256D01*
X144611063Y-123214774D01*
X144755226Y-123358937D01*
X144924744Y-123472205D01*
X145113102Y-123550226D01*
X145313061Y-123590000D01*
X145516939Y-123590000D01*
X145716898Y-123550226D01*
X145905256Y-123472205D01*
X146074774Y-123358937D01*
X146218937Y-123214774D01*
X146332205Y-123045256D01*
X146410226Y-122856898D01*
X146450000Y-122656939D01*
X146450000Y-122453061D01*
X146410226Y-122253102D01*
X146332205Y-122064744D01*
X146218937Y-121895226D01*
X146074774Y-121751063D01*
X145905256Y-121637795D01*
X145716898Y-121559774D01*
X145516939Y-121520000D01*
X145313061Y-121520000D01*
X145113102Y-121559774D01*
X144924744Y-121637795D01*
X144755226Y-121751063D01*
X144611063Y-121895226D01*
X144497795Y-122064744D01*
X144419774Y-122253102D01*
X144380000Y-122453061D01*
X141588072Y-122453061D01*
X141588072Y-121305000D01*
X141575812Y-121180518D01*
X141539502Y-121060820D01*
X141480537Y-120950506D01*
X141401185Y-120853815D01*
X141304494Y-120774463D01*
X141194180Y-120715498D01*
X141074482Y-120679188D01*
X140950000Y-120666928D01*
X138450000Y-120666928D01*
X138325518Y-120679188D01*
X138205820Y-120715498D01*
X138095506Y-120774463D01*
X137998815Y-120853815D01*
X137919463Y-120950506D01*
X137860498Y-121060820D01*
X137824188Y-121180518D01*
X137811928Y-121305000D01*
X124587000Y-121305000D01*
X124587000Y-120630000D01*
X129556928Y-120630000D01*
X129569188Y-120754482D01*
X129605498Y-120874180D01*
X129664463Y-120984494D01*
X129743815Y-121081185D01*
X129840506Y-121160537D01*
X129950820Y-121219502D01*
X130070518Y-121255812D01*
X130195000Y-121268072D01*
X131159250Y-121265000D01*
X131318000Y-121106250D01*
X131318000Y-119507000D01*
X131572000Y-119507000D01*
X131572000Y-121106250D01*
X131730750Y-121265000D01*
X132695000Y-121268072D01*
X132819482Y-121255812D01*
X132939180Y-121219502D01*
X133049494Y-121160537D01*
X133146185Y-121081185D01*
X133225537Y-120984494D01*
X133284502Y-120874180D01*
X133320812Y-120754482D01*
X133333072Y-120630000D01*
X133330000Y-119665750D01*
X133171250Y-119507000D01*
X131572000Y-119507000D01*
X131318000Y-119507000D01*
X129718750Y-119507000D01*
X129560000Y-119665750D01*
X129556928Y-120630000D01*
X124587000Y-120630000D01*
X124587000Y-118130000D01*
X129556928Y-118130000D01*
X129560000Y-119094250D01*
X129718750Y-119253000D01*
X131318000Y-119253000D01*
X131318000Y-117653750D01*
X131572000Y-117653750D01*
X131572000Y-119253000D01*
X133171250Y-119253000D01*
X133330000Y-119094250D01*
X133331437Y-118643061D01*
X135998000Y-118643061D01*
X135998000Y-118846939D01*
X136037774Y-119046898D01*
X136115795Y-119235256D01*
X136229063Y-119404774D01*
X136373226Y-119548937D01*
X136542744Y-119662205D01*
X136731102Y-119740226D01*
X136931061Y-119780000D01*
X137134939Y-119780000D01*
X137334898Y-119740226D01*
X137523256Y-119662205D01*
X137692774Y-119548937D01*
X137836937Y-119404774D01*
X137950205Y-119235256D01*
X138028226Y-119046898D01*
X138068000Y-118846939D01*
X138068000Y-118643061D01*
X138035566Y-118480000D01*
X141971928Y-118480000D01*
X141971928Y-120280000D01*
X141984188Y-120404482D01*
X142020498Y-120524180D01*
X142079463Y-120634494D01*
X142158815Y-120731185D01*
X142255506Y-120810537D01*
X142365820Y-120869502D01*
X142485518Y-120905812D01*
X142610000Y-120918072D01*
X144410000Y-120918072D01*
X144534482Y-120905812D01*
X144654180Y-120869502D01*
X144764494Y-120810537D01*
X144861185Y-120731185D01*
X144940537Y-120634494D01*
X144999502Y-120524180D01*
X145035812Y-120404482D01*
X145048072Y-120280000D01*
X145048072Y-118480000D01*
X145035812Y-118355518D01*
X144999502Y-118235820D01*
X144940537Y-118125506D01*
X144861185Y-118028815D01*
X144764494Y-117949463D01*
X144654180Y-117890498D01*
X144635873Y-117884944D01*
X144702312Y-117818505D01*
X144870299Y-117567095D01*
X144986011Y-117287743D01*
X145045000Y-116991184D01*
X145045000Y-116688816D01*
X144986011Y-116392257D01*
X144870299Y-116112905D01*
X144702312Y-115861495D01*
X144488505Y-115647688D01*
X144237095Y-115479701D01*
X143957743Y-115363989D01*
X143661184Y-115305000D01*
X143358816Y-115305000D01*
X143062257Y-115363989D01*
X142782905Y-115479701D01*
X142531495Y-115647688D01*
X142317688Y-115861495D01*
X142149701Y-116112905D01*
X142033989Y-116392257D01*
X141975000Y-116688816D01*
X141975000Y-116991184D01*
X142033989Y-117287743D01*
X142149701Y-117567095D01*
X142317688Y-117818505D01*
X142384127Y-117884944D01*
X142365820Y-117890498D01*
X142255506Y-117949463D01*
X142158815Y-118028815D01*
X142079463Y-118125506D01*
X142020498Y-118235820D01*
X141984188Y-118355518D01*
X141971928Y-118480000D01*
X138035566Y-118480000D01*
X138028226Y-118443102D01*
X137950205Y-118254744D01*
X137836937Y-118085226D01*
X137692774Y-117941063D01*
X137523256Y-117827795D01*
X137334898Y-117749774D01*
X137134939Y-117710000D01*
X136931061Y-117710000D01*
X136731102Y-117749774D01*
X136542744Y-117827795D01*
X136373226Y-117941063D01*
X136229063Y-118085226D01*
X136115795Y-118254744D01*
X136037774Y-118443102D01*
X135998000Y-118643061D01*
X133331437Y-118643061D01*
X133333072Y-118130000D01*
X133320812Y-118005518D01*
X133284502Y-117885820D01*
X133225537Y-117775506D01*
X133146185Y-117678815D01*
X133049494Y-117599463D01*
X132939180Y-117540498D01*
X132819482Y-117504188D01*
X132695000Y-117491928D01*
X131730750Y-117495000D01*
X131572000Y-117653750D01*
X131318000Y-117653750D01*
X131159250Y-117495000D01*
X130195000Y-117491928D01*
X130070518Y-117504188D01*
X129950820Y-117540498D01*
X129840506Y-117599463D01*
X129743815Y-117678815D01*
X129664463Y-117775506D01*
X129605498Y-117885820D01*
X129569188Y-118005518D01*
X129556928Y-118130000D01*
X124587000Y-118130000D01*
X124587000Y-115272585D01*
X124663815Y-115366185D01*
X124760506Y-115445537D01*
X124870820Y-115504502D01*
X124990518Y-115540812D01*
X125115000Y-115553072D01*
X127615000Y-115553072D01*
X127739482Y-115540812D01*
X127859180Y-115504502D01*
X127927355Y-115468061D01*
X134982000Y-115468061D01*
X134982000Y-115671939D01*
X135021774Y-115871898D01*
X135099795Y-116060256D01*
X135213063Y-116229774D01*
X135357226Y-116373937D01*
X135526744Y-116487205D01*
X135715102Y-116565226D01*
X135915061Y-116605000D01*
X136118939Y-116605000D01*
X136318898Y-116565226D01*
X136507256Y-116487205D01*
X136676774Y-116373937D01*
X136820937Y-116229774D01*
X136926184Y-116072260D01*
X136865774Y-116218102D01*
X136826000Y-116418061D01*
X136826000Y-116621939D01*
X136865774Y-116821898D01*
X136943795Y-117010256D01*
X137057063Y-117179774D01*
X137201226Y-117323937D01*
X137370744Y-117437205D01*
X137559102Y-117515226D01*
X137759061Y-117555000D01*
X137962939Y-117555000D01*
X138162898Y-117515226D01*
X138351256Y-117437205D01*
X138520774Y-117323937D01*
X138664937Y-117179774D01*
X138778205Y-117010256D01*
X138856226Y-116821898D01*
X138896000Y-116621939D01*
X138896000Y-116418061D01*
X138856226Y-116218102D01*
X138778205Y-116029744D01*
X138664937Y-115860226D01*
X138520774Y-115716063D01*
X138351256Y-115602795D01*
X138162898Y-115524774D01*
X137962939Y-115485000D01*
X137759061Y-115485000D01*
X137559102Y-115524774D01*
X137370744Y-115602795D01*
X137201226Y-115716063D01*
X137057063Y-115860226D01*
X136951816Y-116017740D01*
X137012226Y-115871898D01*
X137052000Y-115671939D01*
X137052000Y-115468061D01*
X137012226Y-115268102D01*
X136934205Y-115079744D01*
X136820937Y-114910226D01*
X136676774Y-114766063D01*
X136507256Y-114652795D01*
X136318898Y-114574774D01*
X136118939Y-114535000D01*
X135915061Y-114535000D01*
X135715102Y-114574774D01*
X135526744Y-114652795D01*
X135357226Y-114766063D01*
X135213063Y-114910226D01*
X135099795Y-115079744D01*
X135021774Y-115268102D01*
X134982000Y-115468061D01*
X127927355Y-115468061D01*
X127969494Y-115445537D01*
X128066185Y-115366185D01*
X128145537Y-115269494D01*
X128204502Y-115159180D01*
X128240812Y-115039482D01*
X128253072Y-114915000D01*
X128253072Y-113563061D01*
X129140000Y-113563061D01*
X129140000Y-113766939D01*
X129179774Y-113966898D01*
X129257795Y-114155256D01*
X129371063Y-114324774D01*
X129515226Y-114468937D01*
X129684744Y-114582205D01*
X129873102Y-114660226D01*
X130073061Y-114700000D01*
X130276939Y-114700000D01*
X130476898Y-114660226D01*
X130665256Y-114582205D01*
X130834774Y-114468937D01*
X130978937Y-114324774D01*
X131092205Y-114155256D01*
X131170226Y-113966898D01*
X131210000Y-113766939D01*
X131210000Y-113563061D01*
X131680000Y-113563061D01*
X131680000Y-113766939D01*
X131719774Y-113966898D01*
X131797795Y-114155256D01*
X131911063Y-114324774D01*
X132055226Y-114468937D01*
X132224744Y-114582205D01*
X132413102Y-114660226D01*
X132613061Y-114700000D01*
X132816939Y-114700000D01*
X133016898Y-114660226D01*
X133205256Y-114582205D01*
X133374774Y-114468937D01*
X133518937Y-114324774D01*
X133632205Y-114155256D01*
X133710226Y-113966898D01*
X133750000Y-113766939D01*
X133750000Y-113563061D01*
X138030000Y-113563061D01*
X138030000Y-113766939D01*
X138069774Y-113966898D01*
X138147795Y-114155256D01*
X138261063Y-114324774D01*
X138405226Y-114468937D01*
X138574744Y-114582205D01*
X138763102Y-114660226D01*
X138963061Y-114700000D01*
X139166939Y-114700000D01*
X139366898Y-114660226D01*
X139555256Y-114582205D01*
X139724774Y-114468937D01*
X139868937Y-114324774D01*
X139982205Y-114155256D01*
X140060226Y-113966898D01*
X140100000Y-113766939D01*
X140100000Y-113563061D01*
X140060226Y-113363102D01*
X139982205Y-113174744D01*
X139868937Y-113005226D01*
X139724774Y-112861063D01*
X139555256Y-112747795D01*
X139366898Y-112669774D01*
X139166939Y-112630000D01*
X138963061Y-112630000D01*
X138763102Y-112669774D01*
X138574744Y-112747795D01*
X138405226Y-112861063D01*
X138261063Y-113005226D01*
X138147795Y-113174744D01*
X138069774Y-113363102D01*
X138030000Y-113563061D01*
X133750000Y-113563061D01*
X133710226Y-113363102D01*
X133632205Y-113174744D01*
X133518937Y-113005226D01*
X133374774Y-112861063D01*
X133205256Y-112747795D01*
X133016898Y-112669774D01*
X132816939Y-112630000D01*
X132613061Y-112630000D01*
X132413102Y-112669774D01*
X132224744Y-112747795D01*
X132055226Y-112861063D01*
X131911063Y-113005226D01*
X131797795Y-113174744D01*
X131719774Y-113363102D01*
X131680000Y-113563061D01*
X131210000Y-113563061D01*
X131170226Y-113363102D01*
X131092205Y-113174744D01*
X130978937Y-113005226D01*
X130834774Y-112861063D01*
X130665256Y-112747795D01*
X130476898Y-112669774D01*
X130276939Y-112630000D01*
X130073061Y-112630000D01*
X129873102Y-112669774D01*
X129684744Y-112747795D01*
X129515226Y-112861063D01*
X129371063Y-113005226D01*
X129257795Y-113174744D01*
X129179774Y-113363102D01*
X129140000Y-113563061D01*
X128253072Y-113563061D01*
X128253072Y-112415000D01*
X128240812Y-112290518D01*
X128204502Y-112170820D01*
X128145537Y-112060506D01*
X128066185Y-111963815D01*
X127969494Y-111884463D01*
X127859180Y-111825498D01*
X127739482Y-111789188D01*
X127615000Y-111776928D01*
X125115000Y-111776928D01*
X124990518Y-111789188D01*
X124870820Y-111825498D01*
X124760506Y-111884463D01*
X124663815Y-111963815D01*
X124587000Y-112057415D01*
X124587000Y-111812606D01*
X125147606Y-111252000D01*
X129142651Y-111252000D01*
X129244063Y-111403774D01*
G36*
X134493000Y-61012606D02*
G01*
X134493000Y-102182394D01*
X133297394Y-103378000D01*
X126762349Y-103378000D01*
X126774205Y-103360256D01*
X126852226Y-103171898D01*
X126892000Y-102971939D01*
X126892000Y-102768061D01*
X126852226Y-102568102D01*
X126774205Y-102379744D01*
X126660937Y-102210226D01*
X126516774Y-102066063D01*
X126347256Y-101952795D01*
X126158898Y-101874774D01*
X125958939Y-101835000D01*
X125755061Y-101835000D01*
X125555102Y-101874774D01*
X125366744Y-101952795D01*
X125197226Y-102066063D01*
X125053063Y-102210226D01*
X124939795Y-102379744D01*
X124861774Y-102568102D01*
X124822000Y-102768061D01*
X124822000Y-102971939D01*
X124861774Y-103171898D01*
X124939795Y-103360256D01*
X124951651Y-103378000D01*
X121920000Y-103378000D01*
X121895224Y-103380440D01*
X121871399Y-103387667D01*
X121849443Y-103399403D01*
X121830197Y-103415197D01*
X118655197Y-106590197D01*
X118639403Y-106609443D01*
X118627667Y-106631399D01*
X118620440Y-106655224D01*
X118618000Y-106680000D01*
X118618000Y-107866415D01*
X118541185Y-107772815D01*
X118444494Y-107693463D01*
X118334180Y-107634498D01*
X118214482Y-107598188D01*
X118090000Y-107585928D01*
X115590000Y-107585928D01*
X115465518Y-107598188D01*
X115345820Y-107634498D01*
X115235506Y-107693463D01*
X115138815Y-107772815D01*
X115059463Y-107869506D01*
X115000498Y-107979820D01*
X114964188Y-108099518D01*
X114951928Y-108224000D01*
X114951928Y-110724000D01*
X114964188Y-110848482D01*
X115000498Y-110968180D01*
X115059463Y-111078494D01*
X115138815Y-111175185D01*
X115235506Y-111254537D01*
X115345820Y-111313502D01*
X115465518Y-111349812D01*
X115590000Y-111362072D01*
X118090000Y-111362072D01*
X118214482Y-111349812D01*
X118334180Y-111313502D01*
X118444494Y-111254537D01*
X118541185Y-111175185D01*
X118618000Y-111081585D01*
X118618000Y-124090247D01*
X118570102Y-124099774D01*
X118381744Y-124177795D01*
X118212226Y-124291063D01*
X118068063Y-124435226D01*
X117954795Y-124604744D01*
X117876774Y-124793102D01*
X117837000Y-124993061D01*
X117837000Y-125196939D01*
X117876774Y-125396898D01*
X117954795Y-125585256D01*
X118068063Y-125754774D01*
X118212226Y-125898937D01*
X118381744Y-126012205D01*
X118570102Y-126090226D01*
X118618000Y-126099753D01*
X118618000Y-154120969D01*
X117553715Y-155067000D01*
X67362606Y-155067000D01*
X66167000Y-153871394D01*
X66167000Y-151536061D01*
X73895000Y-151536061D01*
X73895000Y-151739939D01*
X73934774Y-151939898D01*
X74012795Y-152128256D01*
X74126063Y-152297774D01*
X74270226Y-152441937D01*
X74439744Y-152555205D01*
X74628102Y-152633226D01*
X74828061Y-152673000D01*
X75031939Y-152673000D01*
X75231898Y-152633226D01*
X75420256Y-152555205D01*
X75589774Y-152441937D01*
X75733937Y-152297774D01*
X75847205Y-152128256D01*
X75925226Y-151939898D01*
X75965000Y-151739939D01*
X75965000Y-151536061D01*
X75925226Y-151336102D01*
X75847205Y-151147744D01*
X75733937Y-150978226D01*
X75589774Y-150834063D01*
X75420256Y-150720795D01*
X75231898Y-150642774D01*
X75031939Y-150603000D01*
X74828061Y-150603000D01*
X74628102Y-150642774D01*
X74439744Y-150720795D01*
X74270226Y-150834063D01*
X74126063Y-150978226D01*
X74012795Y-151147744D01*
X73934774Y-151336102D01*
X73895000Y-151536061D01*
X66167000Y-151536061D01*
X66167000Y-149622285D01*
X78665000Y-149622285D01*
X78665000Y-150377715D01*
X78812377Y-151118628D01*
X79101467Y-151816554D01*
X79521161Y-152444670D01*
X80055330Y-152978839D01*
X80683446Y-153398533D01*
X81381372Y-153687623D01*
X82122285Y-153835000D01*
X82877715Y-153835000D01*
X83618628Y-153687623D01*
X84316554Y-153398533D01*
X84944670Y-152978839D01*
X85478839Y-152444670D01*
X85898533Y-151816554D01*
X86187623Y-151118628D01*
X86335000Y-150377715D01*
X86335000Y-149622285D01*
X86187623Y-148881372D01*
X85898533Y-148183446D01*
X85478839Y-147555330D01*
X84944670Y-147021161D01*
X84316554Y-146601467D01*
X83618628Y-146312377D01*
X82877715Y-146165000D01*
X82122285Y-146165000D01*
X81381372Y-146312377D01*
X80683446Y-146601467D01*
X80055330Y-147021161D01*
X79521161Y-147555330D01*
X79101467Y-148183446D01*
X78812377Y-148881372D01*
X78665000Y-149622285D01*
X66167000Y-149622285D01*
X66167000Y-147688061D01*
X70085000Y-147688061D01*
X70085000Y-147891939D01*
X70124774Y-148091898D01*
X70202795Y-148280256D01*
X70316063Y-148449774D01*
X70460226Y-148593937D01*
X70629744Y-148707205D01*
X70818102Y-148785226D01*
X71018061Y-148825000D01*
X71221939Y-148825000D01*
X71421898Y-148785226D01*
X71610256Y-148707205D01*
X71779774Y-148593937D01*
X71923937Y-148449774D01*
X72037205Y-148280256D01*
X72072500Y-148195047D01*
X72107795Y-148280256D01*
X72221063Y-148449774D01*
X72365226Y-148593937D01*
X72534744Y-148707205D01*
X72723102Y-148785226D01*
X72923061Y-148825000D01*
X73126939Y-148825000D01*
X73326898Y-148785226D01*
X73515256Y-148707205D01*
X73684774Y-148593937D01*
X73828937Y-148449774D01*
X73942205Y-148280256D01*
X73977500Y-148195047D01*
X74012795Y-148280256D01*
X74126063Y-148449774D01*
X74270226Y-148593937D01*
X74439744Y-148707205D01*
X74628102Y-148785226D01*
X74828061Y-148825000D01*
X75031939Y-148825000D01*
X75231898Y-148785226D01*
X75420256Y-148707205D01*
X75589774Y-148593937D01*
X75733937Y-148449774D01*
X75847205Y-148280256D01*
X75925226Y-148091898D01*
X75965000Y-147891939D01*
X75965000Y-147688061D01*
X75925226Y-147488102D01*
X75847205Y-147299744D01*
X75733937Y-147130226D01*
X75589774Y-146986063D01*
X75420256Y-146872795D01*
X75231898Y-146794774D01*
X75031939Y-146755000D01*
X74828061Y-146755000D01*
X74628102Y-146794774D01*
X74439744Y-146872795D01*
X74270226Y-146986063D01*
X74126063Y-147130226D01*
X74012795Y-147299744D01*
X73977500Y-147384953D01*
X73942205Y-147299744D01*
X73828937Y-147130226D01*
X73684774Y-146986063D01*
X73515256Y-146872795D01*
X73326898Y-146794774D01*
X73126939Y-146755000D01*
X72923061Y-146755000D01*
X72723102Y-146794774D01*
X72534744Y-146872795D01*
X72365226Y-146986063D01*
X72221063Y-147130226D01*
X72107795Y-147299744D01*
X72072500Y-147384953D01*
X72037205Y-147299744D01*
X71923937Y-147130226D01*
X71779774Y-146986063D01*
X71610256Y-146872795D01*
X71421898Y-146794774D01*
X71221939Y-146755000D01*
X71018061Y-146755000D01*
X70818102Y-146794774D01*
X70629744Y-146872795D01*
X70460226Y-146986063D01*
X70316063Y-147130226D01*
X70202795Y-147299744D01*
X70124774Y-147488102D01*
X70085000Y-147688061D01*
X66167000Y-147688061D01*
X66167000Y-142265061D01*
X74530000Y-142265061D01*
X74530000Y-142468939D01*
X74569774Y-142668898D01*
X74647795Y-142857256D01*
X74761063Y-143026774D01*
X74905226Y-143170937D01*
X75074744Y-143284205D01*
X75263102Y-143362226D01*
X75463061Y-143402000D01*
X75666939Y-143402000D01*
X75866898Y-143362226D01*
X76055256Y-143284205D01*
X76224774Y-143170937D01*
X76368937Y-143026774D01*
X76482205Y-142857256D01*
X76560226Y-142668898D01*
X76600000Y-142468939D01*
X76600000Y-142265061D01*
X76560226Y-142065102D01*
X76482205Y-141876744D01*
X76368937Y-141707226D01*
X76224774Y-141563063D01*
X76055256Y-141449795D01*
X75866898Y-141371774D01*
X75666939Y-141332000D01*
X75463061Y-141332000D01*
X75263102Y-141371774D01*
X75074744Y-141449795D01*
X74905226Y-141563063D01*
X74761063Y-141707226D01*
X74647795Y-141876744D01*
X74569774Y-142065102D01*
X74530000Y-142265061D01*
X66167000Y-142265061D01*
X66167000Y-129908061D01*
X68180000Y-129908061D01*
X68180000Y-130111939D01*
X68219774Y-130311898D01*
X68297795Y-130500256D01*
X68411063Y-130669774D01*
X68555226Y-130813937D01*
X68724744Y-130927205D01*
X68913102Y-131005226D01*
X69113061Y-131045000D01*
X69316939Y-131045000D01*
X69516898Y-131005226D01*
X69705256Y-130927205D01*
X69874774Y-130813937D01*
X70018937Y-130669774D01*
X70132205Y-130500256D01*
X70210226Y-130311898D01*
X70250000Y-130111939D01*
X70250000Y-129908061D01*
X70210226Y-129708102D01*
X70132205Y-129519744D01*
X70018937Y-129350226D01*
X69874774Y-129206063D01*
X69705256Y-129092795D01*
X69516898Y-129014774D01*
X69316939Y-128975000D01*
X69113061Y-128975000D01*
X68913102Y-129014774D01*
X68724744Y-129092795D01*
X68555226Y-129206063D01*
X68411063Y-129350226D01*
X68297795Y-129519744D01*
X68219774Y-129708102D01*
X68180000Y-129908061D01*
X66167000Y-129908061D01*
X66167000Y-126898061D01*
X98787000Y-126898061D01*
X98787000Y-127101939D01*
X98826774Y-127301898D01*
X98904795Y-127490256D01*
X99018063Y-127659774D01*
X99162226Y-127803937D01*
X99331744Y-127917205D01*
X99520102Y-127995226D01*
X99720061Y-128035000D01*
X99923939Y-128035000D01*
X100123898Y-127995226D01*
X100312256Y-127917205D01*
X100481774Y-127803937D01*
X100625937Y-127659774D01*
X100739205Y-127490256D01*
X100817226Y-127301898D01*
X100857000Y-127101939D01*
X100857000Y-126898061D01*
X100817226Y-126698102D01*
X100739205Y-126509744D01*
X100625937Y-126340226D01*
X100481774Y-126196063D01*
X100312256Y-126082795D01*
X100123898Y-126004774D01*
X99923939Y-125965000D01*
X99720061Y-125965000D01*
X99520102Y-126004774D01*
X99331744Y-126082795D01*
X99162226Y-126196063D01*
X99018063Y-126340226D01*
X98904795Y-126509744D01*
X98826774Y-126698102D01*
X98787000Y-126898061D01*
X66167000Y-126898061D01*
X66167000Y-122288061D01*
X70085000Y-122288061D01*
X70085000Y-122491939D01*
X70124774Y-122691898D01*
X70202795Y-122880256D01*
X70316063Y-123049774D01*
X70460226Y-123193937D01*
X70629744Y-123307205D01*
X70818102Y-123385226D01*
X71018061Y-123425000D01*
X71221939Y-123425000D01*
X71421898Y-123385226D01*
X71610256Y-123307205D01*
X71779774Y-123193937D01*
X71923937Y-123049774D01*
X72037205Y-122880256D01*
X72072500Y-122795047D01*
X72107795Y-122880256D01*
X72221063Y-123049774D01*
X72365226Y-123193937D01*
X72534744Y-123307205D01*
X72723102Y-123385226D01*
X72923061Y-123425000D01*
X73126939Y-123425000D01*
X73326898Y-123385226D01*
X73515256Y-123307205D01*
X73684774Y-123193937D01*
X73828937Y-123049774D01*
X73942205Y-122880256D01*
X73977500Y-122795047D01*
X74012795Y-122880256D01*
X74126063Y-123049774D01*
X74270226Y-123193937D01*
X74439744Y-123307205D01*
X74628102Y-123385226D01*
X74828061Y-123425000D01*
X75031939Y-123425000D01*
X75231898Y-123385226D01*
X75420256Y-123307205D01*
X75589774Y-123193937D01*
X75733937Y-123049774D01*
X75847205Y-122880256D01*
X75925226Y-122691898D01*
X75965000Y-122491939D01*
X75965000Y-122288061D01*
X75925226Y-122088102D01*
X75847205Y-121899744D01*
X75733937Y-121730226D01*
X75589774Y-121586063D01*
X75420256Y-121472795D01*
X75231898Y-121394774D01*
X75031939Y-121355000D01*
X74828061Y-121355000D01*
X74628102Y-121394774D01*
X74439744Y-121472795D01*
X74270226Y-121586063D01*
X74126063Y-121730226D01*
X74012795Y-121899744D01*
X73977500Y-121984953D01*
X73942205Y-121899744D01*
X73828937Y-121730226D01*
X73684774Y-121586063D01*
X73515256Y-121472795D01*
X73326898Y-121394774D01*
X73126939Y-121355000D01*
X72923061Y-121355000D01*
X72723102Y-121394774D01*
X72534744Y-121472795D01*
X72365226Y-121586063D01*
X72221063Y-121730226D01*
X72107795Y-121899744D01*
X72072500Y-121984953D01*
X72037205Y-121899744D01*
X71923937Y-121730226D01*
X71779774Y-121586063D01*
X71610256Y-121472795D01*
X71421898Y-121394774D01*
X71221939Y-121355000D01*
X71018061Y-121355000D01*
X70818102Y-121394774D01*
X70629744Y-121472795D01*
X70460226Y-121586063D01*
X70316063Y-121730226D01*
X70202795Y-121899744D01*
X70124774Y-122088102D01*
X70085000Y-122288061D01*
X66167000Y-122288061D01*
X66167000Y-116865061D01*
X74530000Y-116865061D01*
X74530000Y-117068939D01*
X74569774Y-117268898D01*
X74647795Y-117457256D01*
X74761063Y-117626774D01*
X74905226Y-117770937D01*
X75074744Y-117884205D01*
X75263102Y-117962226D01*
X75463061Y-118002000D01*
X75666939Y-118002000D01*
X75866898Y-117962226D01*
X76055256Y-117884205D01*
X76224774Y-117770937D01*
X76368937Y-117626774D01*
X76482205Y-117457256D01*
X76560226Y-117268898D01*
X76600000Y-117068939D01*
X76600000Y-116865061D01*
X76574739Y-116738061D01*
X98660000Y-116738061D01*
X98660000Y-116941939D01*
X98699774Y-117141898D01*
X98777795Y-117330256D01*
X98891063Y-117499774D01*
X99035226Y-117643937D01*
X99204744Y-117757205D01*
X99393102Y-117835226D01*
X99593061Y-117875000D01*
X99796939Y-117875000D01*
X99996898Y-117835226D01*
X100185256Y-117757205D01*
X100354774Y-117643937D01*
X100498937Y-117499774D01*
X100612205Y-117330256D01*
X100690226Y-117141898D01*
X100730000Y-116941939D01*
X100730000Y-116738061D01*
X100690226Y-116538102D01*
X100612205Y-116349744D01*
X100498937Y-116180226D01*
X100354774Y-116036063D01*
X100185256Y-115922795D01*
X99996898Y-115844774D01*
X99796939Y-115805000D01*
X99593061Y-115805000D01*
X99393102Y-115844774D01*
X99204744Y-115922795D01*
X99035226Y-116036063D01*
X98891063Y-116180226D01*
X98777795Y-116349744D01*
X98699774Y-116538102D01*
X98660000Y-116738061D01*
X76574739Y-116738061D01*
X76560226Y-116665102D01*
X76482205Y-116476744D01*
X76368937Y-116307226D01*
X76224774Y-116163063D01*
X76055256Y-116049795D01*
X75866898Y-115971774D01*
X75666939Y-115932000D01*
X75463061Y-115932000D01*
X75263102Y-115971774D01*
X75074744Y-116049795D01*
X74905226Y-116163063D01*
X74761063Y-116307226D01*
X74647795Y-116476744D01*
X74569774Y-116665102D01*
X74530000Y-116865061D01*
X66167000Y-116865061D01*
X66167000Y-114325061D01*
X78340000Y-114325061D01*
X78340000Y-114528939D01*
X78379774Y-114728898D01*
X78457795Y-114917256D01*
X78571063Y-115086774D01*
X78715226Y-115230937D01*
X78884744Y-115344205D01*
X79073102Y-115422226D01*
X79273061Y-115462000D01*
X79476939Y-115462000D01*
X79676898Y-115422226D01*
X79865256Y-115344205D01*
X80034774Y-115230937D01*
X80078711Y-115187000D01*
X80449289Y-115187000D01*
X80493226Y-115230937D01*
X80662744Y-115344205D01*
X80851102Y-115422226D01*
X81051061Y-115462000D01*
X81254939Y-115462000D01*
X81454898Y-115422226D01*
X81643256Y-115344205D01*
X81812774Y-115230937D01*
X81956937Y-115086774D01*
X82070205Y-114917256D01*
X82148226Y-114728898D01*
X82188000Y-114528939D01*
X82188000Y-114325061D01*
X82148226Y-114125102D01*
X82070205Y-113936744D01*
X82058349Y-113919000D01*
X82070205Y-113901256D01*
X82148226Y-113712898D01*
X82188000Y-113512939D01*
X82188000Y-113309061D01*
X82148226Y-113109102D01*
X82070205Y-112920744D01*
X81956937Y-112751226D01*
X81812774Y-112607063D01*
X81643256Y-112493795D01*
X81454898Y-112415774D01*
X81254939Y-112376000D01*
X81051061Y-112376000D01*
X80851102Y-112415774D01*
X80662744Y-112493795D01*
X80493226Y-112607063D01*
X80436527Y-112663762D01*
X80080867Y-112663762D01*
X80036930Y-112619825D01*
X79867412Y-112506557D01*
X79679054Y-112428536D01*
X79479095Y-112388762D01*
X79275217Y-112388762D01*
X79075258Y-112428536D01*
X78886900Y-112506557D01*
X78717382Y-112619825D01*
X78573219Y-112763988D01*
X78459951Y-112933506D01*
X78381930Y-113121864D01*
X78342156Y-113321823D01*
X78342156Y-113525701D01*
X78381930Y-113725660D01*
X78459951Y-113914018D01*
X78466465Y-113923768D01*
X78457795Y-113936744D01*
X78379774Y-114125102D01*
X78340000Y-114325061D01*
X66167000Y-114325061D01*
X66167000Y-105073061D01*
X68180000Y-105073061D01*
X68180000Y-105276939D01*
X68219774Y-105476898D01*
X68297795Y-105665256D01*
X68411063Y-105834774D01*
X68555226Y-105978937D01*
X68724744Y-106092205D01*
X68913102Y-106170226D01*
X69113061Y-106210000D01*
X69316939Y-106210000D01*
X69516898Y-106170226D01*
X69705256Y-106092205D01*
X69874774Y-105978937D01*
X70018937Y-105834774D01*
X70132205Y-105665256D01*
X70210226Y-105476898D01*
X70243809Y-105308061D01*
X111233000Y-105308061D01*
X111233000Y-105511939D01*
X111272774Y-105711898D01*
X111350795Y-105900256D01*
X111464063Y-106069774D01*
X111608226Y-106213937D01*
X111777744Y-106327205D01*
X111966102Y-106405226D01*
X112166061Y-106445000D01*
X112369939Y-106445000D01*
X112569898Y-106405226D01*
X112758256Y-106327205D01*
X112927774Y-106213937D01*
X113071937Y-106069774D01*
X113185205Y-105900256D01*
X113263226Y-105711898D01*
X113303000Y-105511939D01*
X113303000Y-105308061D01*
X113263226Y-105108102D01*
X113185205Y-104919744D01*
X113075127Y-104755000D01*
X114951928Y-104755000D01*
X114964188Y-104879482D01*
X115000498Y-104999180D01*
X115059463Y-105109494D01*
X115138815Y-105206185D01*
X115235506Y-105285537D01*
X115345820Y-105344502D01*
X115465518Y-105380812D01*
X115590000Y-105393072D01*
X116554250Y-105390000D01*
X116713000Y-105231250D01*
X116713000Y-103632000D01*
X116967000Y-103632000D01*
X116967000Y-105231250D01*
X117125750Y-105390000D01*
X118090000Y-105393072D01*
X118214482Y-105380812D01*
X118334180Y-105344502D01*
X118444494Y-105285537D01*
X118541185Y-105206185D01*
X118620537Y-105109494D01*
X118679502Y-104999180D01*
X118715812Y-104879482D01*
X118728072Y-104755000D01*
X118725000Y-103790750D01*
X118566250Y-103632000D01*
X116967000Y-103632000D01*
X116713000Y-103632000D01*
X115113750Y-103632000D01*
X114955000Y-103790750D01*
X114951928Y-104755000D01*
X113075127Y-104755000D01*
X113071937Y-104750226D01*
X112927774Y-104606063D01*
X112758256Y-104492795D01*
X112569898Y-104414774D01*
X112369939Y-104375000D01*
X112166061Y-104375000D01*
X111966102Y-104414774D01*
X111777744Y-104492795D01*
X111608226Y-104606063D01*
X111464063Y-104750226D01*
X111350795Y-104919744D01*
X111272774Y-105108102D01*
X111233000Y-105308061D01*
X70243809Y-105308061D01*
X70250000Y-105276939D01*
X70250000Y-105073061D01*
X70210226Y-104873102D01*
X70132205Y-104684744D01*
X70018937Y-104515226D01*
X69874774Y-104371063D01*
X69705256Y-104257795D01*
X69516898Y-104179774D01*
X69316939Y-104140000D01*
X69113061Y-104140000D01*
X68913102Y-104179774D01*
X68724744Y-104257795D01*
X68555226Y-104371063D01*
X68411063Y-104515226D01*
X68297795Y-104684744D01*
X68219774Y-104873102D01*
X68180000Y-105073061D01*
X66167000Y-105073061D01*
X66167000Y-103911061D01*
X98279000Y-103911061D01*
X98279000Y-104114939D01*
X98318774Y-104314898D01*
X98396795Y-104503256D01*
X98510063Y-104672774D01*
X98654226Y-104816937D01*
X98823744Y-104930205D01*
X99012102Y-105008226D01*
X99212061Y-105048000D01*
X99415939Y-105048000D01*
X99615898Y-105008226D01*
X99804256Y-104930205D01*
X99973774Y-104816937D01*
X100117937Y-104672774D01*
X100231205Y-104503256D01*
X100309226Y-104314898D01*
X100349000Y-104114939D01*
X100349000Y-103911061D01*
X100309226Y-103711102D01*
X100231205Y-103522744D01*
X100117937Y-103353226D01*
X99973774Y-103209063D01*
X99804256Y-103095795D01*
X99615898Y-103017774D01*
X99415939Y-102978000D01*
X99212061Y-102978000D01*
X99012102Y-103017774D01*
X98823744Y-103095795D01*
X98654226Y-103209063D01*
X98510063Y-103353226D01*
X98396795Y-103522744D01*
X98318774Y-103711102D01*
X98279000Y-103911061D01*
X66167000Y-103911061D01*
X66167000Y-102768061D01*
X107550000Y-102768061D01*
X107550000Y-102971939D01*
X107589774Y-103171898D01*
X107667795Y-103360256D01*
X107781063Y-103529774D01*
X107925226Y-103673937D01*
X108094744Y-103787205D01*
X108283102Y-103865226D01*
X108483061Y-103905000D01*
X108686939Y-103905000D01*
X108886898Y-103865226D01*
X109075256Y-103787205D01*
X109244774Y-103673937D01*
X109388937Y-103529774D01*
X109502205Y-103360256D01*
X109580226Y-103171898D01*
X109620000Y-102971939D01*
X109620000Y-102768061D01*
X111233000Y-102768061D01*
X111233000Y-102971939D01*
X111272774Y-103171898D01*
X111350795Y-103360256D01*
X111464063Y-103529774D01*
X111608226Y-103673937D01*
X111777744Y-103787205D01*
X111966102Y-103865226D01*
X112166061Y-103905000D01*
X112369939Y-103905000D01*
X112569898Y-103865226D01*
X112758256Y-103787205D01*
X112927774Y-103673937D01*
X113071937Y-103529774D01*
X113185205Y-103360256D01*
X113263226Y-103171898D01*
X113303000Y-102971939D01*
X113303000Y-102768061D01*
X113263226Y-102568102D01*
X113185205Y-102379744D01*
X113101854Y-102255000D01*
X114951928Y-102255000D01*
X114955000Y-103219250D01*
X115113750Y-103378000D01*
X116713000Y-103378000D01*
X116713000Y-101778750D01*
X116967000Y-101778750D01*
X116967000Y-103378000D01*
X118566250Y-103378000D01*
X118725000Y-103219250D01*
X118728072Y-102255000D01*
X118715812Y-102130518D01*
X118679502Y-102010820D01*
X118620537Y-101900506D01*
X118541185Y-101803815D01*
X118444494Y-101724463D01*
X118334180Y-101665498D01*
X118214482Y-101629188D01*
X118090000Y-101616928D01*
X117125750Y-101620000D01*
X116967000Y-101778750D01*
X116713000Y-101778750D01*
X116554250Y-101620000D01*
X115590000Y-101616928D01*
X115465518Y-101629188D01*
X115345820Y-101665498D01*
X115235506Y-101724463D01*
X115138815Y-101803815D01*
X115059463Y-101900506D01*
X115000498Y-102010820D01*
X114964188Y-102130518D01*
X114951928Y-102255000D01*
X113101854Y-102255000D01*
X113071937Y-102210226D01*
X112927774Y-102066063D01*
X112758256Y-101952795D01*
X112569898Y-101874774D01*
X112369939Y-101835000D01*
X112166061Y-101835000D01*
X111966102Y-101874774D01*
X111777744Y-101952795D01*
X111608226Y-102066063D01*
X111464063Y-102210226D01*
X111350795Y-102379744D01*
X111272774Y-102568102D01*
X111233000Y-102768061D01*
X109620000Y-102768061D01*
X109580226Y-102568102D01*
X109502205Y-102379744D01*
X109388937Y-102210226D01*
X109244774Y-102066063D01*
X109075256Y-101952795D01*
X108886898Y-101874774D01*
X108686939Y-101835000D01*
X108483061Y-101835000D01*
X108283102Y-101874774D01*
X108094744Y-101952795D01*
X107925226Y-102066063D01*
X107781063Y-102210226D01*
X107667795Y-102379744D01*
X107589774Y-102568102D01*
X107550000Y-102768061D01*
X66167000Y-102768061D01*
X66167000Y-100228061D01*
X88500000Y-100228061D01*
X88500000Y-100431939D01*
X88539774Y-100631898D01*
X88617795Y-100820256D01*
X88731063Y-100989774D01*
X88875226Y-101133937D01*
X89044744Y-101247205D01*
X89233102Y-101325226D01*
X89433061Y-101365000D01*
X89636939Y-101365000D01*
X89836898Y-101325226D01*
X90025256Y-101247205D01*
X90194774Y-101133937D01*
X90338937Y-100989774D01*
X90452205Y-100820256D01*
X90530226Y-100631898D01*
X90570000Y-100431939D01*
X90570000Y-100228061D01*
X112757000Y-100228061D01*
X112757000Y-100431939D01*
X112796774Y-100631898D01*
X112874795Y-100820256D01*
X112988063Y-100989774D01*
X113132226Y-101133937D01*
X113301744Y-101247205D01*
X113490102Y-101325226D01*
X113690061Y-101365000D01*
X113893939Y-101365000D01*
X114093898Y-101325226D01*
X114282256Y-101247205D01*
X114451774Y-101133937D01*
X114595937Y-100989774D01*
X114680603Y-100863061D01*
X118980000Y-100863061D01*
X118980000Y-101066939D01*
X119019774Y-101266898D01*
X119097795Y-101455256D01*
X119211063Y-101624774D01*
X119355226Y-101768937D01*
X119524744Y-101882205D01*
X119713102Y-101960226D01*
X119913061Y-102000000D01*
X120116939Y-102000000D01*
X120316898Y-101960226D01*
X120505256Y-101882205D01*
X120674774Y-101768937D01*
X120818937Y-101624774D01*
X120932205Y-101455256D01*
X121010226Y-101266898D01*
X121050000Y-101066939D01*
X121050000Y-100863061D01*
X121520000Y-100863061D01*
X121520000Y-101066939D01*
X121559774Y-101266898D01*
X121637795Y-101455256D01*
X121751063Y-101624774D01*
X121895226Y-101768937D01*
X122064744Y-101882205D01*
X122253102Y-101960226D01*
X122453061Y-102000000D01*
X122656939Y-102000000D01*
X122856898Y-101960226D01*
X123045256Y-101882205D01*
X123214774Y-101768937D01*
X123358937Y-101624774D01*
X123472205Y-101455256D01*
X123550226Y-101266898D01*
X123590000Y-101066939D01*
X123590000Y-100863061D01*
X127870000Y-100863061D01*
X127870000Y-101066939D01*
X127909774Y-101266898D01*
X127987795Y-101455256D01*
X128101063Y-101624774D01*
X128245226Y-101768937D01*
X128414744Y-101882205D01*
X128603102Y-101960226D01*
X128803061Y-102000000D01*
X129006939Y-102000000D01*
X129206898Y-101960226D01*
X129395256Y-101882205D01*
X129564774Y-101768937D01*
X129708937Y-101624774D01*
X129822205Y-101455256D01*
X129900226Y-101266898D01*
X129940000Y-101066939D01*
X129940000Y-100863061D01*
X129900226Y-100663102D01*
X129822205Y-100474744D01*
X129708937Y-100305226D01*
X129564774Y-100161063D01*
X129395256Y-100047795D01*
X129206898Y-99969774D01*
X129006939Y-99930000D01*
X128803061Y-99930000D01*
X128603102Y-99969774D01*
X128414744Y-100047795D01*
X128245226Y-100161063D01*
X128101063Y-100305226D01*
X127987795Y-100474744D01*
X127909774Y-100663102D01*
X127870000Y-100863061D01*
X123590000Y-100863061D01*
X123550226Y-100663102D01*
X123472205Y-100474744D01*
X123358937Y-100305226D01*
X123214774Y-100161063D01*
X123045256Y-100047795D01*
X122856898Y-99969774D01*
X122656939Y-99930000D01*
X122453061Y-99930000D01*
X122253102Y-99969774D01*
X122064744Y-100047795D01*
X121895226Y-100161063D01*
X121751063Y-100305226D01*
X121637795Y-100474744D01*
X121559774Y-100663102D01*
X121520000Y-100863061D01*
X121050000Y-100863061D01*
X121010226Y-100663102D01*
X120932205Y-100474744D01*
X120818937Y-100305226D01*
X120674774Y-100161063D01*
X120505256Y-100047795D01*
X120316898Y-99969774D01*
X120116939Y-99930000D01*
X119913061Y-99930000D01*
X119713102Y-99969774D01*
X119524744Y-100047795D01*
X119355226Y-100161063D01*
X119211063Y-100305226D01*
X119097795Y-100474744D01*
X119019774Y-100663102D01*
X118980000Y-100863061D01*
X114680603Y-100863061D01*
X114709205Y-100820256D01*
X114787226Y-100631898D01*
X114827000Y-100431939D01*
X114827000Y-100228061D01*
X114787226Y-100028102D01*
X114709205Y-99839744D01*
X114595937Y-99670226D01*
X114451774Y-99526063D01*
X114282256Y-99412795D01*
X114093898Y-99334774D01*
X113893939Y-99295000D01*
X113690061Y-99295000D01*
X113490102Y-99334774D01*
X113301744Y-99412795D01*
X113132226Y-99526063D01*
X112988063Y-99670226D01*
X112874795Y-99839744D01*
X112796774Y-100028102D01*
X112757000Y-100228061D01*
X90570000Y-100228061D01*
X90530226Y-100028102D01*
X90452205Y-99839744D01*
X90338937Y-99670226D01*
X90194774Y-99526063D01*
X90095903Y-99460000D01*
X90271939Y-99460000D01*
X90471898Y-99420226D01*
X90660256Y-99342205D01*
X90829774Y-99228937D01*
X90973937Y-99084774D01*
X91087205Y-98915256D01*
X91165226Y-98726898D01*
X91205000Y-98526939D01*
X91205000Y-98323061D01*
X91165226Y-98123102D01*
X91090236Y-97942061D01*
X98406000Y-97942061D01*
X98406000Y-98145939D01*
X98445774Y-98345898D01*
X98523795Y-98534256D01*
X98637063Y-98703774D01*
X98781226Y-98847937D01*
X98950744Y-98961205D01*
X99139102Y-99039226D01*
X99339061Y-99079000D01*
X99542939Y-99079000D01*
X99742898Y-99039226D01*
X99931256Y-98961205D01*
X100100774Y-98847937D01*
X100244937Y-98703774D01*
X100329603Y-98577061D01*
X100946000Y-98577061D01*
X100946000Y-98780939D01*
X100985774Y-98980898D01*
X101063795Y-99169256D01*
X101177063Y-99338774D01*
X101321226Y-99482937D01*
X101490744Y-99596205D01*
X101679102Y-99674226D01*
X101879061Y-99714000D01*
X102082939Y-99714000D01*
X102282898Y-99674226D01*
X102471256Y-99596205D01*
X102640774Y-99482937D01*
X102784937Y-99338774D01*
X102898205Y-99169256D01*
X102976226Y-98980898D01*
X103016000Y-98780939D01*
X103016000Y-98577061D01*
X102976226Y-98377102D01*
X102898205Y-98188744D01*
X102784937Y-98019226D01*
X102640774Y-97875063D01*
X102471256Y-97761795D01*
X102282898Y-97683774D01*
X102082939Y-97644000D01*
X101879061Y-97644000D01*
X101679102Y-97683774D01*
X101490744Y-97761795D01*
X101321226Y-97875063D01*
X101177063Y-98019226D01*
X101063795Y-98188744D01*
X100985774Y-98377102D01*
X100946000Y-98577061D01*
X100329603Y-98577061D01*
X100358205Y-98534256D01*
X100436226Y-98345898D01*
X100476000Y-98145939D01*
X100476000Y-97942061D01*
X100436226Y-97742102D01*
X100358205Y-97553744D01*
X100244937Y-97384226D01*
X100100774Y-97240063D01*
X99931256Y-97126795D01*
X99742898Y-97048774D01*
X99542939Y-97009000D01*
X99339061Y-97009000D01*
X99139102Y-97048774D01*
X98950744Y-97126795D01*
X98781226Y-97240063D01*
X98637063Y-97384226D01*
X98523795Y-97553744D01*
X98445774Y-97742102D01*
X98406000Y-97942061D01*
X91090236Y-97942061D01*
X91087205Y-97934744D01*
X90973937Y-97765226D01*
X90829774Y-97621063D01*
X90660256Y-97507795D01*
X90471898Y-97429774D01*
X90271939Y-97390000D01*
X90068061Y-97390000D01*
X89868102Y-97429774D01*
X89679744Y-97507795D01*
X89510226Y-97621063D01*
X89366063Y-97765226D01*
X89252795Y-97934744D01*
X89174774Y-98123102D01*
X89135000Y-98323061D01*
X89135000Y-98526939D01*
X89174774Y-98726898D01*
X89252795Y-98915256D01*
X89366063Y-99084774D01*
X89510226Y-99228937D01*
X89609097Y-99295000D01*
X89433061Y-99295000D01*
X89233102Y-99334774D01*
X89044744Y-99412795D01*
X88875226Y-99526063D01*
X88731063Y-99670226D01*
X88617795Y-99839744D01*
X88539774Y-100028102D01*
X88500000Y-100228061D01*
X66167000Y-100228061D01*
X66167000Y-97453061D01*
X70085000Y-97453061D01*
X70085000Y-97656939D01*
X70124774Y-97856898D01*
X70202795Y-98045256D01*
X70316063Y-98214774D01*
X70460226Y-98358937D01*
X70629744Y-98472205D01*
X70818102Y-98550226D01*
X71018061Y-98590000D01*
X71221939Y-98590000D01*
X71421898Y-98550226D01*
X71610256Y-98472205D01*
X71779774Y-98358937D01*
X71923937Y-98214774D01*
X72037205Y-98045256D01*
X72072500Y-97960047D01*
X72107795Y-98045256D01*
X72221063Y-98214774D01*
X72365226Y-98358937D01*
X72534744Y-98472205D01*
X72723102Y-98550226D01*
X72923061Y-98590000D01*
X73126939Y-98590000D01*
X73326898Y-98550226D01*
X73515256Y-98472205D01*
X73684774Y-98358937D01*
X73828937Y-98214774D01*
X73942205Y-98045256D01*
X73977500Y-97960047D01*
X74012795Y-98045256D01*
X74126063Y-98214774D01*
X74270226Y-98358937D01*
X74439744Y-98472205D01*
X74628102Y-98550226D01*
X74828061Y-98590000D01*
X75031939Y-98590000D01*
X75231898Y-98550226D01*
X75420256Y-98472205D01*
X75589774Y-98358937D01*
X75733937Y-98214774D01*
X75847205Y-98045256D01*
X75925226Y-97856898D01*
X75965000Y-97656939D01*
X75965000Y-97453061D01*
X75925226Y-97253102D01*
X75847205Y-97064744D01*
X75733937Y-96895226D01*
X75589774Y-96751063D01*
X75420256Y-96637795D01*
X75231898Y-96559774D01*
X75031939Y-96520000D01*
X74828061Y-96520000D01*
X74628102Y-96559774D01*
X74439744Y-96637795D01*
X74270226Y-96751063D01*
X74126063Y-96895226D01*
X74012795Y-97064744D01*
X73977500Y-97149953D01*
X73942205Y-97064744D01*
X73828937Y-96895226D01*
X73684774Y-96751063D01*
X73515256Y-96637795D01*
X73326898Y-96559774D01*
X73126939Y-96520000D01*
X72923061Y-96520000D01*
X72723102Y-96559774D01*
X72534744Y-96637795D01*
X72365226Y-96751063D01*
X72221063Y-96895226D01*
X72107795Y-97064744D01*
X72072500Y-97149953D01*
X72037205Y-97064744D01*
X71923937Y-96895226D01*
X71779774Y-96751063D01*
X71610256Y-96637795D01*
X71421898Y-96559774D01*
X71221939Y-96520000D01*
X71018061Y-96520000D01*
X70818102Y-96559774D01*
X70629744Y-96637795D01*
X70460226Y-96751063D01*
X70316063Y-96895226D01*
X70202795Y-97064744D01*
X70124774Y-97253102D01*
X70085000Y-97453061D01*
X66167000Y-97453061D01*
X66167000Y-93878061D01*
X87865000Y-93878061D01*
X87865000Y-94081939D01*
X87904774Y-94281898D01*
X87982795Y-94470256D01*
X88096063Y-94639774D01*
X88240226Y-94783937D01*
X88409744Y-94897205D01*
X88494953Y-94932500D01*
X88409744Y-94967795D01*
X88240226Y-95081063D01*
X88096063Y-95225226D01*
X87982795Y-95394744D01*
X87904774Y-95583102D01*
X87865000Y-95783061D01*
X87865000Y-95986939D01*
X87904774Y-96186898D01*
X87982795Y-96375256D01*
X88096063Y-96544774D01*
X88240226Y-96688937D01*
X88409744Y-96802205D01*
X88598102Y-96880226D01*
X88798061Y-96920000D01*
X89001939Y-96920000D01*
X89201898Y-96880226D01*
X89390256Y-96802205D01*
X89559774Y-96688937D01*
X89703937Y-96544774D01*
X89817205Y-96375256D01*
X89895226Y-96186898D01*
X89935000Y-95986939D01*
X89935000Y-95783061D01*
X89895226Y-95583102D01*
X89817205Y-95394744D01*
X89703937Y-95225226D01*
X89559774Y-95081063D01*
X89390256Y-94967795D01*
X89305047Y-94932500D01*
X89390256Y-94897205D01*
X89559774Y-94783937D01*
X89703937Y-94639774D01*
X89817205Y-94470256D01*
X89895226Y-94281898D01*
X89935000Y-94081939D01*
X89935000Y-93878061D01*
X89895226Y-93678102D01*
X89817205Y-93489744D01*
X89703937Y-93320226D01*
X89559774Y-93176063D01*
X89390256Y-93062795D01*
X89201898Y-92984774D01*
X89001939Y-92945000D01*
X88798061Y-92945000D01*
X88598102Y-92984774D01*
X88409744Y-93062795D01*
X88240226Y-93176063D01*
X88096063Y-93320226D01*
X87982795Y-93489744D01*
X87904774Y-93678102D01*
X87865000Y-93878061D01*
X66167000Y-93878061D01*
X66167000Y-92040561D01*
X74462500Y-92040561D01*
X74462500Y-92244439D01*
X74502274Y-92444398D01*
X74580295Y-92632756D01*
X74693563Y-92802274D01*
X74837726Y-92946437D01*
X75007244Y-93059705D01*
X75195602Y-93137726D01*
X75395561Y-93177500D01*
X75599439Y-93177500D01*
X75799398Y-93137726D01*
X75987756Y-93059705D01*
X76157274Y-92946437D01*
X76301437Y-92802274D01*
X76414705Y-92632756D01*
X76492726Y-92444398D01*
X76532500Y-92244439D01*
X76532500Y-92040561D01*
X76492726Y-91840602D01*
X76414705Y-91652244D01*
X76301437Y-91482726D01*
X76157274Y-91338563D01*
X75987756Y-91225295D01*
X75799398Y-91147274D01*
X75599439Y-91107500D01*
X75395561Y-91107500D01*
X75195602Y-91147274D01*
X75007244Y-91225295D01*
X74837726Y-91338563D01*
X74693563Y-91482726D01*
X74580295Y-91652244D01*
X74502274Y-91840602D01*
X74462500Y-92040561D01*
X66167000Y-92040561D01*
X66167000Y-89052061D01*
X77832000Y-89052061D01*
X77832000Y-89255939D01*
X77871774Y-89455898D01*
X77949795Y-89644256D01*
X78004080Y-89725500D01*
X77949795Y-89806744D01*
X77871774Y-89995102D01*
X77832000Y-90195061D01*
X77832000Y-90398939D01*
X77871774Y-90598898D01*
X77949795Y-90787256D01*
X78063063Y-90956774D01*
X78207226Y-91100937D01*
X78376744Y-91214205D01*
X78565102Y-91292226D01*
X78765061Y-91332000D01*
X78859319Y-91332000D01*
X78955753Y-91383546D01*
X79099014Y-91427003D01*
X79210667Y-91438000D01*
X79210676Y-91438000D01*
X79247999Y-91441676D01*
X79285322Y-91438000D01*
X81973287Y-91438000D01*
X82017224Y-91481937D01*
X82186742Y-91595205D01*
X82375100Y-91673226D01*
X82575059Y-91713000D01*
X82778937Y-91713000D01*
X82978896Y-91673226D01*
X83167254Y-91595205D01*
X83336772Y-91481937D01*
X83480935Y-91337774D01*
X83594203Y-91168256D01*
X83672224Y-90979898D01*
X83691910Y-90880931D01*
X83738012Y-90880931D01*
X83937971Y-90841157D01*
X84126329Y-90763136D01*
X84216237Y-90703061D01*
X98533000Y-90703061D01*
X98533000Y-90906939D01*
X98572774Y-91106898D01*
X98650795Y-91295256D01*
X98764063Y-91464774D01*
X98908226Y-91608937D01*
X99077744Y-91722205D01*
X99162953Y-91757500D01*
X99077744Y-91792795D01*
X98908226Y-91906063D01*
X98764063Y-92050226D01*
X98650795Y-92219744D01*
X98572774Y-92408102D01*
X98533000Y-92608061D01*
X98533000Y-92811939D01*
X98572774Y-93011898D01*
X98650795Y-93200256D01*
X98764063Y-93369774D01*
X98908226Y-93513937D01*
X99077744Y-93627205D01*
X99162953Y-93662500D01*
X99077744Y-93697795D01*
X98908226Y-93811063D01*
X98764063Y-93955226D01*
X98650795Y-94124744D01*
X98572774Y-94313102D01*
X98533000Y-94513061D01*
X98533000Y-94716939D01*
X98572774Y-94916898D01*
X98650795Y-95105256D01*
X98764063Y-95274774D01*
X98908226Y-95418937D01*
X99077744Y-95532205D01*
X99266102Y-95610226D01*
X99466061Y-95650000D01*
X99669939Y-95650000D01*
X99869898Y-95610226D01*
X100058256Y-95532205D01*
X100227774Y-95418937D01*
X100371937Y-95274774D01*
X100456603Y-95148061D01*
X100565000Y-95148061D01*
X100565000Y-95351939D01*
X100604774Y-95551898D01*
X100682795Y-95740256D01*
X100796063Y-95909774D01*
X100940226Y-96053937D01*
X101109744Y-96167205D01*
X101298102Y-96245226D01*
X101498061Y-96285000D01*
X101701939Y-96285000D01*
X101901898Y-96245226D01*
X102090256Y-96167205D01*
X102259774Y-96053937D01*
X102403937Y-95909774D01*
X102517205Y-95740256D01*
X102595226Y-95551898D01*
X102635000Y-95351939D01*
X102635000Y-95148061D01*
X102595226Y-94948102D01*
X102517205Y-94759744D01*
X102403937Y-94590226D01*
X102259774Y-94446063D01*
X102090256Y-94332795D01*
X101901898Y-94254774D01*
X101701939Y-94215000D01*
X101498061Y-94215000D01*
X101298102Y-94254774D01*
X101109744Y-94332795D01*
X100940226Y-94446063D01*
X100796063Y-94590226D01*
X100682795Y-94759744D01*
X100604774Y-94948102D01*
X100565000Y-95148061D01*
X100456603Y-95148061D01*
X100485205Y-95105256D01*
X100563226Y-94916898D01*
X100603000Y-94716939D01*
X100603000Y-94513061D01*
X100563226Y-94313102D01*
X100485205Y-94124744D01*
X100371937Y-93955226D01*
X100227774Y-93811063D01*
X100058256Y-93697795D01*
X99973047Y-93662500D01*
X100058256Y-93627205D01*
X100227774Y-93513937D01*
X100371937Y-93369774D01*
X100485205Y-93200256D01*
X100563226Y-93011898D01*
X100603000Y-92811939D01*
X100603000Y-92608061D01*
X100563226Y-92408102D01*
X100485205Y-92219744D01*
X100371937Y-92050226D01*
X100227774Y-91906063D01*
X100058256Y-91792795D01*
X99973047Y-91757500D01*
X100058256Y-91722205D01*
X100227774Y-91608937D01*
X100371937Y-91464774D01*
X100476650Y-91308059D01*
X106280000Y-91308059D01*
X106280000Y-91511937D01*
X106319774Y-91711896D01*
X106397795Y-91900254D01*
X106505001Y-92060699D01*
X106505000Y-95547301D01*
X106397795Y-95707745D01*
X106319774Y-95896103D01*
X106280000Y-96096062D01*
X106280000Y-96299940D01*
X106319774Y-96499899D01*
X106397795Y-96688257D01*
X106511063Y-96857775D01*
X106655226Y-97001938D01*
X106824744Y-97115206D01*
X107013102Y-97193227D01*
X107213061Y-97233001D01*
X107416939Y-97233001D01*
X107616898Y-97193227D01*
X107805256Y-97115206D01*
X107974774Y-97001938D01*
X108079000Y-96897712D01*
X108079000Y-98356289D01*
X108035063Y-98400226D01*
X107921795Y-98569744D01*
X107843774Y-98758102D01*
X107804000Y-98958061D01*
X107804000Y-99161939D01*
X107843774Y-99361898D01*
X107921795Y-99550256D01*
X108035063Y-99719774D01*
X108179226Y-99863937D01*
X108348744Y-99977205D01*
X108537102Y-100055226D01*
X108737061Y-100095000D01*
X108940939Y-100095000D01*
X109140898Y-100055226D01*
X109329256Y-99977205D01*
X109498774Y-99863937D01*
X109642937Y-99719774D01*
X109756205Y-99550256D01*
X109834226Y-99361898D01*
X109874000Y-99161939D01*
X109874000Y-98958061D01*
X109834226Y-98758102D01*
X109756205Y-98569744D01*
X109642937Y-98400226D01*
X109599000Y-98356289D01*
X109599000Y-94386061D01*
X115297000Y-94386061D01*
X115297000Y-94589939D01*
X115336774Y-94789898D01*
X115414795Y-94978256D01*
X115528063Y-95147774D01*
X115672226Y-95291937D01*
X115841744Y-95405205D01*
X116030102Y-95483226D01*
X116230061Y-95523000D01*
X116433939Y-95523000D01*
X116633898Y-95483226D01*
X116822256Y-95405205D01*
X116991774Y-95291937D01*
X117135937Y-95147774D01*
X117249205Y-94978256D01*
X117327226Y-94789898D01*
X117367000Y-94589939D01*
X117367000Y-94386061D01*
X117327226Y-94186102D01*
X117249205Y-93997744D01*
X117135937Y-93828226D01*
X116991774Y-93684063D01*
X116822256Y-93570795D01*
X116633898Y-93492774D01*
X116433939Y-93453000D01*
X116230061Y-93453000D01*
X116030102Y-93492774D01*
X115841744Y-93570795D01*
X115672226Y-93684063D01*
X115528063Y-93828226D01*
X115414795Y-93997744D01*
X115336774Y-94186102D01*
X115297000Y-94386061D01*
X109599000Y-94386061D01*
X109599000Y-94181322D01*
X109602676Y-94143999D01*
X109599000Y-94106676D01*
X109599000Y-94106667D01*
X109588003Y-93995014D01*
X109544546Y-93851753D01*
X109473974Y-93719724D01*
X109379001Y-93603999D01*
X109366000Y-93593329D01*
X109366000Y-93534061D01*
X109326226Y-93334102D01*
X109248205Y-93145744D01*
X109134937Y-92976226D01*
X108990774Y-92832063D01*
X108821256Y-92718795D01*
X108632898Y-92640774D01*
X108432939Y-92601000D01*
X108229061Y-92601000D01*
X108125000Y-92621699D01*
X108125000Y-92060698D01*
X108232205Y-91900254D01*
X108310226Y-91711896D01*
X108334062Y-91592061D01*
X114281000Y-91592061D01*
X114281000Y-91795939D01*
X114320774Y-91995898D01*
X114398795Y-92184256D01*
X114512063Y-92353774D01*
X114656226Y-92497937D01*
X114825744Y-92611205D01*
X115014102Y-92689226D01*
X115214061Y-92729000D01*
X115417939Y-92729000D01*
X115617898Y-92689226D01*
X115806256Y-92611205D01*
X115975774Y-92497937D01*
X116119937Y-92353774D01*
X116233205Y-92184256D01*
X116311226Y-91995898D01*
X116351000Y-91795939D01*
X116351000Y-91592061D01*
X116324732Y-91460000D01*
X122571928Y-91460000D01*
X122571928Y-93960000D01*
X122584188Y-94084482D01*
X122620498Y-94204180D01*
X122679463Y-94314494D01*
X122758815Y-94411185D01*
X122855506Y-94490537D01*
X122965820Y-94549502D01*
X123085518Y-94585812D01*
X123210000Y-94598072D01*
X125710000Y-94598072D01*
X125834482Y-94585812D01*
X125954180Y-94549502D01*
X126064494Y-94490537D01*
X126161185Y-94411185D01*
X126240537Y-94314494D01*
X126299502Y-94204180D01*
X126335812Y-94084482D01*
X126348072Y-93960000D01*
X126348072Y-91460000D01*
X126335812Y-91335518D01*
X126299502Y-91215820D01*
X126240537Y-91105506D01*
X126161185Y-91008815D01*
X126064494Y-90929463D01*
X125954180Y-90870498D01*
X125834482Y-90834188D01*
X125710000Y-90821928D01*
X123210000Y-90821928D01*
X123085518Y-90834188D01*
X122965820Y-90870498D01*
X122855506Y-90929463D01*
X122758815Y-91008815D01*
X122679463Y-91105506D01*
X122620498Y-91215820D01*
X122584188Y-91335518D01*
X122571928Y-91460000D01*
X116324732Y-91460000D01*
X116311226Y-91392102D01*
X116233205Y-91203744D01*
X116119937Y-91034226D01*
X115975774Y-90890063D01*
X115806256Y-90776795D01*
X115617898Y-90698774D01*
X115417939Y-90659000D01*
X115214061Y-90659000D01*
X115014102Y-90698774D01*
X114825744Y-90776795D01*
X114656226Y-90890063D01*
X114512063Y-91034226D01*
X114398795Y-91203744D01*
X114320774Y-91392102D01*
X114281000Y-91592061D01*
X108334062Y-91592061D01*
X108350000Y-91511937D01*
X108350000Y-91308059D01*
X108310226Y-91108100D01*
X108232205Y-90919742D01*
X108118937Y-90750224D01*
X107974774Y-90606061D01*
X107805256Y-90492793D01*
X107616898Y-90414772D01*
X107416939Y-90374998D01*
X107213061Y-90374998D01*
X107013102Y-90414772D01*
X106824744Y-90492793D01*
X106655226Y-90606061D01*
X106511063Y-90750224D01*
X106397795Y-90919742D01*
X106319774Y-91108100D01*
X106280000Y-91308059D01*
X100476650Y-91308059D01*
X100485205Y-91295256D01*
X100563226Y-91106898D01*
X100603000Y-90906939D01*
X100603000Y-90703061D01*
X100563226Y-90503102D01*
X100485205Y-90314744D01*
X100371937Y-90145226D01*
X100227774Y-90001063D01*
X100058256Y-89887795D01*
X99869898Y-89809774D01*
X99669939Y-89770000D01*
X99466061Y-89770000D01*
X99266102Y-89809774D01*
X99077744Y-89887795D01*
X98908226Y-90001063D01*
X98764063Y-90145226D01*
X98650795Y-90314744D01*
X98572774Y-90503102D01*
X98533000Y-90703061D01*
X84216237Y-90703061D01*
X84295847Y-90649868D01*
X84440010Y-90505705D01*
X84553278Y-90336187D01*
X84631299Y-90147829D01*
X84671073Y-89947870D01*
X84671073Y-89743992D01*
X84631299Y-89544033D01*
X84553278Y-89355675D01*
X84440010Y-89186157D01*
X84295847Y-89041994D01*
X84126329Y-88928726D01*
X83937971Y-88850705D01*
X83738012Y-88810931D01*
X83534134Y-88810931D01*
X83334175Y-88850705D01*
X83145817Y-88928726D01*
X82976299Y-89041994D01*
X82932362Y-89085931D01*
X79902000Y-89085931D01*
X79902000Y-89052061D01*
X79862226Y-88852102D01*
X79784205Y-88663744D01*
X79670937Y-88494226D01*
X79526774Y-88350063D01*
X79357256Y-88236795D01*
X79168898Y-88158774D01*
X78968939Y-88119000D01*
X78765061Y-88119000D01*
X78565102Y-88158774D01*
X78376744Y-88236795D01*
X78207226Y-88350063D01*
X78063063Y-88494226D01*
X77949795Y-88663744D01*
X77871774Y-88852102D01*
X77832000Y-89052061D01*
X66167000Y-89052061D01*
X66167000Y-87528061D01*
X90913000Y-87528061D01*
X90913000Y-87731939D01*
X90952774Y-87931898D01*
X91030795Y-88120256D01*
X91144063Y-88289774D01*
X91288226Y-88433937D01*
X91457744Y-88547205D01*
X91646102Y-88625226D01*
X91846061Y-88665000D01*
X92049939Y-88665000D01*
X92249898Y-88625226D01*
X92438256Y-88547205D01*
X92607774Y-88433937D01*
X92751937Y-88289774D01*
X92865205Y-88120256D01*
X92943226Y-87931898D01*
X92983000Y-87731939D01*
X92983000Y-87528061D01*
X92943226Y-87328102D01*
X92865205Y-87139744D01*
X92751937Y-86970226D01*
X92607774Y-86826063D01*
X92438256Y-86712795D01*
X92249898Y-86634774D01*
X92049939Y-86595000D01*
X91846061Y-86595000D01*
X91646102Y-86634774D01*
X91457744Y-86712795D01*
X91288226Y-86826063D01*
X91144063Y-86970226D01*
X91030795Y-87139744D01*
X90952774Y-87328102D01*
X90913000Y-87528061D01*
X66167000Y-87528061D01*
X66167000Y-86258061D01*
X101200000Y-86258061D01*
X101200000Y-86461939D01*
X101239774Y-86661898D01*
X101317795Y-86850256D01*
X101431063Y-87019774D01*
X101575226Y-87163937D01*
X101744744Y-87277205D01*
X101933102Y-87355226D01*
X102133061Y-87395000D01*
X102336939Y-87395000D01*
X102536898Y-87355226D01*
X102725256Y-87277205D01*
X102894774Y-87163937D01*
X103038937Y-87019774D01*
X103152205Y-86850256D01*
X103230226Y-86661898D01*
X103270000Y-86461939D01*
X103270000Y-86258061D01*
X103230226Y-86058102D01*
X103152205Y-85869744D01*
X103038937Y-85700226D01*
X102894774Y-85556063D01*
X102725256Y-85442795D01*
X102536898Y-85364774D01*
X102336939Y-85325000D01*
X102133061Y-85325000D01*
X101933102Y-85364774D01*
X101744744Y-85442795D01*
X101575226Y-85556063D01*
X101431063Y-85700226D01*
X101317795Y-85869744D01*
X101239774Y-86058102D01*
X101200000Y-86258061D01*
X66167000Y-86258061D01*
X66167000Y-82448061D01*
X91040000Y-82448061D01*
X91040000Y-82651939D01*
X91079774Y-82851898D01*
X91157795Y-83040256D01*
X91271063Y-83209774D01*
X91415226Y-83353937D01*
X91584744Y-83467205D01*
X91773102Y-83545226D01*
X91973061Y-83585000D01*
X92176939Y-83585000D01*
X92376898Y-83545226D01*
X92565256Y-83467205D01*
X92734774Y-83353937D01*
X92878937Y-83209774D01*
X92992205Y-83040256D01*
X93070226Y-82851898D01*
X93110000Y-82651939D01*
X93110000Y-82448061D01*
X93070226Y-82248102D01*
X92992205Y-82059744D01*
X92878937Y-81890226D01*
X92734774Y-81746063D01*
X92565256Y-81632795D01*
X92376898Y-81554774D01*
X92176939Y-81515000D01*
X91973061Y-81515000D01*
X91773102Y-81554774D01*
X91584744Y-81632795D01*
X91415226Y-81746063D01*
X91271063Y-81890226D01*
X91157795Y-82059744D01*
X91079774Y-82248102D01*
X91040000Y-82448061D01*
X66167000Y-82448061D01*
X66167000Y-81178061D01*
X92945000Y-81178061D01*
X92945000Y-81381939D01*
X92984774Y-81581898D01*
X93062795Y-81770256D01*
X93176063Y-81939774D01*
X93320226Y-82083937D01*
X93489744Y-82197205D01*
X93678102Y-82275226D01*
X93878061Y-82315000D01*
X94081939Y-82315000D01*
X94281898Y-82275226D01*
X94470256Y-82197205D01*
X94639774Y-82083937D01*
X94783937Y-81939774D01*
X94897205Y-81770256D01*
X94932079Y-81686061D01*
X103613000Y-81686061D01*
X103613000Y-81889939D01*
X103652774Y-82089898D01*
X103730795Y-82278256D01*
X103844063Y-82447774D01*
X103988226Y-82591937D01*
X104157744Y-82705205D01*
X104346102Y-82783226D01*
X104546061Y-82823000D01*
X104746275Y-82823000D01*
X104668774Y-83010102D01*
X104629000Y-83210061D01*
X104629000Y-83413939D01*
X104668774Y-83613898D01*
X104746795Y-83802256D01*
X104860063Y-83971774D01*
X105004226Y-84115937D01*
X105173744Y-84229205D01*
X105362102Y-84307226D01*
X105562061Y-84347000D01*
X105765939Y-84347000D01*
X105965898Y-84307226D01*
X106154256Y-84229205D01*
X106323774Y-84115937D01*
X106467937Y-83971774D01*
X106555985Y-83840000D01*
X111776928Y-83840000D01*
X111776928Y-86340000D01*
X111789188Y-86464482D01*
X111825498Y-86584180D01*
X111884463Y-86694494D01*
X111963815Y-86791185D01*
X112060506Y-86870537D01*
X112170820Y-86929502D01*
X112290518Y-86965812D01*
X112415000Y-86978072D01*
X114915000Y-86978072D01*
X115039482Y-86965812D01*
X115159180Y-86929502D01*
X115269494Y-86870537D01*
X115366185Y-86791185D01*
X115445537Y-86694494D01*
X115504502Y-86584180D01*
X115540812Y-86464482D01*
X115553072Y-86340000D01*
X115553072Y-83840000D01*
X115540812Y-83715518D01*
X115504502Y-83595820D01*
X115445537Y-83485506D01*
X115366185Y-83388815D01*
X115269494Y-83309463D01*
X115159180Y-83250498D01*
X115039482Y-83214188D01*
X114915000Y-83201928D01*
X112415000Y-83201928D01*
X112290518Y-83214188D01*
X112170820Y-83250498D01*
X112060506Y-83309463D01*
X111963815Y-83388815D01*
X111884463Y-83485506D01*
X111825498Y-83595820D01*
X111789188Y-83715518D01*
X111776928Y-83840000D01*
X106555985Y-83840000D01*
X106581205Y-83802256D01*
X106659226Y-83613898D01*
X106699000Y-83413939D01*
X106699000Y-83210061D01*
X106659226Y-83010102D01*
X106581205Y-82821744D01*
X106467937Y-82652226D01*
X106323774Y-82508063D01*
X106233975Y-82448061D01*
X109455000Y-82448061D01*
X109455000Y-82651939D01*
X109494774Y-82851898D01*
X109572795Y-83040256D01*
X109686063Y-83209774D01*
X109830226Y-83353937D01*
X109999744Y-83467205D01*
X110188102Y-83545226D01*
X110388061Y-83585000D01*
X110591939Y-83585000D01*
X110791898Y-83545226D01*
X110980256Y-83467205D01*
X111149774Y-83353937D01*
X111293937Y-83209774D01*
X111407205Y-83040256D01*
X111485226Y-82851898D01*
X111525000Y-82651939D01*
X111525000Y-82448061D01*
X111485226Y-82248102D01*
X111407205Y-82059744D01*
X111293937Y-81890226D01*
X111149774Y-81746063D01*
X110980256Y-81632795D01*
X110791898Y-81554774D01*
X110591939Y-81515000D01*
X110388061Y-81515000D01*
X110188102Y-81554774D01*
X109999744Y-81632795D01*
X109830226Y-81746063D01*
X109686063Y-81890226D01*
X109572795Y-82059744D01*
X109494774Y-82248102D01*
X109455000Y-82448061D01*
X106233975Y-82448061D01*
X106154256Y-82394795D01*
X105965898Y-82316774D01*
X105765939Y-82277000D01*
X105565725Y-82277000D01*
X105643226Y-82089898D01*
X105683000Y-81889939D01*
X105683000Y-81686061D01*
X105643226Y-81486102D01*
X105565205Y-81297744D01*
X105451937Y-81128226D01*
X105307774Y-80984063D01*
X105138256Y-80870795D01*
X104949898Y-80792774D01*
X104749939Y-80753000D01*
X104546061Y-80753000D01*
X104346102Y-80792774D01*
X104157744Y-80870795D01*
X103988226Y-80984063D01*
X103844063Y-81128226D01*
X103730795Y-81297744D01*
X103652774Y-81486102D01*
X103613000Y-81686061D01*
X94932079Y-81686061D01*
X94975226Y-81581898D01*
X95015000Y-81381939D01*
X95015000Y-81178061D01*
X94975226Y-80978102D01*
X94897205Y-80789744D01*
X94783937Y-80620226D01*
X94639774Y-80476063D01*
X94470256Y-80362795D01*
X94281898Y-80284774D01*
X94081939Y-80245000D01*
X93878061Y-80245000D01*
X93678102Y-80284774D01*
X93489744Y-80362795D01*
X93320226Y-80476063D01*
X93176063Y-80620226D01*
X93062795Y-80789744D01*
X92984774Y-80978102D01*
X92945000Y-81178061D01*
X66167000Y-81178061D01*
X66167000Y-79711061D01*
X68180000Y-79711061D01*
X68180000Y-79914939D01*
X68219774Y-80114898D01*
X68297795Y-80303256D01*
X68411063Y-80472774D01*
X68555226Y-80616937D01*
X68724744Y-80730205D01*
X68913102Y-80808226D01*
X69113061Y-80848000D01*
X69316939Y-80848000D01*
X69516898Y-80808226D01*
X69705256Y-80730205D01*
X69874774Y-80616937D01*
X70018937Y-80472774D01*
X70132205Y-80303256D01*
X70210226Y-80114898D01*
X70250000Y-79914939D01*
X70250000Y-79711061D01*
X70210226Y-79511102D01*
X70132205Y-79322744D01*
X70018937Y-79153226D01*
X69874774Y-79009063D01*
X69705256Y-78895795D01*
X69516898Y-78817774D01*
X69316939Y-78778000D01*
X69113061Y-78778000D01*
X68913102Y-78817774D01*
X68724744Y-78895795D01*
X68555226Y-79009063D01*
X68411063Y-79153226D01*
X68297795Y-79322744D01*
X68219774Y-79511102D01*
X68180000Y-79711061D01*
X66167000Y-79711061D01*
X66167000Y-78638061D01*
X98660000Y-78638061D01*
X98660000Y-78841939D01*
X98699774Y-79041898D01*
X98777795Y-79230256D01*
X98891063Y-79399774D01*
X99035226Y-79543937D01*
X99204744Y-79657205D01*
X99393102Y-79735226D01*
X99593061Y-79775000D01*
X99796939Y-79775000D01*
X99996898Y-79735226D01*
X100185256Y-79657205D01*
X100354774Y-79543937D01*
X100498937Y-79399774D01*
X100612205Y-79230256D01*
X100690226Y-79041898D01*
X100730000Y-78841939D01*
X100730000Y-78638061D01*
X100690226Y-78438102D01*
X100612205Y-78249744D01*
X100498937Y-78080226D01*
X100354774Y-77936063D01*
X100185256Y-77822795D01*
X99996898Y-77744774D01*
X99796939Y-77705000D01*
X99593061Y-77705000D01*
X99393102Y-77744774D01*
X99204744Y-77822795D01*
X99035226Y-77936063D01*
X98891063Y-78080226D01*
X98777795Y-78249744D01*
X98699774Y-78438102D01*
X98660000Y-78638061D01*
X66167000Y-78638061D01*
X66167000Y-72218061D01*
X70085000Y-72218061D01*
X70085000Y-72421939D01*
X70124774Y-72621898D01*
X70202795Y-72810256D01*
X70316063Y-72979774D01*
X70460226Y-73123937D01*
X70629744Y-73237205D01*
X70818102Y-73315226D01*
X71018061Y-73355000D01*
X71221939Y-73355000D01*
X71421898Y-73315226D01*
X71610256Y-73237205D01*
X71779774Y-73123937D01*
X71923937Y-72979774D01*
X72037205Y-72810256D01*
X72072500Y-72725047D01*
X72107795Y-72810256D01*
X72221063Y-72979774D01*
X72365226Y-73123937D01*
X72534744Y-73237205D01*
X72723102Y-73315226D01*
X72923061Y-73355000D01*
X73126939Y-73355000D01*
X73326898Y-73315226D01*
X73515256Y-73237205D01*
X73684774Y-73123937D01*
X73828937Y-72979774D01*
X73942205Y-72810256D01*
X73977500Y-72725047D01*
X74012795Y-72810256D01*
X74126063Y-72979774D01*
X74270226Y-73123937D01*
X74439744Y-73237205D01*
X74628102Y-73315226D01*
X74828061Y-73355000D01*
X75031939Y-73355000D01*
X75231898Y-73315226D01*
X75420256Y-73237205D01*
X75589774Y-73123937D01*
X75733937Y-72979774D01*
X75771831Y-72923061D01*
X79483000Y-72923061D01*
X79483000Y-73126939D01*
X79522774Y-73326898D01*
X79600795Y-73515256D01*
X79714063Y-73684774D01*
X79858226Y-73828937D01*
X80027744Y-73942205D01*
X80216102Y-74020226D01*
X80266001Y-74030151D01*
X80266000Y-75877289D01*
X80222063Y-75921226D01*
X80108795Y-76090744D01*
X80030774Y-76279102D01*
X79991000Y-76479061D01*
X79991000Y-76682939D01*
X80030774Y-76882898D01*
X80108795Y-77071256D01*
X80222063Y-77240774D01*
X80366226Y-77384937D01*
X80535744Y-77498205D01*
X80724102Y-77576226D01*
X80924061Y-77616000D01*
X81127939Y-77616000D01*
X81327898Y-77576226D01*
X81516256Y-77498205D01*
X81685774Y-77384937D01*
X81702650Y-77368061D01*
X101835000Y-77368061D01*
X101835000Y-77571939D01*
X101874774Y-77771898D01*
X101952795Y-77960256D01*
X102066063Y-78129774D01*
X102210226Y-78273937D01*
X102379744Y-78387205D01*
X102568102Y-78465226D01*
X102768061Y-78505000D01*
X102971939Y-78505000D01*
X103171898Y-78465226D01*
X103360256Y-78387205D01*
X103529774Y-78273937D01*
X103673650Y-78130061D01*
X103994000Y-78130061D01*
X103994000Y-78333939D01*
X104033774Y-78533898D01*
X104111795Y-78722256D01*
X104225063Y-78891774D01*
X104369226Y-79035937D01*
X104538744Y-79149205D01*
X104727102Y-79227226D01*
X104927061Y-79267000D01*
X105130939Y-79267000D01*
X105330898Y-79227226D01*
X105519256Y-79149205D01*
X105688774Y-79035937D01*
X105832937Y-78891774D01*
X105946205Y-78722256D01*
X106024226Y-78533898D01*
X106064000Y-78333939D01*
X106064000Y-78157903D01*
X106130063Y-78256774D01*
X106274226Y-78400937D01*
X106443744Y-78514205D01*
X106632102Y-78592226D01*
X106832061Y-78632000D01*
X107035939Y-78632000D01*
X107235898Y-78592226D01*
X107424256Y-78514205D01*
X107593774Y-78400937D01*
X107737937Y-78256774D01*
X107851205Y-78087256D01*
X107929226Y-77898898D01*
X107969000Y-77698939D01*
X107969000Y-77495061D01*
X107929226Y-77295102D01*
X107851205Y-77106744D01*
X107737937Y-76937226D01*
X107593774Y-76793063D01*
X107424256Y-76679795D01*
X107235898Y-76601774D01*
X107035939Y-76562000D01*
X106832061Y-76562000D01*
X106632102Y-76601774D01*
X106443744Y-76679795D01*
X106274226Y-76793063D01*
X106130063Y-76937226D01*
X106016795Y-77106744D01*
X105938774Y-77295102D01*
X105899000Y-77495061D01*
X105899000Y-77671097D01*
X105832937Y-77572226D01*
X105688774Y-77428063D01*
X105519256Y-77314795D01*
X105330898Y-77236774D01*
X105130939Y-77197000D01*
X104927061Y-77197000D01*
X104727102Y-77236774D01*
X104538744Y-77314795D01*
X104369226Y-77428063D01*
X104225063Y-77572226D01*
X104111795Y-77741744D01*
X104033774Y-77930102D01*
X103994000Y-78130061D01*
X103673650Y-78130061D01*
X103673937Y-78129774D01*
X103787205Y-77960256D01*
X103865226Y-77771898D01*
X103905000Y-77571939D01*
X103905000Y-77368061D01*
X103865226Y-77168102D01*
X103787205Y-76979744D01*
X103673937Y-76810226D01*
X103529774Y-76666063D01*
X103360256Y-76552795D01*
X103171898Y-76474774D01*
X102971939Y-76435000D01*
X102768061Y-76435000D01*
X102568102Y-76474774D01*
X102379744Y-76552795D01*
X102210226Y-76666063D01*
X102066063Y-76810226D01*
X101952795Y-76979744D01*
X101874774Y-77168102D01*
X101835000Y-77368061D01*
X81702650Y-77368061D01*
X81829937Y-77240774D01*
X81943205Y-77071256D01*
X82021226Y-76882898D01*
X82053690Y-76719688D01*
X82216890Y-76687226D01*
X82405248Y-76609205D01*
X82574766Y-76495937D01*
X82718929Y-76351774D01*
X82832197Y-76182256D01*
X82910218Y-75993898D01*
X82949992Y-75793939D01*
X82949992Y-75590061D01*
X82910218Y-75390102D01*
X82832197Y-75201744D01*
X82718929Y-75032226D01*
X82674992Y-74988289D01*
X82674992Y-73304061D01*
X93707000Y-73304061D01*
X93707000Y-73507939D01*
X93746774Y-73707898D01*
X93824795Y-73896256D01*
X93938063Y-74065774D01*
X94082226Y-74209937D01*
X94251744Y-74323205D01*
X94440102Y-74401226D01*
X94640061Y-74441000D01*
X94843939Y-74441000D01*
X95043898Y-74401226D01*
X95232256Y-74323205D01*
X95401774Y-74209937D01*
X95545937Y-74065774D01*
X95659205Y-73896256D01*
X95694079Y-73812061D01*
X103994000Y-73812061D01*
X103994000Y-74015939D01*
X104033774Y-74215898D01*
X104111795Y-74404256D01*
X104225063Y-74573774D01*
X104369226Y-74717937D01*
X104538744Y-74831205D01*
X104727102Y-74909226D01*
X104927061Y-74949000D01*
X105130939Y-74949000D01*
X105330898Y-74909226D01*
X105519256Y-74831205D01*
X105688774Y-74717937D01*
X105832937Y-74573774D01*
X105946205Y-74404256D01*
X106024226Y-74215898D01*
X106064000Y-74015939D01*
X106064000Y-73812061D01*
X106024226Y-73612102D01*
X105946205Y-73423744D01*
X105832937Y-73254226D01*
X105688774Y-73110063D01*
X105519256Y-72996795D01*
X105330898Y-72918774D01*
X105130939Y-72879000D01*
X104927061Y-72879000D01*
X104727102Y-72918774D01*
X104538744Y-72996795D01*
X104369226Y-73110063D01*
X104225063Y-73254226D01*
X104111795Y-73423744D01*
X104033774Y-73612102D01*
X103994000Y-73812061D01*
X95694079Y-73812061D01*
X95737226Y-73707898D01*
X95777000Y-73507939D01*
X95777000Y-73304061D01*
X95737226Y-73104102D01*
X95659205Y-72915744D01*
X95545937Y-72746226D01*
X95401774Y-72602063D01*
X95232256Y-72488795D01*
X95043898Y-72410774D01*
X94843939Y-72371000D01*
X94640061Y-72371000D01*
X94440102Y-72410774D01*
X94251744Y-72488795D01*
X94082226Y-72602063D01*
X93938063Y-72746226D01*
X93824795Y-72915744D01*
X93746774Y-73104102D01*
X93707000Y-73304061D01*
X82674992Y-73304061D01*
X82674992Y-72808314D01*
X82678668Y-72770991D01*
X82674992Y-72733668D01*
X82674992Y-72733659D01*
X82663995Y-72622006D01*
X82620538Y-72478745D01*
X82549966Y-72346716D01*
X82454993Y-72230991D01*
X82425996Y-72207194D01*
X82315000Y-72096198D01*
X82315000Y-72034061D01*
X82275226Y-71834102D01*
X82197205Y-71645744D01*
X82083937Y-71476226D01*
X81939774Y-71332063D01*
X81770256Y-71218795D01*
X81581898Y-71140774D01*
X81381939Y-71101000D01*
X81178061Y-71101000D01*
X80978102Y-71140774D01*
X80789744Y-71218795D01*
X80620226Y-71332063D01*
X80476063Y-71476226D01*
X80362795Y-71645744D01*
X80284774Y-71834102D01*
X80247078Y-72023612D01*
X80216102Y-72029774D01*
X80027744Y-72107795D01*
X79858226Y-72221063D01*
X79714063Y-72365226D01*
X79600795Y-72534744D01*
X79522774Y-72723102D01*
X79483000Y-72923061D01*
X75771831Y-72923061D01*
X75847205Y-72810256D01*
X75925226Y-72621898D01*
X75965000Y-72421939D01*
X75965000Y-72218061D01*
X75925226Y-72018102D01*
X75847205Y-71829744D01*
X75733937Y-71660226D01*
X75589774Y-71516063D01*
X75420256Y-71402795D01*
X75231898Y-71324774D01*
X75031939Y-71285000D01*
X74828061Y-71285000D01*
X74628102Y-71324774D01*
X74439744Y-71402795D01*
X74270226Y-71516063D01*
X74126063Y-71660226D01*
X74012795Y-71829744D01*
X73977500Y-71914953D01*
X73942205Y-71829744D01*
X73828937Y-71660226D01*
X73684774Y-71516063D01*
X73515256Y-71402795D01*
X73326898Y-71324774D01*
X73126939Y-71285000D01*
X72923061Y-71285000D01*
X72723102Y-71324774D01*
X72534744Y-71402795D01*
X72365226Y-71516063D01*
X72221063Y-71660226D01*
X72107795Y-71829744D01*
X72072500Y-71914953D01*
X72037205Y-71829744D01*
X71923937Y-71660226D01*
X71779774Y-71516063D01*
X71610256Y-71402795D01*
X71421898Y-71324774D01*
X71221939Y-71285000D01*
X71018061Y-71285000D01*
X70818102Y-71324774D01*
X70629744Y-71402795D01*
X70460226Y-71516063D01*
X70316063Y-71660226D01*
X70202795Y-71829744D01*
X70124774Y-72018102D01*
X70085000Y-72218061D01*
X66167000Y-72218061D01*
X66167000Y-70510061D01*
X105518000Y-70510061D01*
X105518000Y-70713939D01*
X105557774Y-70913898D01*
X105635795Y-71102256D01*
X105749063Y-71271774D01*
X105893226Y-71415937D01*
X106062744Y-71529205D01*
X106251102Y-71607226D01*
X106451061Y-71647000D01*
X106654939Y-71647000D01*
X106854898Y-71607226D01*
X107043256Y-71529205D01*
X107212774Y-71415937D01*
X107356937Y-71271774D01*
X107470205Y-71102256D01*
X107548226Y-70913898D01*
X107588000Y-70713939D01*
X107588000Y-70510061D01*
X107548226Y-70310102D01*
X107470205Y-70121744D01*
X107356937Y-69952226D01*
X107212774Y-69808063D01*
X107122975Y-69748061D01*
X107550000Y-69748061D01*
X107550000Y-69951939D01*
X107589774Y-70151898D01*
X107667795Y-70340256D01*
X107781063Y-70509774D01*
X107925226Y-70653937D01*
X108094744Y-70767205D01*
X108283102Y-70845226D01*
X108483061Y-70885000D01*
X108686939Y-70885000D01*
X108886898Y-70845226D01*
X109075256Y-70767205D01*
X109244774Y-70653937D01*
X109388937Y-70509774D01*
X109502205Y-70340256D01*
X109580226Y-70151898D01*
X109620000Y-69951939D01*
X109620000Y-69748061D01*
X109580226Y-69548102D01*
X109502205Y-69359744D01*
X109388937Y-69190226D01*
X109244774Y-69046063D01*
X109075256Y-68932795D01*
X108886898Y-68854774D01*
X108686939Y-68815000D01*
X108483061Y-68815000D01*
X108283102Y-68854774D01*
X108094744Y-68932795D01*
X107925226Y-69046063D01*
X107781063Y-69190226D01*
X107667795Y-69359744D01*
X107589774Y-69548102D01*
X107550000Y-69748061D01*
X107122975Y-69748061D01*
X107043256Y-69694795D01*
X106854898Y-69616774D01*
X106654939Y-69577000D01*
X106451061Y-69577000D01*
X106251102Y-69616774D01*
X106062744Y-69694795D01*
X105893226Y-69808063D01*
X105749063Y-69952226D01*
X105635795Y-70121744D01*
X105557774Y-70310102D01*
X105518000Y-70510061D01*
X66167000Y-70510061D01*
X66167000Y-69113061D01*
X92310000Y-69113061D01*
X92310000Y-69316939D01*
X92349774Y-69516898D01*
X92427795Y-69705256D01*
X92541063Y-69874774D01*
X92685226Y-70018937D01*
X92854744Y-70132205D01*
X93043102Y-70210226D01*
X93243061Y-70250000D01*
X93446939Y-70250000D01*
X93646898Y-70210226D01*
X93835256Y-70132205D01*
X94004774Y-70018937D01*
X94148937Y-69874774D01*
X94262205Y-69705256D01*
X94340226Y-69516898D01*
X94380000Y-69316939D01*
X94380000Y-69113061D01*
X94340226Y-68913102D01*
X94262205Y-68724744D01*
X94148937Y-68555226D01*
X94004774Y-68411063D01*
X93835256Y-68297795D01*
X93646898Y-68219774D01*
X93446939Y-68180000D01*
X93243061Y-68180000D01*
X93043102Y-68219774D01*
X92854744Y-68297795D01*
X92685226Y-68411063D01*
X92541063Y-68555226D01*
X92427795Y-68724744D01*
X92349774Y-68913102D01*
X92310000Y-69113061D01*
X66167000Y-69113061D01*
X66167000Y-66827061D01*
X74657000Y-66827061D01*
X74657000Y-67030939D01*
X74696774Y-67230898D01*
X74774795Y-67419256D01*
X74888063Y-67588774D01*
X75032226Y-67732937D01*
X75201744Y-67846205D01*
X75390102Y-67924226D01*
X75590061Y-67964000D01*
X75793939Y-67964000D01*
X75993898Y-67924226D01*
X76182256Y-67846205D01*
X76351774Y-67732937D01*
X76495937Y-67588774D01*
X76609205Y-67419256D01*
X76687226Y-67230898D01*
X76727000Y-67030939D01*
X76727000Y-66827061D01*
X76687226Y-66627102D01*
X76609205Y-66438744D01*
X76495937Y-66269226D01*
X76351774Y-66125063D01*
X76182256Y-66011795D01*
X75993898Y-65933774D01*
X75793939Y-65894000D01*
X75590061Y-65894000D01*
X75390102Y-65933774D01*
X75201744Y-66011795D01*
X75032226Y-66125063D01*
X74888063Y-66269226D01*
X74774795Y-66438744D01*
X74696774Y-66627102D01*
X74657000Y-66827061D01*
X66167000Y-66827061D01*
X66167000Y-64622285D01*
X78665000Y-64622285D01*
X78665000Y-65377715D01*
X78812377Y-66118628D01*
X79101467Y-66816554D01*
X79521161Y-67444670D01*
X80055330Y-67978839D01*
X80683446Y-68398533D01*
X81381372Y-68687623D01*
X82122285Y-68835000D01*
X82877715Y-68835000D01*
X83618628Y-68687623D01*
X84316554Y-68398533D01*
X84944670Y-67978839D01*
X85478839Y-67444670D01*
X85898533Y-66816554D01*
X86187623Y-66118628D01*
X86274063Y-65684061D01*
X106153000Y-65684061D01*
X106153000Y-65887939D01*
X106192774Y-66087898D01*
X106270795Y-66276256D01*
X106384063Y-66445774D01*
X106528226Y-66589937D01*
X106697744Y-66703205D01*
X106886102Y-66781226D01*
X107086061Y-66821000D01*
X107289939Y-66821000D01*
X107489898Y-66781226D01*
X107678256Y-66703205D01*
X107847774Y-66589937D01*
X107991937Y-66445774D01*
X108105205Y-66276256D01*
X108183226Y-66087898D01*
X108223000Y-65887939D01*
X108223000Y-65684061D01*
X108183226Y-65484102D01*
X108105205Y-65295744D01*
X107991937Y-65126226D01*
X107847774Y-64982063D01*
X107678256Y-64868795D01*
X107489898Y-64790774D01*
X107289939Y-64751000D01*
X107086061Y-64751000D01*
X106886102Y-64790774D01*
X106697744Y-64868795D01*
X106528226Y-64982063D01*
X106384063Y-65126226D01*
X106270795Y-65295744D01*
X106192774Y-65484102D01*
X106153000Y-65684061D01*
X86274063Y-65684061D01*
X86335000Y-65377715D01*
X86335000Y-64622285D01*
X86217796Y-64033061D01*
X94850000Y-64033061D01*
X94850000Y-64236939D01*
X94889774Y-64436898D01*
X94967795Y-64625256D01*
X95081063Y-64794774D01*
X95225226Y-64938937D01*
X95394744Y-65052205D01*
X95583102Y-65130226D01*
X95783061Y-65170000D01*
X95986939Y-65170000D01*
X96186898Y-65130226D01*
X96375256Y-65052205D01*
X96544774Y-64938937D01*
X96688937Y-64794774D01*
X96802205Y-64625256D01*
X96803435Y-64622285D01*
X118665000Y-64622285D01*
X118665000Y-65377715D01*
X118812377Y-66118628D01*
X119101467Y-66816554D01*
X119521161Y-67444670D01*
X120055330Y-67978839D01*
X120683446Y-68398533D01*
X121381372Y-68687623D01*
X122122285Y-68835000D01*
X122877715Y-68835000D01*
X123618628Y-68687623D01*
X124316554Y-68398533D01*
X124944670Y-67978839D01*
X125478839Y-67444670D01*
X125898533Y-66816554D01*
X126187623Y-66118628D01*
X126335000Y-65377715D01*
X126335000Y-64622285D01*
X126187623Y-63881372D01*
X125898533Y-63183446D01*
X125478839Y-62555330D01*
X124944670Y-62021161D01*
X124316554Y-61601467D01*
X123618628Y-61312377D01*
X122877715Y-61165000D01*
X122122285Y-61165000D01*
X121381372Y-61312377D01*
X120683446Y-61601467D01*
X120055330Y-62021161D01*
X119521161Y-62555330D01*
X119101467Y-63183446D01*
X118812377Y-63881372D01*
X118665000Y-64622285D01*
X96803435Y-64622285D01*
X96880226Y-64436898D01*
X96920000Y-64236939D01*
X96920000Y-64033061D01*
X96880226Y-63833102D01*
X96802205Y-63644744D01*
X96688937Y-63475226D01*
X96544774Y-63331063D01*
X96375256Y-63217795D01*
X96186898Y-63139774D01*
X95986939Y-63100000D01*
X95783061Y-63100000D01*
X95583102Y-63139774D01*
X95394744Y-63217795D01*
X95225226Y-63331063D01*
X95081063Y-63475226D01*
X94967795Y-63644744D01*
X94889774Y-63833102D01*
X94850000Y-64033061D01*
X86217796Y-64033061D01*
X86187623Y-63881372D01*
X85898533Y-63183446D01*
X85478839Y-62555330D01*
X84944670Y-62021161D01*
X84316554Y-61601467D01*
X83618628Y-61312377D01*
X82877715Y-61165000D01*
X82122285Y-61165000D01*
X81381372Y-61312377D01*
X80683446Y-61601467D01*
X80055330Y-62021161D01*
X79521161Y-62555330D01*
X79101467Y-63183446D01*
X78812377Y-63881372D01*
X78665000Y-64622285D01*
X66167000Y-64622285D01*
X66167000Y-61012606D01*
X67362606Y-59817000D01*
X133297394Y-59817000D01*
X134493000Y-61012606D01*
G37*
X134493000Y-61012606D02*
X134493000Y-102182394D01*
X133297394Y-103378000D01*
X126762349Y-103378000D01*
X126774205Y-103360256D01*
X126852226Y-103171898D01*
X126892000Y-102971939D01*
X126892000Y-102768061D01*
X126852226Y-102568102D01*
X126774205Y-102379744D01*
X126660937Y-102210226D01*
X126516774Y-102066063D01*
X126347256Y-101952795D01*
X126158898Y-101874774D01*
X125958939Y-101835000D01*
X125755061Y-101835000D01*
X125555102Y-101874774D01*
X125366744Y-101952795D01*
X125197226Y-102066063D01*
X125053063Y-102210226D01*
X124939795Y-102379744D01*
X124861774Y-102568102D01*
X124822000Y-102768061D01*
X124822000Y-102971939D01*
X124861774Y-103171898D01*
X124939795Y-103360256D01*
X124951651Y-103378000D01*
X121920000Y-103378000D01*
X121895224Y-103380440D01*
X121871399Y-103387667D01*
X121849443Y-103399403D01*
X121830197Y-103415197D01*
X118655197Y-106590197D01*
X118639403Y-106609443D01*
X118627667Y-106631399D01*
X118620440Y-106655224D01*
X118618000Y-106680000D01*
X118618000Y-107866415D01*
X118541185Y-107772815D01*
X118444494Y-107693463D01*
X118334180Y-107634498D01*
X118214482Y-107598188D01*
X118090000Y-107585928D01*
X115590000Y-107585928D01*
X115465518Y-107598188D01*
X115345820Y-107634498D01*
X115235506Y-107693463D01*
X115138815Y-107772815D01*
X115059463Y-107869506D01*
X115000498Y-107979820D01*
X114964188Y-108099518D01*
X114951928Y-108224000D01*
X114951928Y-110724000D01*
X114964188Y-110848482D01*
X115000498Y-110968180D01*
X115059463Y-111078494D01*
X115138815Y-111175185D01*
X115235506Y-111254537D01*
X115345820Y-111313502D01*
X115465518Y-111349812D01*
X115590000Y-111362072D01*
X118090000Y-111362072D01*
X118214482Y-111349812D01*
X118334180Y-111313502D01*
X118444494Y-111254537D01*
X118541185Y-111175185D01*
X118618000Y-111081585D01*
X118618000Y-124090247D01*
X118570102Y-124099774D01*
X118381744Y-124177795D01*
X118212226Y-124291063D01*
X118068063Y-124435226D01*
X117954795Y-124604744D01*
X117876774Y-124793102D01*
X117837000Y-124993061D01*
X117837000Y-125196939D01*
X117876774Y-125396898D01*
X117954795Y-125585256D01*
X118068063Y-125754774D01*
X118212226Y-125898937D01*
X118381744Y-126012205D01*
X118570102Y-126090226D01*
X118618000Y-126099753D01*
X118618000Y-154120969D01*
X117553715Y-155067000D01*
X67362606Y-155067000D01*
X66167000Y-153871394D01*
X66167000Y-151536061D01*
X73895000Y-151536061D01*
X73895000Y-151739939D01*
X73934774Y-151939898D01*
X74012795Y-152128256D01*
X74126063Y-152297774D01*
X74270226Y-152441937D01*
X74439744Y-152555205D01*
X74628102Y-152633226D01*
X74828061Y-152673000D01*
X75031939Y-152673000D01*
X75231898Y-152633226D01*
X75420256Y-152555205D01*
X75589774Y-152441937D01*
X75733937Y-152297774D01*
X75847205Y-152128256D01*
X75925226Y-151939898D01*
X75965000Y-151739939D01*
X75965000Y-151536061D01*
X75925226Y-151336102D01*
X75847205Y-151147744D01*
X75733937Y-150978226D01*
X75589774Y-150834063D01*
X75420256Y-150720795D01*
X75231898Y-150642774D01*
X75031939Y-150603000D01*
X74828061Y-150603000D01*
X74628102Y-150642774D01*
X74439744Y-150720795D01*
X74270226Y-150834063D01*
X74126063Y-150978226D01*
X74012795Y-151147744D01*
X73934774Y-151336102D01*
X73895000Y-151536061D01*
X66167000Y-151536061D01*
X66167000Y-149622285D01*
X78665000Y-149622285D01*
X78665000Y-150377715D01*
X78812377Y-151118628D01*
X79101467Y-151816554D01*
X79521161Y-152444670D01*
X80055330Y-152978839D01*
X80683446Y-153398533D01*
X81381372Y-153687623D01*
X82122285Y-153835000D01*
X82877715Y-153835000D01*
X83618628Y-153687623D01*
X84316554Y-153398533D01*
X84944670Y-152978839D01*
X85478839Y-152444670D01*
X85898533Y-151816554D01*
X86187623Y-151118628D01*
X86335000Y-150377715D01*
X86335000Y-149622285D01*
X86187623Y-148881372D01*
X85898533Y-148183446D01*
X85478839Y-147555330D01*
X84944670Y-147021161D01*
X84316554Y-146601467D01*
X83618628Y-146312377D01*
X82877715Y-146165000D01*
X82122285Y-146165000D01*
X81381372Y-146312377D01*
X80683446Y-146601467D01*
X80055330Y-147021161D01*
X79521161Y-147555330D01*
X79101467Y-148183446D01*
X78812377Y-148881372D01*
X78665000Y-149622285D01*
X66167000Y-149622285D01*
X66167000Y-147688061D01*
X70085000Y-147688061D01*
X70085000Y-147891939D01*
X70124774Y-148091898D01*
X70202795Y-148280256D01*
X70316063Y-148449774D01*
X70460226Y-148593937D01*
X70629744Y-148707205D01*
X70818102Y-148785226D01*
X71018061Y-148825000D01*
X71221939Y-148825000D01*
X71421898Y-148785226D01*
X71610256Y-148707205D01*
X71779774Y-148593937D01*
X71923937Y-148449774D01*
X72037205Y-148280256D01*
X72072500Y-148195047D01*
X72107795Y-148280256D01*
X72221063Y-148449774D01*
X72365226Y-148593937D01*
X72534744Y-148707205D01*
X72723102Y-148785226D01*
X72923061Y-148825000D01*
X73126939Y-148825000D01*
X73326898Y-148785226D01*
X73515256Y-148707205D01*
X73684774Y-148593937D01*
X73828937Y-148449774D01*
X73942205Y-148280256D01*
X73977500Y-148195047D01*
X74012795Y-148280256D01*
X74126063Y-148449774D01*
X74270226Y-148593937D01*
X74439744Y-148707205D01*
X74628102Y-148785226D01*
X74828061Y-148825000D01*
X75031939Y-148825000D01*
X75231898Y-148785226D01*
X75420256Y-148707205D01*
X75589774Y-148593937D01*
X75733937Y-148449774D01*
X75847205Y-148280256D01*
X75925226Y-148091898D01*
X75965000Y-147891939D01*
X75965000Y-147688061D01*
X75925226Y-147488102D01*
X75847205Y-147299744D01*
X75733937Y-147130226D01*
X75589774Y-146986063D01*
X75420256Y-146872795D01*
X75231898Y-146794774D01*
X75031939Y-146755000D01*
X74828061Y-146755000D01*
X74628102Y-146794774D01*
X74439744Y-146872795D01*
X74270226Y-146986063D01*
X74126063Y-147130226D01*
X74012795Y-147299744D01*
X73977500Y-147384953D01*
X73942205Y-147299744D01*
X73828937Y-147130226D01*
X73684774Y-146986063D01*
X73515256Y-146872795D01*
X73326898Y-146794774D01*
X73126939Y-146755000D01*
X72923061Y-146755000D01*
X72723102Y-146794774D01*
X72534744Y-146872795D01*
X72365226Y-146986063D01*
X72221063Y-147130226D01*
X72107795Y-147299744D01*
X72072500Y-147384953D01*
X72037205Y-147299744D01*
X71923937Y-147130226D01*
X71779774Y-146986063D01*
X71610256Y-146872795D01*
X71421898Y-146794774D01*
X71221939Y-146755000D01*
X71018061Y-146755000D01*
X70818102Y-146794774D01*
X70629744Y-146872795D01*
X70460226Y-146986063D01*
X70316063Y-147130226D01*
X70202795Y-147299744D01*
X70124774Y-147488102D01*
X70085000Y-147688061D01*
X66167000Y-147688061D01*
X66167000Y-142265061D01*
X74530000Y-142265061D01*
X74530000Y-142468939D01*
X74569774Y-142668898D01*
X74647795Y-142857256D01*
X74761063Y-143026774D01*
X74905226Y-143170937D01*
X75074744Y-143284205D01*
X75263102Y-143362226D01*
X75463061Y-143402000D01*
X75666939Y-143402000D01*
X75866898Y-143362226D01*
X76055256Y-143284205D01*
X76224774Y-143170937D01*
X76368937Y-143026774D01*
X76482205Y-142857256D01*
X76560226Y-142668898D01*
X76600000Y-142468939D01*
X76600000Y-142265061D01*
X76560226Y-142065102D01*
X76482205Y-141876744D01*
X76368937Y-141707226D01*
X76224774Y-141563063D01*
X76055256Y-141449795D01*
X75866898Y-141371774D01*
X75666939Y-141332000D01*
X75463061Y-141332000D01*
X75263102Y-141371774D01*
X75074744Y-141449795D01*
X74905226Y-141563063D01*
X74761063Y-141707226D01*
X74647795Y-141876744D01*
X74569774Y-142065102D01*
X74530000Y-142265061D01*
X66167000Y-142265061D01*
X66167000Y-129908061D01*
X68180000Y-129908061D01*
X68180000Y-130111939D01*
X68219774Y-130311898D01*
X68297795Y-130500256D01*
X68411063Y-130669774D01*
X68555226Y-130813937D01*
X68724744Y-130927205D01*
X68913102Y-131005226D01*
X69113061Y-131045000D01*
X69316939Y-131045000D01*
X69516898Y-131005226D01*
X69705256Y-130927205D01*
X69874774Y-130813937D01*
X70018937Y-130669774D01*
X70132205Y-130500256D01*
X70210226Y-130311898D01*
X70250000Y-130111939D01*
X70250000Y-129908061D01*
X70210226Y-129708102D01*
X70132205Y-129519744D01*
X70018937Y-129350226D01*
X69874774Y-129206063D01*
X69705256Y-129092795D01*
X69516898Y-129014774D01*
X69316939Y-128975000D01*
X69113061Y-128975000D01*
X68913102Y-129014774D01*
X68724744Y-129092795D01*
X68555226Y-129206063D01*
X68411063Y-129350226D01*
X68297795Y-129519744D01*
X68219774Y-129708102D01*
X68180000Y-129908061D01*
X66167000Y-129908061D01*
X66167000Y-126898061D01*
X98787000Y-126898061D01*
X98787000Y-127101939D01*
X98826774Y-127301898D01*
X98904795Y-127490256D01*
X99018063Y-127659774D01*
X99162226Y-127803937D01*
X99331744Y-127917205D01*
X99520102Y-127995226D01*
X99720061Y-128035000D01*
X99923939Y-128035000D01*
X100123898Y-127995226D01*
X100312256Y-127917205D01*
X100481774Y-127803937D01*
X100625937Y-127659774D01*
X100739205Y-127490256D01*
X100817226Y-127301898D01*
X100857000Y-127101939D01*
X100857000Y-126898061D01*
X100817226Y-126698102D01*
X100739205Y-126509744D01*
X100625937Y-126340226D01*
X100481774Y-126196063D01*
X100312256Y-126082795D01*
X100123898Y-126004774D01*
X99923939Y-125965000D01*
X99720061Y-125965000D01*
X99520102Y-126004774D01*
X99331744Y-126082795D01*
X99162226Y-126196063D01*
X99018063Y-126340226D01*
X98904795Y-126509744D01*
X98826774Y-126698102D01*
X98787000Y-126898061D01*
X66167000Y-126898061D01*
X66167000Y-122288061D01*
X70085000Y-122288061D01*
X70085000Y-122491939D01*
X70124774Y-122691898D01*
X70202795Y-122880256D01*
X70316063Y-123049774D01*
X70460226Y-123193937D01*
X70629744Y-123307205D01*
X70818102Y-123385226D01*
X71018061Y-123425000D01*
X71221939Y-123425000D01*
X71421898Y-123385226D01*
X71610256Y-123307205D01*
X71779774Y-123193937D01*
X71923937Y-123049774D01*
X72037205Y-122880256D01*
X72072500Y-122795047D01*
X72107795Y-122880256D01*
X72221063Y-123049774D01*
X72365226Y-123193937D01*
X72534744Y-123307205D01*
X72723102Y-123385226D01*
X72923061Y-123425000D01*
X73126939Y-123425000D01*
X73326898Y-123385226D01*
X73515256Y-123307205D01*
X73684774Y-123193937D01*
X73828937Y-123049774D01*
X73942205Y-122880256D01*
X73977500Y-122795047D01*
X74012795Y-122880256D01*
X74126063Y-123049774D01*
X74270226Y-123193937D01*
X74439744Y-123307205D01*
X74628102Y-123385226D01*
X74828061Y-123425000D01*
X75031939Y-123425000D01*
X75231898Y-123385226D01*
X75420256Y-123307205D01*
X75589774Y-123193937D01*
X75733937Y-123049774D01*
X75847205Y-122880256D01*
X75925226Y-122691898D01*
X75965000Y-122491939D01*
X75965000Y-122288061D01*
X75925226Y-122088102D01*
X75847205Y-121899744D01*
X75733937Y-121730226D01*
X75589774Y-121586063D01*
X75420256Y-121472795D01*
X75231898Y-121394774D01*
X75031939Y-121355000D01*
X74828061Y-121355000D01*
X74628102Y-121394774D01*
X74439744Y-121472795D01*
X74270226Y-121586063D01*
X74126063Y-121730226D01*
X74012795Y-121899744D01*
X73977500Y-121984953D01*
X73942205Y-121899744D01*
X73828937Y-121730226D01*
X73684774Y-121586063D01*
X73515256Y-121472795D01*
X73326898Y-121394774D01*
X73126939Y-121355000D01*
X72923061Y-121355000D01*
X72723102Y-121394774D01*
X72534744Y-121472795D01*
X72365226Y-121586063D01*
X72221063Y-121730226D01*
X72107795Y-121899744D01*
X72072500Y-121984953D01*
X72037205Y-121899744D01*
X71923937Y-121730226D01*
X71779774Y-121586063D01*
X71610256Y-121472795D01*
X71421898Y-121394774D01*
X71221939Y-121355000D01*
X71018061Y-121355000D01*
X70818102Y-121394774D01*
X70629744Y-121472795D01*
X70460226Y-121586063D01*
X70316063Y-121730226D01*
X70202795Y-121899744D01*
X70124774Y-122088102D01*
X70085000Y-122288061D01*
X66167000Y-122288061D01*
X66167000Y-116865061D01*
X74530000Y-116865061D01*
X74530000Y-117068939D01*
X74569774Y-117268898D01*
X74647795Y-117457256D01*
X74761063Y-117626774D01*
X74905226Y-117770937D01*
X75074744Y-117884205D01*
X75263102Y-117962226D01*
X75463061Y-118002000D01*
X75666939Y-118002000D01*
X75866898Y-117962226D01*
X76055256Y-117884205D01*
X76224774Y-117770937D01*
X76368937Y-117626774D01*
X76482205Y-117457256D01*
X76560226Y-117268898D01*
X76600000Y-117068939D01*
X76600000Y-116865061D01*
X76574739Y-116738061D01*
X98660000Y-116738061D01*
X98660000Y-116941939D01*
X98699774Y-117141898D01*
X98777795Y-117330256D01*
X98891063Y-117499774D01*
X99035226Y-117643937D01*
X99204744Y-117757205D01*
X99393102Y-117835226D01*
X99593061Y-117875000D01*
X99796939Y-117875000D01*
X99996898Y-117835226D01*
X100185256Y-117757205D01*
X100354774Y-117643937D01*
X100498937Y-117499774D01*
X100612205Y-117330256D01*
X100690226Y-117141898D01*
X100730000Y-116941939D01*
X100730000Y-116738061D01*
X100690226Y-116538102D01*
X100612205Y-116349744D01*
X100498937Y-116180226D01*
X100354774Y-116036063D01*
X100185256Y-115922795D01*
X99996898Y-115844774D01*
X99796939Y-115805000D01*
X99593061Y-115805000D01*
X99393102Y-115844774D01*
X99204744Y-115922795D01*
X99035226Y-116036063D01*
X98891063Y-116180226D01*
X98777795Y-116349744D01*
X98699774Y-116538102D01*
X98660000Y-116738061D01*
X76574739Y-116738061D01*
X76560226Y-116665102D01*
X76482205Y-116476744D01*
X76368937Y-116307226D01*
X76224774Y-116163063D01*
X76055256Y-116049795D01*
X75866898Y-115971774D01*
X75666939Y-115932000D01*
X75463061Y-115932000D01*
X75263102Y-115971774D01*
X75074744Y-116049795D01*
X74905226Y-116163063D01*
X74761063Y-116307226D01*
X74647795Y-116476744D01*
X74569774Y-116665102D01*
X74530000Y-116865061D01*
X66167000Y-116865061D01*
X66167000Y-114325061D01*
X78340000Y-114325061D01*
X78340000Y-114528939D01*
X78379774Y-114728898D01*
X78457795Y-114917256D01*
X78571063Y-115086774D01*
X78715226Y-115230937D01*
X78884744Y-115344205D01*
X79073102Y-115422226D01*
X79273061Y-115462000D01*
X79476939Y-115462000D01*
X79676898Y-115422226D01*
X79865256Y-115344205D01*
X80034774Y-115230937D01*
X80078711Y-115187000D01*
X80449289Y-115187000D01*
X80493226Y-115230937D01*
X80662744Y-115344205D01*
X80851102Y-115422226D01*
X81051061Y-115462000D01*
X81254939Y-115462000D01*
X81454898Y-115422226D01*
X81643256Y-115344205D01*
X81812774Y-115230937D01*
X81956937Y-115086774D01*
X82070205Y-114917256D01*
X82148226Y-114728898D01*
X82188000Y-114528939D01*
X82188000Y-114325061D01*
X82148226Y-114125102D01*
X82070205Y-113936744D01*
X82058349Y-113919000D01*
X82070205Y-113901256D01*
X82148226Y-113712898D01*
X82188000Y-113512939D01*
X82188000Y-113309061D01*
X82148226Y-113109102D01*
X82070205Y-112920744D01*
X81956937Y-112751226D01*
X81812774Y-112607063D01*
X81643256Y-112493795D01*
X81454898Y-112415774D01*
X81254939Y-112376000D01*
X81051061Y-112376000D01*
X80851102Y-112415774D01*
X80662744Y-112493795D01*
X80493226Y-112607063D01*
X80436527Y-112663762D01*
X80080867Y-112663762D01*
X80036930Y-112619825D01*
X79867412Y-112506557D01*
X79679054Y-112428536D01*
X79479095Y-112388762D01*
X79275217Y-112388762D01*
X79075258Y-112428536D01*
X78886900Y-112506557D01*
X78717382Y-112619825D01*
X78573219Y-112763988D01*
X78459951Y-112933506D01*
X78381930Y-113121864D01*
X78342156Y-113321823D01*
X78342156Y-113525701D01*
X78381930Y-113725660D01*
X78459951Y-113914018D01*
X78466465Y-113923768D01*
X78457795Y-113936744D01*
X78379774Y-114125102D01*
X78340000Y-114325061D01*
X66167000Y-114325061D01*
X66167000Y-105073061D01*
X68180000Y-105073061D01*
X68180000Y-105276939D01*
X68219774Y-105476898D01*
X68297795Y-105665256D01*
X68411063Y-105834774D01*
X68555226Y-105978937D01*
X68724744Y-106092205D01*
X68913102Y-106170226D01*
X69113061Y-106210000D01*
X69316939Y-106210000D01*
X69516898Y-106170226D01*
X69705256Y-106092205D01*
X69874774Y-105978937D01*
X70018937Y-105834774D01*
X70132205Y-105665256D01*
X70210226Y-105476898D01*
X70243809Y-105308061D01*
X111233000Y-105308061D01*
X111233000Y-105511939D01*
X111272774Y-105711898D01*
X111350795Y-105900256D01*
X111464063Y-106069774D01*
X111608226Y-106213937D01*
X111777744Y-106327205D01*
X111966102Y-106405226D01*
X112166061Y-106445000D01*
X112369939Y-106445000D01*
X112569898Y-106405226D01*
X112758256Y-106327205D01*
X112927774Y-106213937D01*
X113071937Y-106069774D01*
X113185205Y-105900256D01*
X113263226Y-105711898D01*
X113303000Y-105511939D01*
X113303000Y-105308061D01*
X113263226Y-105108102D01*
X113185205Y-104919744D01*
X113075127Y-104755000D01*
X114951928Y-104755000D01*
X114964188Y-104879482D01*
X115000498Y-104999180D01*
X115059463Y-105109494D01*
X115138815Y-105206185D01*
X115235506Y-105285537D01*
X115345820Y-105344502D01*
X115465518Y-105380812D01*
X115590000Y-105393072D01*
X116554250Y-105390000D01*
X116713000Y-105231250D01*
X116713000Y-103632000D01*
X116967000Y-103632000D01*
X116967000Y-105231250D01*
X117125750Y-105390000D01*
X118090000Y-105393072D01*
X118214482Y-105380812D01*
X118334180Y-105344502D01*
X118444494Y-105285537D01*
X118541185Y-105206185D01*
X118620537Y-105109494D01*
X118679502Y-104999180D01*
X118715812Y-104879482D01*
X118728072Y-104755000D01*
X118725000Y-103790750D01*
X118566250Y-103632000D01*
X116967000Y-103632000D01*
X116713000Y-103632000D01*
X115113750Y-103632000D01*
X114955000Y-103790750D01*
X114951928Y-104755000D01*
X113075127Y-104755000D01*
X113071937Y-104750226D01*
X112927774Y-104606063D01*
X112758256Y-104492795D01*
X112569898Y-104414774D01*
X112369939Y-104375000D01*
X112166061Y-104375000D01*
X111966102Y-104414774D01*
X111777744Y-104492795D01*
X111608226Y-104606063D01*
X111464063Y-104750226D01*
X111350795Y-104919744D01*
X111272774Y-105108102D01*
X111233000Y-105308061D01*
X70243809Y-105308061D01*
X70250000Y-105276939D01*
X70250000Y-105073061D01*
X70210226Y-104873102D01*
X70132205Y-104684744D01*
X70018937Y-104515226D01*
X69874774Y-104371063D01*
X69705256Y-104257795D01*
X69516898Y-104179774D01*
X69316939Y-104140000D01*
X69113061Y-104140000D01*
X68913102Y-104179774D01*
X68724744Y-104257795D01*
X68555226Y-104371063D01*
X68411063Y-104515226D01*
X68297795Y-104684744D01*
X68219774Y-104873102D01*
X68180000Y-105073061D01*
X66167000Y-105073061D01*
X66167000Y-103911061D01*
X98279000Y-103911061D01*
X98279000Y-104114939D01*
X98318774Y-104314898D01*
X98396795Y-104503256D01*
X98510063Y-104672774D01*
X98654226Y-104816937D01*
X98823744Y-104930205D01*
X99012102Y-105008226D01*
X99212061Y-105048000D01*
X99415939Y-105048000D01*
X99615898Y-105008226D01*
X99804256Y-104930205D01*
X99973774Y-104816937D01*
X100117937Y-104672774D01*
X100231205Y-104503256D01*
X100309226Y-104314898D01*
X100349000Y-104114939D01*
X100349000Y-103911061D01*
X100309226Y-103711102D01*
X100231205Y-103522744D01*
X100117937Y-103353226D01*
X99973774Y-103209063D01*
X99804256Y-103095795D01*
X99615898Y-103017774D01*
X99415939Y-102978000D01*
X99212061Y-102978000D01*
X99012102Y-103017774D01*
X98823744Y-103095795D01*
X98654226Y-103209063D01*
X98510063Y-103353226D01*
X98396795Y-103522744D01*
X98318774Y-103711102D01*
X98279000Y-103911061D01*
X66167000Y-103911061D01*
X66167000Y-102768061D01*
X107550000Y-102768061D01*
X107550000Y-102971939D01*
X107589774Y-103171898D01*
X107667795Y-103360256D01*
X107781063Y-103529774D01*
X107925226Y-103673937D01*
X108094744Y-103787205D01*
X108283102Y-103865226D01*
X108483061Y-103905000D01*
X108686939Y-103905000D01*
X108886898Y-103865226D01*
X109075256Y-103787205D01*
X109244774Y-103673937D01*
X109388937Y-103529774D01*
X109502205Y-103360256D01*
X109580226Y-103171898D01*
X109620000Y-102971939D01*
X109620000Y-102768061D01*
X111233000Y-102768061D01*
X111233000Y-102971939D01*
X111272774Y-103171898D01*
X111350795Y-103360256D01*
X111464063Y-103529774D01*
X111608226Y-103673937D01*
X111777744Y-103787205D01*
X111966102Y-103865226D01*
X112166061Y-103905000D01*
X112369939Y-103905000D01*
X112569898Y-103865226D01*
X112758256Y-103787205D01*
X112927774Y-103673937D01*
X113071937Y-103529774D01*
X113185205Y-103360256D01*
X113263226Y-103171898D01*
X113303000Y-102971939D01*
X113303000Y-102768061D01*
X113263226Y-102568102D01*
X113185205Y-102379744D01*
X113101854Y-102255000D01*
X114951928Y-102255000D01*
X114955000Y-103219250D01*
X115113750Y-103378000D01*
X116713000Y-103378000D01*
X116713000Y-101778750D01*
X116967000Y-101778750D01*
X116967000Y-103378000D01*
X118566250Y-103378000D01*
X118725000Y-103219250D01*
X118728072Y-102255000D01*
X118715812Y-102130518D01*
X118679502Y-102010820D01*
X118620537Y-101900506D01*
X118541185Y-101803815D01*
X118444494Y-101724463D01*
X118334180Y-101665498D01*
X118214482Y-101629188D01*
X118090000Y-101616928D01*
X117125750Y-101620000D01*
X116967000Y-101778750D01*
X116713000Y-101778750D01*
X116554250Y-101620000D01*
X115590000Y-101616928D01*
X115465518Y-101629188D01*
X115345820Y-101665498D01*
X115235506Y-101724463D01*
X115138815Y-101803815D01*
X115059463Y-101900506D01*
X115000498Y-102010820D01*
X114964188Y-102130518D01*
X114951928Y-102255000D01*
X113101854Y-102255000D01*
X113071937Y-102210226D01*
X112927774Y-102066063D01*
X112758256Y-101952795D01*
X112569898Y-101874774D01*
X112369939Y-101835000D01*
X112166061Y-101835000D01*
X111966102Y-101874774D01*
X111777744Y-101952795D01*
X111608226Y-102066063D01*
X111464063Y-102210226D01*
X111350795Y-102379744D01*
X111272774Y-102568102D01*
X111233000Y-102768061D01*
X109620000Y-102768061D01*
X109580226Y-102568102D01*
X109502205Y-102379744D01*
X109388937Y-102210226D01*
X109244774Y-102066063D01*
X109075256Y-101952795D01*
X108886898Y-101874774D01*
X108686939Y-101835000D01*
X108483061Y-101835000D01*
X108283102Y-101874774D01*
X108094744Y-101952795D01*
X107925226Y-102066063D01*
X107781063Y-102210226D01*
X107667795Y-102379744D01*
X107589774Y-102568102D01*
X107550000Y-102768061D01*
X66167000Y-102768061D01*
X66167000Y-100228061D01*
X88500000Y-100228061D01*
X88500000Y-100431939D01*
X88539774Y-100631898D01*
X88617795Y-100820256D01*
X88731063Y-100989774D01*
X88875226Y-101133937D01*
X89044744Y-101247205D01*
X89233102Y-101325226D01*
X89433061Y-101365000D01*
X89636939Y-101365000D01*
X89836898Y-101325226D01*
X90025256Y-101247205D01*
X90194774Y-101133937D01*
X90338937Y-100989774D01*
X90452205Y-100820256D01*
X90530226Y-100631898D01*
X90570000Y-100431939D01*
X90570000Y-100228061D01*
X112757000Y-100228061D01*
X112757000Y-100431939D01*
X112796774Y-100631898D01*
X112874795Y-100820256D01*
X112988063Y-100989774D01*
X113132226Y-101133937D01*
X113301744Y-101247205D01*
X113490102Y-101325226D01*
X113690061Y-101365000D01*
X113893939Y-101365000D01*
X114093898Y-101325226D01*
X114282256Y-101247205D01*
X114451774Y-101133937D01*
X114595937Y-100989774D01*
X114680603Y-100863061D01*
X118980000Y-100863061D01*
X118980000Y-101066939D01*
X119019774Y-101266898D01*
X119097795Y-101455256D01*
X119211063Y-101624774D01*
X119355226Y-101768937D01*
X119524744Y-101882205D01*
X119713102Y-101960226D01*
X119913061Y-102000000D01*
X120116939Y-102000000D01*
X120316898Y-101960226D01*
X120505256Y-101882205D01*
X120674774Y-101768937D01*
X120818937Y-101624774D01*
X120932205Y-101455256D01*
X121010226Y-101266898D01*
X121050000Y-101066939D01*
X121050000Y-100863061D01*
X121520000Y-100863061D01*
X121520000Y-101066939D01*
X121559774Y-101266898D01*
X121637795Y-101455256D01*
X121751063Y-101624774D01*
X121895226Y-101768937D01*
X122064744Y-101882205D01*
X122253102Y-101960226D01*
X122453061Y-102000000D01*
X122656939Y-102000000D01*
X122856898Y-101960226D01*
X123045256Y-101882205D01*
X123214774Y-101768937D01*
X123358937Y-101624774D01*
X123472205Y-101455256D01*
X123550226Y-101266898D01*
X123590000Y-101066939D01*
X123590000Y-100863061D01*
X127870000Y-100863061D01*
X127870000Y-101066939D01*
X127909774Y-101266898D01*
X127987795Y-101455256D01*
X128101063Y-101624774D01*
X128245226Y-101768937D01*
X128414744Y-101882205D01*
X128603102Y-101960226D01*
X128803061Y-102000000D01*
X129006939Y-102000000D01*
X129206898Y-101960226D01*
X129395256Y-101882205D01*
X129564774Y-101768937D01*
X129708937Y-101624774D01*
X129822205Y-101455256D01*
X129900226Y-101266898D01*
X129940000Y-101066939D01*
X129940000Y-100863061D01*
X129900226Y-100663102D01*
X129822205Y-100474744D01*
X129708937Y-100305226D01*
X129564774Y-100161063D01*
X129395256Y-100047795D01*
X129206898Y-99969774D01*
X129006939Y-99930000D01*
X128803061Y-99930000D01*
X128603102Y-99969774D01*
X128414744Y-100047795D01*
X128245226Y-100161063D01*
X128101063Y-100305226D01*
X127987795Y-100474744D01*
X127909774Y-100663102D01*
X127870000Y-100863061D01*
X123590000Y-100863061D01*
X123550226Y-100663102D01*
X123472205Y-100474744D01*
X123358937Y-100305226D01*
X123214774Y-100161063D01*
X123045256Y-100047795D01*
X122856898Y-99969774D01*
X122656939Y-99930000D01*
X122453061Y-99930000D01*
X122253102Y-99969774D01*
X122064744Y-100047795D01*
X121895226Y-100161063D01*
X121751063Y-100305226D01*
X121637795Y-100474744D01*
X121559774Y-100663102D01*
X121520000Y-100863061D01*
X121050000Y-100863061D01*
X121010226Y-100663102D01*
X120932205Y-100474744D01*
X120818937Y-100305226D01*
X120674774Y-100161063D01*
X120505256Y-100047795D01*
X120316898Y-99969774D01*
X120116939Y-99930000D01*
X119913061Y-99930000D01*
X119713102Y-99969774D01*
X119524744Y-100047795D01*
X119355226Y-100161063D01*
X119211063Y-100305226D01*
X119097795Y-100474744D01*
X119019774Y-100663102D01*
X118980000Y-100863061D01*
X114680603Y-100863061D01*
X114709205Y-100820256D01*
X114787226Y-100631898D01*
X114827000Y-100431939D01*
X114827000Y-100228061D01*
X114787226Y-100028102D01*
X114709205Y-99839744D01*
X114595937Y-99670226D01*
X114451774Y-99526063D01*
X114282256Y-99412795D01*
X114093898Y-99334774D01*
X113893939Y-99295000D01*
X113690061Y-99295000D01*
X113490102Y-99334774D01*
X113301744Y-99412795D01*
X113132226Y-99526063D01*
X112988063Y-99670226D01*
X112874795Y-99839744D01*
X112796774Y-100028102D01*
X112757000Y-100228061D01*
X90570000Y-100228061D01*
X90530226Y-100028102D01*
X90452205Y-99839744D01*
X90338937Y-99670226D01*
X90194774Y-99526063D01*
X90095903Y-99460000D01*
X90271939Y-99460000D01*
X90471898Y-99420226D01*
X90660256Y-99342205D01*
X90829774Y-99228937D01*
X90973937Y-99084774D01*
X91087205Y-98915256D01*
X91165226Y-98726898D01*
X91205000Y-98526939D01*
X91205000Y-98323061D01*
X91165226Y-98123102D01*
X91090236Y-97942061D01*
X98406000Y-97942061D01*
X98406000Y-98145939D01*
X98445774Y-98345898D01*
X98523795Y-98534256D01*
X98637063Y-98703774D01*
X98781226Y-98847937D01*
X98950744Y-98961205D01*
X99139102Y-99039226D01*
X99339061Y-99079000D01*
X99542939Y-99079000D01*
X99742898Y-99039226D01*
X99931256Y-98961205D01*
X100100774Y-98847937D01*
X100244937Y-98703774D01*
X100329603Y-98577061D01*
X100946000Y-98577061D01*
X100946000Y-98780939D01*
X100985774Y-98980898D01*
X101063795Y-99169256D01*
X101177063Y-99338774D01*
X101321226Y-99482937D01*
X101490744Y-99596205D01*
X101679102Y-99674226D01*
X101879061Y-99714000D01*
X102082939Y-99714000D01*
X102282898Y-99674226D01*
X102471256Y-99596205D01*
X102640774Y-99482937D01*
X102784937Y-99338774D01*
X102898205Y-99169256D01*
X102976226Y-98980898D01*
X103016000Y-98780939D01*
X103016000Y-98577061D01*
X102976226Y-98377102D01*
X102898205Y-98188744D01*
X102784937Y-98019226D01*
X102640774Y-97875063D01*
X102471256Y-97761795D01*
X102282898Y-97683774D01*
X102082939Y-97644000D01*
X101879061Y-97644000D01*
X101679102Y-97683774D01*
X101490744Y-97761795D01*
X101321226Y-97875063D01*
X101177063Y-98019226D01*
X101063795Y-98188744D01*
X100985774Y-98377102D01*
X100946000Y-98577061D01*
X100329603Y-98577061D01*
X100358205Y-98534256D01*
X100436226Y-98345898D01*
X100476000Y-98145939D01*
X100476000Y-97942061D01*
X100436226Y-97742102D01*
X100358205Y-97553744D01*
X100244937Y-97384226D01*
X100100774Y-97240063D01*
X99931256Y-97126795D01*
X99742898Y-97048774D01*
X99542939Y-97009000D01*
X99339061Y-97009000D01*
X99139102Y-97048774D01*
X98950744Y-97126795D01*
X98781226Y-97240063D01*
X98637063Y-97384226D01*
X98523795Y-97553744D01*
X98445774Y-97742102D01*
X98406000Y-97942061D01*
X91090236Y-97942061D01*
X91087205Y-97934744D01*
X90973937Y-97765226D01*
X90829774Y-97621063D01*
X90660256Y-97507795D01*
X90471898Y-97429774D01*
X90271939Y-97390000D01*
X90068061Y-97390000D01*
X89868102Y-97429774D01*
X89679744Y-97507795D01*
X89510226Y-97621063D01*
X89366063Y-97765226D01*
X89252795Y-97934744D01*
X89174774Y-98123102D01*
X89135000Y-98323061D01*
X89135000Y-98526939D01*
X89174774Y-98726898D01*
X89252795Y-98915256D01*
X89366063Y-99084774D01*
X89510226Y-99228937D01*
X89609097Y-99295000D01*
X89433061Y-99295000D01*
X89233102Y-99334774D01*
X89044744Y-99412795D01*
X88875226Y-99526063D01*
X88731063Y-99670226D01*
X88617795Y-99839744D01*
X88539774Y-100028102D01*
X88500000Y-100228061D01*
X66167000Y-100228061D01*
X66167000Y-97453061D01*
X70085000Y-97453061D01*
X70085000Y-97656939D01*
X70124774Y-97856898D01*
X70202795Y-98045256D01*
X70316063Y-98214774D01*
X70460226Y-98358937D01*
X70629744Y-98472205D01*
X70818102Y-98550226D01*
X71018061Y-98590000D01*
X71221939Y-98590000D01*
X71421898Y-98550226D01*
X71610256Y-98472205D01*
X71779774Y-98358937D01*
X71923937Y-98214774D01*
X72037205Y-98045256D01*
X72072500Y-97960047D01*
X72107795Y-98045256D01*
X72221063Y-98214774D01*
X72365226Y-98358937D01*
X72534744Y-98472205D01*
X72723102Y-98550226D01*
X72923061Y-98590000D01*
X73126939Y-98590000D01*
X73326898Y-98550226D01*
X73515256Y-98472205D01*
X73684774Y-98358937D01*
X73828937Y-98214774D01*
X73942205Y-98045256D01*
X73977500Y-97960047D01*
X74012795Y-98045256D01*
X74126063Y-98214774D01*
X74270226Y-98358937D01*
X74439744Y-98472205D01*
X74628102Y-98550226D01*
X74828061Y-98590000D01*
X75031939Y-98590000D01*
X75231898Y-98550226D01*
X75420256Y-98472205D01*
X75589774Y-98358937D01*
X75733937Y-98214774D01*
X75847205Y-98045256D01*
X75925226Y-97856898D01*
X75965000Y-97656939D01*
X75965000Y-97453061D01*
X75925226Y-97253102D01*
X75847205Y-97064744D01*
X75733937Y-96895226D01*
X75589774Y-96751063D01*
X75420256Y-96637795D01*
X75231898Y-96559774D01*
X75031939Y-96520000D01*
X74828061Y-96520000D01*
X74628102Y-96559774D01*
X74439744Y-96637795D01*
X74270226Y-96751063D01*
X74126063Y-96895226D01*
X74012795Y-97064744D01*
X73977500Y-97149953D01*
X73942205Y-97064744D01*
X73828937Y-96895226D01*
X73684774Y-96751063D01*
X73515256Y-96637795D01*
X73326898Y-96559774D01*
X73126939Y-96520000D01*
X72923061Y-96520000D01*
X72723102Y-96559774D01*
X72534744Y-96637795D01*
X72365226Y-96751063D01*
X72221063Y-96895226D01*
X72107795Y-97064744D01*
X72072500Y-97149953D01*
X72037205Y-97064744D01*
X71923937Y-96895226D01*
X71779774Y-96751063D01*
X71610256Y-96637795D01*
X71421898Y-96559774D01*
X71221939Y-96520000D01*
X71018061Y-96520000D01*
X70818102Y-96559774D01*
X70629744Y-96637795D01*
X70460226Y-96751063D01*
X70316063Y-96895226D01*
X70202795Y-97064744D01*
X70124774Y-97253102D01*
X70085000Y-97453061D01*
X66167000Y-97453061D01*
X66167000Y-93878061D01*
X87865000Y-93878061D01*
X87865000Y-94081939D01*
X87904774Y-94281898D01*
X87982795Y-94470256D01*
X88096063Y-94639774D01*
X88240226Y-94783937D01*
X88409744Y-94897205D01*
X88494953Y-94932500D01*
X88409744Y-94967795D01*
X88240226Y-95081063D01*
X88096063Y-95225226D01*
X87982795Y-95394744D01*
X87904774Y-95583102D01*
X87865000Y-95783061D01*
X87865000Y-95986939D01*
X87904774Y-96186898D01*
X87982795Y-96375256D01*
X88096063Y-96544774D01*
X88240226Y-96688937D01*
X88409744Y-96802205D01*
X88598102Y-96880226D01*
X88798061Y-96920000D01*
X89001939Y-96920000D01*
X89201898Y-96880226D01*
X89390256Y-96802205D01*
X89559774Y-96688937D01*
X89703937Y-96544774D01*
X89817205Y-96375256D01*
X89895226Y-96186898D01*
X89935000Y-95986939D01*
X89935000Y-95783061D01*
X89895226Y-95583102D01*
X89817205Y-95394744D01*
X89703937Y-95225226D01*
X89559774Y-95081063D01*
X89390256Y-94967795D01*
X89305047Y-94932500D01*
X89390256Y-94897205D01*
X89559774Y-94783937D01*
X89703937Y-94639774D01*
X89817205Y-94470256D01*
X89895226Y-94281898D01*
X89935000Y-94081939D01*
X89935000Y-93878061D01*
X89895226Y-93678102D01*
X89817205Y-93489744D01*
X89703937Y-93320226D01*
X89559774Y-93176063D01*
X89390256Y-93062795D01*
X89201898Y-92984774D01*
X89001939Y-92945000D01*
X88798061Y-92945000D01*
X88598102Y-92984774D01*
X88409744Y-93062795D01*
X88240226Y-93176063D01*
X88096063Y-93320226D01*
X87982795Y-93489744D01*
X87904774Y-93678102D01*
X87865000Y-93878061D01*
X66167000Y-93878061D01*
X66167000Y-92040561D01*
X74462500Y-92040561D01*
X74462500Y-92244439D01*
X74502274Y-92444398D01*
X74580295Y-92632756D01*
X74693563Y-92802274D01*
X74837726Y-92946437D01*
X75007244Y-93059705D01*
X75195602Y-93137726D01*
X75395561Y-93177500D01*
X75599439Y-93177500D01*
X75799398Y-93137726D01*
X75987756Y-93059705D01*
X76157274Y-92946437D01*
X76301437Y-92802274D01*
X76414705Y-92632756D01*
X76492726Y-92444398D01*
X76532500Y-92244439D01*
X76532500Y-92040561D01*
X76492726Y-91840602D01*
X76414705Y-91652244D01*
X76301437Y-91482726D01*
X76157274Y-91338563D01*
X75987756Y-91225295D01*
X75799398Y-91147274D01*
X75599439Y-91107500D01*
X75395561Y-91107500D01*
X75195602Y-91147274D01*
X75007244Y-91225295D01*
X74837726Y-91338563D01*
X74693563Y-91482726D01*
X74580295Y-91652244D01*
X74502274Y-91840602D01*
X74462500Y-92040561D01*
X66167000Y-92040561D01*
X66167000Y-89052061D01*
X77832000Y-89052061D01*
X77832000Y-89255939D01*
X77871774Y-89455898D01*
X77949795Y-89644256D01*
X78004080Y-89725500D01*
X77949795Y-89806744D01*
X77871774Y-89995102D01*
X77832000Y-90195061D01*
X77832000Y-90398939D01*
X77871774Y-90598898D01*
X77949795Y-90787256D01*
X78063063Y-90956774D01*
X78207226Y-91100937D01*
X78376744Y-91214205D01*
X78565102Y-91292226D01*
X78765061Y-91332000D01*
X78859319Y-91332000D01*
X78955753Y-91383546D01*
X79099014Y-91427003D01*
X79210667Y-91438000D01*
X79210676Y-91438000D01*
X79247999Y-91441676D01*
X79285322Y-91438000D01*
X81973287Y-91438000D01*
X82017224Y-91481937D01*
X82186742Y-91595205D01*
X82375100Y-91673226D01*
X82575059Y-91713000D01*
X82778937Y-91713000D01*
X82978896Y-91673226D01*
X83167254Y-91595205D01*
X83336772Y-91481937D01*
X83480935Y-91337774D01*
X83594203Y-91168256D01*
X83672224Y-90979898D01*
X83691910Y-90880931D01*
X83738012Y-90880931D01*
X83937971Y-90841157D01*
X84126329Y-90763136D01*
X84216237Y-90703061D01*
X98533000Y-90703061D01*
X98533000Y-90906939D01*
X98572774Y-91106898D01*
X98650795Y-91295256D01*
X98764063Y-91464774D01*
X98908226Y-91608937D01*
X99077744Y-91722205D01*
X99162953Y-91757500D01*
X99077744Y-91792795D01*
X98908226Y-91906063D01*
X98764063Y-92050226D01*
X98650795Y-92219744D01*
X98572774Y-92408102D01*
X98533000Y-92608061D01*
X98533000Y-92811939D01*
X98572774Y-93011898D01*
X98650795Y-93200256D01*
X98764063Y-93369774D01*
X98908226Y-93513937D01*
X99077744Y-93627205D01*
X99162953Y-93662500D01*
X99077744Y-93697795D01*
X98908226Y-93811063D01*
X98764063Y-93955226D01*
X98650795Y-94124744D01*
X98572774Y-94313102D01*
X98533000Y-94513061D01*
X98533000Y-94716939D01*
X98572774Y-94916898D01*
X98650795Y-95105256D01*
X98764063Y-95274774D01*
X98908226Y-95418937D01*
X99077744Y-95532205D01*
X99266102Y-95610226D01*
X99466061Y-95650000D01*
X99669939Y-95650000D01*
X99869898Y-95610226D01*
X100058256Y-95532205D01*
X100227774Y-95418937D01*
X100371937Y-95274774D01*
X100456603Y-95148061D01*
X100565000Y-95148061D01*
X100565000Y-95351939D01*
X100604774Y-95551898D01*
X100682795Y-95740256D01*
X100796063Y-95909774D01*
X100940226Y-96053937D01*
X101109744Y-96167205D01*
X101298102Y-96245226D01*
X101498061Y-96285000D01*
X101701939Y-96285000D01*
X101901898Y-96245226D01*
X102090256Y-96167205D01*
X102259774Y-96053937D01*
X102403937Y-95909774D01*
X102517205Y-95740256D01*
X102595226Y-95551898D01*
X102635000Y-95351939D01*
X102635000Y-95148061D01*
X102595226Y-94948102D01*
X102517205Y-94759744D01*
X102403937Y-94590226D01*
X102259774Y-94446063D01*
X102090256Y-94332795D01*
X101901898Y-94254774D01*
X101701939Y-94215000D01*
X101498061Y-94215000D01*
X101298102Y-94254774D01*
X101109744Y-94332795D01*
X100940226Y-94446063D01*
X100796063Y-94590226D01*
X100682795Y-94759744D01*
X100604774Y-94948102D01*
X100565000Y-95148061D01*
X100456603Y-95148061D01*
X100485205Y-95105256D01*
X100563226Y-94916898D01*
X100603000Y-94716939D01*
X100603000Y-94513061D01*
X100563226Y-94313102D01*
X100485205Y-94124744D01*
X100371937Y-93955226D01*
X100227774Y-93811063D01*
X100058256Y-93697795D01*
X99973047Y-93662500D01*
X100058256Y-93627205D01*
X100227774Y-93513937D01*
X100371937Y-93369774D01*
X100485205Y-93200256D01*
X100563226Y-93011898D01*
X100603000Y-92811939D01*
X100603000Y-92608061D01*
X100563226Y-92408102D01*
X100485205Y-92219744D01*
X100371937Y-92050226D01*
X100227774Y-91906063D01*
X100058256Y-91792795D01*
X99973047Y-91757500D01*
X100058256Y-91722205D01*
X100227774Y-91608937D01*
X100371937Y-91464774D01*
X100476650Y-91308059D01*
X106280000Y-91308059D01*
X106280000Y-91511937D01*
X106319774Y-91711896D01*
X106397795Y-91900254D01*
X106505001Y-92060699D01*
X106505000Y-95547301D01*
X106397795Y-95707745D01*
X106319774Y-95896103D01*
X106280000Y-96096062D01*
X106280000Y-96299940D01*
X106319774Y-96499899D01*
X106397795Y-96688257D01*
X106511063Y-96857775D01*
X106655226Y-97001938D01*
X106824744Y-97115206D01*
X107013102Y-97193227D01*
X107213061Y-97233001D01*
X107416939Y-97233001D01*
X107616898Y-97193227D01*
X107805256Y-97115206D01*
X107974774Y-97001938D01*
X108079000Y-96897712D01*
X108079000Y-98356289D01*
X108035063Y-98400226D01*
X107921795Y-98569744D01*
X107843774Y-98758102D01*
X107804000Y-98958061D01*
X107804000Y-99161939D01*
X107843774Y-99361898D01*
X107921795Y-99550256D01*
X108035063Y-99719774D01*
X108179226Y-99863937D01*
X108348744Y-99977205D01*
X108537102Y-100055226D01*
X108737061Y-100095000D01*
X108940939Y-100095000D01*
X109140898Y-100055226D01*
X109329256Y-99977205D01*
X109498774Y-99863937D01*
X109642937Y-99719774D01*
X109756205Y-99550256D01*
X109834226Y-99361898D01*
X109874000Y-99161939D01*
X109874000Y-98958061D01*
X109834226Y-98758102D01*
X109756205Y-98569744D01*
X109642937Y-98400226D01*
X109599000Y-98356289D01*
X109599000Y-94386061D01*
X115297000Y-94386061D01*
X115297000Y-94589939D01*
X115336774Y-94789898D01*
X115414795Y-94978256D01*
X115528063Y-95147774D01*
X115672226Y-95291937D01*
X115841744Y-95405205D01*
X116030102Y-95483226D01*
X116230061Y-95523000D01*
X116433939Y-95523000D01*
X116633898Y-95483226D01*
X116822256Y-95405205D01*
X116991774Y-95291937D01*
X117135937Y-95147774D01*
X117249205Y-94978256D01*
X117327226Y-94789898D01*
X117367000Y-94589939D01*
X117367000Y-94386061D01*
X117327226Y-94186102D01*
X117249205Y-93997744D01*
X117135937Y-93828226D01*
X116991774Y-93684063D01*
X116822256Y-93570795D01*
X116633898Y-93492774D01*
X116433939Y-93453000D01*
X116230061Y-93453000D01*
X116030102Y-93492774D01*
X115841744Y-93570795D01*
X115672226Y-93684063D01*
X115528063Y-93828226D01*
X115414795Y-93997744D01*
X115336774Y-94186102D01*
X115297000Y-94386061D01*
X109599000Y-94386061D01*
X109599000Y-94181322D01*
X109602676Y-94143999D01*
X109599000Y-94106676D01*
X109599000Y-94106667D01*
X109588003Y-93995014D01*
X109544546Y-93851753D01*
X109473974Y-93719724D01*
X109379001Y-93603999D01*
X109366000Y-93593329D01*
X109366000Y-93534061D01*
X109326226Y-93334102D01*
X109248205Y-93145744D01*
X109134937Y-92976226D01*
X108990774Y-92832063D01*
X108821256Y-92718795D01*
X108632898Y-92640774D01*
X108432939Y-92601000D01*
X108229061Y-92601000D01*
X108125000Y-92621699D01*
X108125000Y-92060698D01*
X108232205Y-91900254D01*
X108310226Y-91711896D01*
X108334062Y-91592061D01*
X114281000Y-91592061D01*
X114281000Y-91795939D01*
X114320774Y-91995898D01*
X114398795Y-92184256D01*
X114512063Y-92353774D01*
X114656226Y-92497937D01*
X114825744Y-92611205D01*
X115014102Y-92689226D01*
X115214061Y-92729000D01*
X115417939Y-92729000D01*
X115617898Y-92689226D01*
X115806256Y-92611205D01*
X115975774Y-92497937D01*
X116119937Y-92353774D01*
X116233205Y-92184256D01*
X116311226Y-91995898D01*
X116351000Y-91795939D01*
X116351000Y-91592061D01*
X116324732Y-91460000D01*
X122571928Y-91460000D01*
X122571928Y-93960000D01*
X122584188Y-94084482D01*
X122620498Y-94204180D01*
X122679463Y-94314494D01*
X122758815Y-94411185D01*
X122855506Y-94490537D01*
X122965820Y-94549502D01*
X123085518Y-94585812D01*
X123210000Y-94598072D01*
X125710000Y-94598072D01*
X125834482Y-94585812D01*
X125954180Y-94549502D01*
X126064494Y-94490537D01*
X126161185Y-94411185D01*
X126240537Y-94314494D01*
X126299502Y-94204180D01*
X126335812Y-94084482D01*
X126348072Y-93960000D01*
X126348072Y-91460000D01*
X126335812Y-91335518D01*
X126299502Y-91215820D01*
X126240537Y-91105506D01*
X126161185Y-91008815D01*
X126064494Y-90929463D01*
X125954180Y-90870498D01*
X125834482Y-90834188D01*
X125710000Y-90821928D01*
X123210000Y-90821928D01*
X123085518Y-90834188D01*
X122965820Y-90870498D01*
X122855506Y-90929463D01*
X122758815Y-91008815D01*
X122679463Y-91105506D01*
X122620498Y-91215820D01*
X122584188Y-91335518D01*
X122571928Y-91460000D01*
X116324732Y-91460000D01*
X116311226Y-91392102D01*
X116233205Y-91203744D01*
X116119937Y-91034226D01*
X115975774Y-90890063D01*
X115806256Y-90776795D01*
X115617898Y-90698774D01*
X115417939Y-90659000D01*
X115214061Y-90659000D01*
X115014102Y-90698774D01*
X114825744Y-90776795D01*
X114656226Y-90890063D01*
X114512063Y-91034226D01*
X114398795Y-91203744D01*
X114320774Y-91392102D01*
X114281000Y-91592061D01*
X108334062Y-91592061D01*
X108350000Y-91511937D01*
X108350000Y-91308059D01*
X108310226Y-91108100D01*
X108232205Y-90919742D01*
X108118937Y-90750224D01*
X107974774Y-90606061D01*
X107805256Y-90492793D01*
X107616898Y-90414772D01*
X107416939Y-90374998D01*
X107213061Y-90374998D01*
X107013102Y-90414772D01*
X106824744Y-90492793D01*
X106655226Y-90606061D01*
X106511063Y-90750224D01*
X106397795Y-90919742D01*
X106319774Y-91108100D01*
X106280000Y-91308059D01*
X100476650Y-91308059D01*
X100485205Y-91295256D01*
X100563226Y-91106898D01*
X100603000Y-90906939D01*
X100603000Y-90703061D01*
X100563226Y-90503102D01*
X100485205Y-90314744D01*
X100371937Y-90145226D01*
X100227774Y-90001063D01*
X100058256Y-89887795D01*
X99869898Y-89809774D01*
X99669939Y-89770000D01*
X99466061Y-89770000D01*
X99266102Y-89809774D01*
X99077744Y-89887795D01*
X98908226Y-90001063D01*
X98764063Y-90145226D01*
X98650795Y-90314744D01*
X98572774Y-90503102D01*
X98533000Y-90703061D01*
X84216237Y-90703061D01*
X84295847Y-90649868D01*
X84440010Y-90505705D01*
X84553278Y-90336187D01*
X84631299Y-90147829D01*
X84671073Y-89947870D01*
X84671073Y-89743992D01*
X84631299Y-89544033D01*
X84553278Y-89355675D01*
X84440010Y-89186157D01*
X84295847Y-89041994D01*
X84126329Y-88928726D01*
X83937971Y-88850705D01*
X83738012Y-88810931D01*
X83534134Y-88810931D01*
X83334175Y-88850705D01*
X83145817Y-88928726D01*
X82976299Y-89041994D01*
X82932362Y-89085931D01*
X79902000Y-89085931D01*
X79902000Y-89052061D01*
X79862226Y-88852102D01*
X79784205Y-88663744D01*
X79670937Y-88494226D01*
X79526774Y-88350063D01*
X79357256Y-88236795D01*
X79168898Y-88158774D01*
X78968939Y-88119000D01*
X78765061Y-88119000D01*
X78565102Y-88158774D01*
X78376744Y-88236795D01*
X78207226Y-88350063D01*
X78063063Y-88494226D01*
X77949795Y-88663744D01*
X77871774Y-88852102D01*
X77832000Y-89052061D01*
X66167000Y-89052061D01*
X66167000Y-87528061D01*
X90913000Y-87528061D01*
X90913000Y-87731939D01*
X90952774Y-87931898D01*
X91030795Y-88120256D01*
X91144063Y-88289774D01*
X91288226Y-88433937D01*
X91457744Y-88547205D01*
X91646102Y-88625226D01*
X91846061Y-88665000D01*
X92049939Y-88665000D01*
X92249898Y-88625226D01*
X92438256Y-88547205D01*
X92607774Y-88433937D01*
X92751937Y-88289774D01*
X92865205Y-88120256D01*
X92943226Y-87931898D01*
X92983000Y-87731939D01*
X92983000Y-87528061D01*
X92943226Y-87328102D01*
X92865205Y-87139744D01*
X92751937Y-86970226D01*
X92607774Y-86826063D01*
X92438256Y-86712795D01*
X92249898Y-86634774D01*
X92049939Y-86595000D01*
X91846061Y-86595000D01*
X91646102Y-86634774D01*
X91457744Y-86712795D01*
X91288226Y-86826063D01*
X91144063Y-86970226D01*
X91030795Y-87139744D01*
X90952774Y-87328102D01*
X90913000Y-87528061D01*
X66167000Y-87528061D01*
X66167000Y-86258061D01*
X101200000Y-86258061D01*
X101200000Y-86461939D01*
X101239774Y-86661898D01*
X101317795Y-86850256D01*
X101431063Y-87019774D01*
X101575226Y-87163937D01*
X101744744Y-87277205D01*
X101933102Y-87355226D01*
X102133061Y-87395000D01*
X102336939Y-87395000D01*
X102536898Y-87355226D01*
X102725256Y-87277205D01*
X102894774Y-87163937D01*
X103038937Y-87019774D01*
X103152205Y-86850256D01*
X103230226Y-86661898D01*
X103270000Y-86461939D01*
X103270000Y-86258061D01*
X103230226Y-86058102D01*
X103152205Y-85869744D01*
X103038937Y-85700226D01*
X102894774Y-85556063D01*
X102725256Y-85442795D01*
X102536898Y-85364774D01*
X102336939Y-85325000D01*
X102133061Y-85325000D01*
X101933102Y-85364774D01*
X101744744Y-85442795D01*
X101575226Y-85556063D01*
X101431063Y-85700226D01*
X101317795Y-85869744D01*
X101239774Y-86058102D01*
X101200000Y-86258061D01*
X66167000Y-86258061D01*
X66167000Y-82448061D01*
X91040000Y-82448061D01*
X91040000Y-82651939D01*
X91079774Y-82851898D01*
X91157795Y-83040256D01*
X91271063Y-83209774D01*
X91415226Y-83353937D01*
X91584744Y-83467205D01*
X91773102Y-83545226D01*
X91973061Y-83585000D01*
X92176939Y-83585000D01*
X92376898Y-83545226D01*
X92565256Y-83467205D01*
X92734774Y-83353937D01*
X92878937Y-83209774D01*
X92992205Y-83040256D01*
X93070226Y-82851898D01*
X93110000Y-82651939D01*
X93110000Y-82448061D01*
X93070226Y-82248102D01*
X92992205Y-82059744D01*
X92878937Y-81890226D01*
X92734774Y-81746063D01*
X92565256Y-81632795D01*
X92376898Y-81554774D01*
X92176939Y-81515000D01*
X91973061Y-81515000D01*
X91773102Y-81554774D01*
X91584744Y-81632795D01*
X91415226Y-81746063D01*
X91271063Y-81890226D01*
X91157795Y-82059744D01*
X91079774Y-82248102D01*
X91040000Y-82448061D01*
X66167000Y-82448061D01*
X66167000Y-81178061D01*
X92945000Y-81178061D01*
X92945000Y-81381939D01*
X92984774Y-81581898D01*
X93062795Y-81770256D01*
X93176063Y-81939774D01*
X93320226Y-82083937D01*
X93489744Y-82197205D01*
X93678102Y-82275226D01*
X93878061Y-82315000D01*
X94081939Y-82315000D01*
X94281898Y-82275226D01*
X94470256Y-82197205D01*
X94639774Y-82083937D01*
X94783937Y-81939774D01*
X94897205Y-81770256D01*
X94932079Y-81686061D01*
X103613000Y-81686061D01*
X103613000Y-81889939D01*
X103652774Y-82089898D01*
X103730795Y-82278256D01*
X103844063Y-82447774D01*
X103988226Y-82591937D01*
X104157744Y-82705205D01*
X104346102Y-82783226D01*
X104546061Y-82823000D01*
X104746275Y-82823000D01*
X104668774Y-83010102D01*
X104629000Y-83210061D01*
X104629000Y-83413939D01*
X104668774Y-83613898D01*
X104746795Y-83802256D01*
X104860063Y-83971774D01*
X105004226Y-84115937D01*
X105173744Y-84229205D01*
X105362102Y-84307226D01*
X105562061Y-84347000D01*
X105765939Y-84347000D01*
X105965898Y-84307226D01*
X106154256Y-84229205D01*
X106323774Y-84115937D01*
X106467937Y-83971774D01*
X106555985Y-83840000D01*
X111776928Y-83840000D01*
X111776928Y-86340000D01*
X111789188Y-86464482D01*
X111825498Y-86584180D01*
X111884463Y-86694494D01*
X111963815Y-86791185D01*
X112060506Y-86870537D01*
X112170820Y-86929502D01*
X112290518Y-86965812D01*
X112415000Y-86978072D01*
X114915000Y-86978072D01*
X115039482Y-86965812D01*
X115159180Y-86929502D01*
X115269494Y-86870537D01*
X115366185Y-86791185D01*
X115445537Y-86694494D01*
X115504502Y-86584180D01*
X115540812Y-86464482D01*
X115553072Y-86340000D01*
X115553072Y-83840000D01*
X115540812Y-83715518D01*
X115504502Y-83595820D01*
X115445537Y-83485506D01*
X115366185Y-83388815D01*
X115269494Y-83309463D01*
X115159180Y-83250498D01*
X115039482Y-83214188D01*
X114915000Y-83201928D01*
X112415000Y-83201928D01*
X112290518Y-83214188D01*
X112170820Y-83250498D01*
X112060506Y-83309463D01*
X111963815Y-83388815D01*
X111884463Y-83485506D01*
X111825498Y-83595820D01*
X111789188Y-83715518D01*
X111776928Y-83840000D01*
X106555985Y-83840000D01*
X106581205Y-83802256D01*
X106659226Y-83613898D01*
X106699000Y-83413939D01*
X106699000Y-83210061D01*
X106659226Y-83010102D01*
X106581205Y-82821744D01*
X106467937Y-82652226D01*
X106323774Y-82508063D01*
X106233975Y-82448061D01*
X109455000Y-82448061D01*
X109455000Y-82651939D01*
X109494774Y-82851898D01*
X109572795Y-83040256D01*
X109686063Y-83209774D01*
X109830226Y-83353937D01*
X109999744Y-83467205D01*
X110188102Y-83545226D01*
X110388061Y-83585000D01*
X110591939Y-83585000D01*
X110791898Y-83545226D01*
X110980256Y-83467205D01*
X111149774Y-83353937D01*
X111293937Y-83209774D01*
X111407205Y-83040256D01*
X111485226Y-82851898D01*
X111525000Y-82651939D01*
X111525000Y-82448061D01*
X111485226Y-82248102D01*
X111407205Y-82059744D01*
X111293937Y-81890226D01*
X111149774Y-81746063D01*
X110980256Y-81632795D01*
X110791898Y-81554774D01*
X110591939Y-81515000D01*
X110388061Y-81515000D01*
X110188102Y-81554774D01*
X109999744Y-81632795D01*
X109830226Y-81746063D01*
X109686063Y-81890226D01*
X109572795Y-82059744D01*
X109494774Y-82248102D01*
X109455000Y-82448061D01*
X106233975Y-82448061D01*
X106154256Y-82394795D01*
X105965898Y-82316774D01*
X105765939Y-82277000D01*
X105565725Y-82277000D01*
X105643226Y-82089898D01*
X105683000Y-81889939D01*
X105683000Y-81686061D01*
X105643226Y-81486102D01*
X105565205Y-81297744D01*
X105451937Y-81128226D01*
X105307774Y-80984063D01*
X105138256Y-80870795D01*
X104949898Y-80792774D01*
X104749939Y-80753000D01*
X104546061Y-80753000D01*
X104346102Y-80792774D01*
X104157744Y-80870795D01*
X103988226Y-80984063D01*
X103844063Y-81128226D01*
X103730795Y-81297744D01*
X103652774Y-81486102D01*
X103613000Y-81686061D01*
X94932079Y-81686061D01*
X94975226Y-81581898D01*
X95015000Y-81381939D01*
X95015000Y-81178061D01*
X94975226Y-80978102D01*
X94897205Y-80789744D01*
X94783937Y-80620226D01*
X94639774Y-80476063D01*
X94470256Y-80362795D01*
X94281898Y-80284774D01*
X94081939Y-80245000D01*
X93878061Y-80245000D01*
X93678102Y-80284774D01*
X93489744Y-80362795D01*
X93320226Y-80476063D01*
X93176063Y-80620226D01*
X93062795Y-80789744D01*
X92984774Y-80978102D01*
X92945000Y-81178061D01*
X66167000Y-81178061D01*
X66167000Y-79711061D01*
X68180000Y-79711061D01*
X68180000Y-79914939D01*
X68219774Y-80114898D01*
X68297795Y-80303256D01*
X68411063Y-80472774D01*
X68555226Y-80616937D01*
X68724744Y-80730205D01*
X68913102Y-80808226D01*
X69113061Y-80848000D01*
X69316939Y-80848000D01*
X69516898Y-80808226D01*
X69705256Y-80730205D01*
X69874774Y-80616937D01*
X70018937Y-80472774D01*
X70132205Y-80303256D01*
X70210226Y-80114898D01*
X70250000Y-79914939D01*
X70250000Y-79711061D01*
X70210226Y-79511102D01*
X70132205Y-79322744D01*
X70018937Y-79153226D01*
X69874774Y-79009063D01*
X69705256Y-78895795D01*
X69516898Y-78817774D01*
X69316939Y-78778000D01*
X69113061Y-78778000D01*
X68913102Y-78817774D01*
X68724744Y-78895795D01*
X68555226Y-79009063D01*
X68411063Y-79153226D01*
X68297795Y-79322744D01*
X68219774Y-79511102D01*
X68180000Y-79711061D01*
X66167000Y-79711061D01*
X66167000Y-78638061D01*
X98660000Y-78638061D01*
X98660000Y-78841939D01*
X98699774Y-79041898D01*
X98777795Y-79230256D01*
X98891063Y-79399774D01*
X99035226Y-79543937D01*
X99204744Y-79657205D01*
X99393102Y-79735226D01*
X99593061Y-79775000D01*
X99796939Y-79775000D01*
X99996898Y-79735226D01*
X100185256Y-79657205D01*
X100354774Y-79543937D01*
X100498937Y-79399774D01*
X100612205Y-79230256D01*
X100690226Y-79041898D01*
X100730000Y-78841939D01*
X100730000Y-78638061D01*
X100690226Y-78438102D01*
X100612205Y-78249744D01*
X100498937Y-78080226D01*
X100354774Y-77936063D01*
X100185256Y-77822795D01*
X99996898Y-77744774D01*
X99796939Y-77705000D01*
X99593061Y-77705000D01*
X99393102Y-77744774D01*
X99204744Y-77822795D01*
X99035226Y-77936063D01*
X98891063Y-78080226D01*
X98777795Y-78249744D01*
X98699774Y-78438102D01*
X98660000Y-78638061D01*
X66167000Y-78638061D01*
X66167000Y-72218061D01*
X70085000Y-72218061D01*
X70085000Y-72421939D01*
X70124774Y-72621898D01*
X70202795Y-72810256D01*
X70316063Y-72979774D01*
X70460226Y-73123937D01*
X70629744Y-73237205D01*
X70818102Y-73315226D01*
X71018061Y-73355000D01*
X71221939Y-73355000D01*
X71421898Y-73315226D01*
X71610256Y-73237205D01*
X71779774Y-73123937D01*
X71923937Y-72979774D01*
X72037205Y-72810256D01*
X72072500Y-72725047D01*
X72107795Y-72810256D01*
X72221063Y-72979774D01*
X72365226Y-73123937D01*
X72534744Y-73237205D01*
X72723102Y-73315226D01*
X72923061Y-73355000D01*
X73126939Y-73355000D01*
X73326898Y-73315226D01*
X73515256Y-73237205D01*
X73684774Y-73123937D01*
X73828937Y-72979774D01*
X73942205Y-72810256D01*
X73977500Y-72725047D01*
X74012795Y-72810256D01*
X74126063Y-72979774D01*
X74270226Y-73123937D01*
X74439744Y-73237205D01*
X74628102Y-73315226D01*
X74828061Y-73355000D01*
X75031939Y-73355000D01*
X75231898Y-73315226D01*
X75420256Y-73237205D01*
X75589774Y-73123937D01*
X75733937Y-72979774D01*
X75771831Y-72923061D01*
X79483000Y-72923061D01*
X79483000Y-73126939D01*
X79522774Y-73326898D01*
X79600795Y-73515256D01*
X79714063Y-73684774D01*
X79858226Y-73828937D01*
X80027744Y-73942205D01*
X80216102Y-74020226D01*
X80266001Y-74030151D01*
X80266000Y-75877289D01*
X80222063Y-75921226D01*
X80108795Y-76090744D01*
X80030774Y-76279102D01*
X79991000Y-76479061D01*
X79991000Y-76682939D01*
X80030774Y-76882898D01*
X80108795Y-77071256D01*
X80222063Y-77240774D01*
X80366226Y-77384937D01*
X80535744Y-77498205D01*
X80724102Y-77576226D01*
X80924061Y-77616000D01*
X81127939Y-77616000D01*
X81327898Y-77576226D01*
X81516256Y-77498205D01*
X81685774Y-77384937D01*
X81702650Y-77368061D01*
X101835000Y-77368061D01*
X101835000Y-77571939D01*
X101874774Y-77771898D01*
X101952795Y-77960256D01*
X102066063Y-78129774D01*
X102210226Y-78273937D01*
X102379744Y-78387205D01*
X102568102Y-78465226D01*
X102768061Y-78505000D01*
X102971939Y-78505000D01*
X103171898Y-78465226D01*
X103360256Y-78387205D01*
X103529774Y-78273937D01*
X103673650Y-78130061D01*
X103994000Y-78130061D01*
X103994000Y-78333939D01*
X104033774Y-78533898D01*
X104111795Y-78722256D01*
X104225063Y-78891774D01*
X104369226Y-79035937D01*
X104538744Y-79149205D01*
X104727102Y-79227226D01*
X104927061Y-79267000D01*
X105130939Y-79267000D01*
X105330898Y-79227226D01*
X105519256Y-79149205D01*
X105688774Y-79035937D01*
X105832937Y-78891774D01*
X105946205Y-78722256D01*
X106024226Y-78533898D01*
X106064000Y-78333939D01*
X106064000Y-78157903D01*
X106130063Y-78256774D01*
X106274226Y-78400937D01*
X106443744Y-78514205D01*
X106632102Y-78592226D01*
X106832061Y-78632000D01*
X107035939Y-78632000D01*
X107235898Y-78592226D01*
X107424256Y-78514205D01*
X107593774Y-78400937D01*
X107737937Y-78256774D01*
X107851205Y-78087256D01*
X107929226Y-77898898D01*
X107969000Y-77698939D01*
X107969000Y-77495061D01*
X107929226Y-77295102D01*
X107851205Y-77106744D01*
X107737937Y-76937226D01*
X107593774Y-76793063D01*
X107424256Y-76679795D01*
X107235898Y-76601774D01*
X107035939Y-76562000D01*
X106832061Y-76562000D01*
X106632102Y-76601774D01*
X106443744Y-76679795D01*
X106274226Y-76793063D01*
X106130063Y-76937226D01*
X106016795Y-77106744D01*
X105938774Y-77295102D01*
X105899000Y-77495061D01*
X105899000Y-77671097D01*
X105832937Y-77572226D01*
X105688774Y-77428063D01*
X105519256Y-77314795D01*
X105330898Y-77236774D01*
X105130939Y-77197000D01*
X104927061Y-77197000D01*
X104727102Y-77236774D01*
X104538744Y-77314795D01*
X104369226Y-77428063D01*
X104225063Y-77572226D01*
X104111795Y-77741744D01*
X104033774Y-77930102D01*
X103994000Y-78130061D01*
X103673650Y-78130061D01*
X103673937Y-78129774D01*
X103787205Y-77960256D01*
X103865226Y-77771898D01*
X103905000Y-77571939D01*
X103905000Y-77368061D01*
X103865226Y-77168102D01*
X103787205Y-76979744D01*
X103673937Y-76810226D01*
X103529774Y-76666063D01*
X103360256Y-76552795D01*
X103171898Y-76474774D01*
X102971939Y-76435000D01*
X102768061Y-76435000D01*
X102568102Y-76474774D01*
X102379744Y-76552795D01*
X102210226Y-76666063D01*
X102066063Y-76810226D01*
X101952795Y-76979744D01*
X101874774Y-77168102D01*
X101835000Y-77368061D01*
X81702650Y-77368061D01*
X81829937Y-77240774D01*
X81943205Y-77071256D01*
X82021226Y-76882898D01*
X82053690Y-76719688D01*
X82216890Y-76687226D01*
X82405248Y-76609205D01*
X82574766Y-76495937D01*
X82718929Y-76351774D01*
X82832197Y-76182256D01*
X82910218Y-75993898D01*
X82949992Y-75793939D01*
X82949992Y-75590061D01*
X82910218Y-75390102D01*
X82832197Y-75201744D01*
X82718929Y-75032226D01*
X82674992Y-74988289D01*
X82674992Y-73304061D01*
X93707000Y-73304061D01*
X93707000Y-73507939D01*
X93746774Y-73707898D01*
X93824795Y-73896256D01*
X93938063Y-74065774D01*
X94082226Y-74209937D01*
X94251744Y-74323205D01*
X94440102Y-74401226D01*
X94640061Y-74441000D01*
X94843939Y-74441000D01*
X95043898Y-74401226D01*
X95232256Y-74323205D01*
X95401774Y-74209937D01*
X95545937Y-74065774D01*
X95659205Y-73896256D01*
X95694079Y-73812061D01*
X103994000Y-73812061D01*
X103994000Y-74015939D01*
X104033774Y-74215898D01*
X104111795Y-74404256D01*
X104225063Y-74573774D01*
X104369226Y-74717937D01*
X104538744Y-74831205D01*
X104727102Y-74909226D01*
X104927061Y-74949000D01*
X105130939Y-74949000D01*
X105330898Y-74909226D01*
X105519256Y-74831205D01*
X105688774Y-74717937D01*
X105832937Y-74573774D01*
X105946205Y-74404256D01*
X106024226Y-74215898D01*
X106064000Y-74015939D01*
X106064000Y-73812061D01*
X106024226Y-73612102D01*
X105946205Y-73423744D01*
X105832937Y-73254226D01*
X105688774Y-73110063D01*
X105519256Y-72996795D01*
X105330898Y-72918774D01*
X105130939Y-72879000D01*
X104927061Y-72879000D01*
X104727102Y-72918774D01*
X104538744Y-72996795D01*
X104369226Y-73110063D01*
X104225063Y-73254226D01*
X104111795Y-73423744D01*
X104033774Y-73612102D01*
X103994000Y-73812061D01*
X95694079Y-73812061D01*
X95737226Y-73707898D01*
X95777000Y-73507939D01*
X95777000Y-73304061D01*
X95737226Y-73104102D01*
X95659205Y-72915744D01*
X95545937Y-72746226D01*
X95401774Y-72602063D01*
X95232256Y-72488795D01*
X95043898Y-72410774D01*
X94843939Y-72371000D01*
X94640061Y-72371000D01*
X94440102Y-72410774D01*
X94251744Y-72488795D01*
X94082226Y-72602063D01*
X93938063Y-72746226D01*
X93824795Y-72915744D01*
X93746774Y-73104102D01*
X93707000Y-73304061D01*
X82674992Y-73304061D01*
X82674992Y-72808314D01*
X82678668Y-72770991D01*
X82674992Y-72733668D01*
X82674992Y-72733659D01*
X82663995Y-72622006D01*
X82620538Y-72478745D01*
X82549966Y-72346716D01*
X82454993Y-72230991D01*
X82425996Y-72207194D01*
X82315000Y-72096198D01*
X82315000Y-72034061D01*
X82275226Y-71834102D01*
X82197205Y-71645744D01*
X82083937Y-71476226D01*
X81939774Y-71332063D01*
X81770256Y-71218795D01*
X81581898Y-71140774D01*
X81381939Y-71101000D01*
X81178061Y-71101000D01*
X80978102Y-71140774D01*
X80789744Y-71218795D01*
X80620226Y-71332063D01*
X80476063Y-71476226D01*
X80362795Y-71645744D01*
X80284774Y-71834102D01*
X80247078Y-72023612D01*
X80216102Y-72029774D01*
X80027744Y-72107795D01*
X79858226Y-72221063D01*
X79714063Y-72365226D01*
X79600795Y-72534744D01*
X79522774Y-72723102D01*
X79483000Y-72923061D01*
X75771831Y-72923061D01*
X75847205Y-72810256D01*
X75925226Y-72621898D01*
X75965000Y-72421939D01*
X75965000Y-72218061D01*
X75925226Y-72018102D01*
X75847205Y-71829744D01*
X75733937Y-71660226D01*
X75589774Y-71516063D01*
X75420256Y-71402795D01*
X75231898Y-71324774D01*
X75031939Y-71285000D01*
X74828061Y-71285000D01*
X74628102Y-71324774D01*
X74439744Y-71402795D01*
X74270226Y-71516063D01*
X74126063Y-71660226D01*
X74012795Y-71829744D01*
X73977500Y-71914953D01*
X73942205Y-71829744D01*
X73828937Y-71660226D01*
X73684774Y-71516063D01*
X73515256Y-71402795D01*
X73326898Y-71324774D01*
X73126939Y-71285000D01*
X72923061Y-71285000D01*
X72723102Y-71324774D01*
X72534744Y-71402795D01*
X72365226Y-71516063D01*
X72221063Y-71660226D01*
X72107795Y-71829744D01*
X72072500Y-71914953D01*
X72037205Y-71829744D01*
X71923937Y-71660226D01*
X71779774Y-71516063D01*
X71610256Y-71402795D01*
X71421898Y-71324774D01*
X71221939Y-71285000D01*
X71018061Y-71285000D01*
X70818102Y-71324774D01*
X70629744Y-71402795D01*
X70460226Y-71516063D01*
X70316063Y-71660226D01*
X70202795Y-71829744D01*
X70124774Y-72018102D01*
X70085000Y-72218061D01*
X66167000Y-72218061D01*
X66167000Y-70510061D01*
X105518000Y-70510061D01*
X105518000Y-70713939D01*
X105557774Y-70913898D01*
X105635795Y-71102256D01*
X105749063Y-71271774D01*
X105893226Y-71415937D01*
X106062744Y-71529205D01*
X106251102Y-71607226D01*
X106451061Y-71647000D01*
X106654939Y-71647000D01*
X106854898Y-71607226D01*
X107043256Y-71529205D01*
X107212774Y-71415937D01*
X107356937Y-71271774D01*
X107470205Y-71102256D01*
X107548226Y-70913898D01*
X107588000Y-70713939D01*
X107588000Y-70510061D01*
X107548226Y-70310102D01*
X107470205Y-70121744D01*
X107356937Y-69952226D01*
X107212774Y-69808063D01*
X107122975Y-69748061D01*
X107550000Y-69748061D01*
X107550000Y-69951939D01*
X107589774Y-70151898D01*
X107667795Y-70340256D01*
X107781063Y-70509774D01*
X107925226Y-70653937D01*
X108094744Y-70767205D01*
X108283102Y-70845226D01*
X108483061Y-70885000D01*
X108686939Y-70885000D01*
X108886898Y-70845226D01*
X109075256Y-70767205D01*
X109244774Y-70653937D01*
X109388937Y-70509774D01*
X109502205Y-70340256D01*
X109580226Y-70151898D01*
X109620000Y-69951939D01*
X109620000Y-69748061D01*
X109580226Y-69548102D01*
X109502205Y-69359744D01*
X109388937Y-69190226D01*
X109244774Y-69046063D01*
X109075256Y-68932795D01*
X108886898Y-68854774D01*
X108686939Y-68815000D01*
X108483061Y-68815000D01*
X108283102Y-68854774D01*
X108094744Y-68932795D01*
X107925226Y-69046063D01*
X107781063Y-69190226D01*
X107667795Y-69359744D01*
X107589774Y-69548102D01*
X107550000Y-69748061D01*
X107122975Y-69748061D01*
X107043256Y-69694795D01*
X106854898Y-69616774D01*
X106654939Y-69577000D01*
X106451061Y-69577000D01*
X106251102Y-69616774D01*
X106062744Y-69694795D01*
X105893226Y-69808063D01*
X105749063Y-69952226D01*
X105635795Y-70121744D01*
X105557774Y-70310102D01*
X105518000Y-70510061D01*
X66167000Y-70510061D01*
X66167000Y-69113061D01*
X92310000Y-69113061D01*
X92310000Y-69316939D01*
X92349774Y-69516898D01*
X92427795Y-69705256D01*
X92541063Y-69874774D01*
X92685226Y-70018937D01*
X92854744Y-70132205D01*
X93043102Y-70210226D01*
X93243061Y-70250000D01*
X93446939Y-70250000D01*
X93646898Y-70210226D01*
X93835256Y-70132205D01*
X94004774Y-70018937D01*
X94148937Y-69874774D01*
X94262205Y-69705256D01*
X94340226Y-69516898D01*
X94380000Y-69316939D01*
X94380000Y-69113061D01*
X94340226Y-68913102D01*
X94262205Y-68724744D01*
X94148937Y-68555226D01*
X94004774Y-68411063D01*
X93835256Y-68297795D01*
X93646898Y-68219774D01*
X93446939Y-68180000D01*
X93243061Y-68180000D01*
X93043102Y-68219774D01*
X92854744Y-68297795D01*
X92685226Y-68411063D01*
X92541063Y-68555226D01*
X92427795Y-68724744D01*
X92349774Y-68913102D01*
X92310000Y-69113061D01*
X66167000Y-69113061D01*
X66167000Y-66827061D01*
X74657000Y-66827061D01*
X74657000Y-67030939D01*
X74696774Y-67230898D01*
X74774795Y-67419256D01*
X74888063Y-67588774D01*
X75032226Y-67732937D01*
X75201744Y-67846205D01*
X75390102Y-67924226D01*
X75590061Y-67964000D01*
X75793939Y-67964000D01*
X75993898Y-67924226D01*
X76182256Y-67846205D01*
X76351774Y-67732937D01*
X76495937Y-67588774D01*
X76609205Y-67419256D01*
X76687226Y-67230898D01*
X76727000Y-67030939D01*
X76727000Y-66827061D01*
X76687226Y-66627102D01*
X76609205Y-66438744D01*
X76495937Y-66269226D01*
X76351774Y-66125063D01*
X76182256Y-66011795D01*
X75993898Y-65933774D01*
X75793939Y-65894000D01*
X75590061Y-65894000D01*
X75390102Y-65933774D01*
X75201744Y-66011795D01*
X75032226Y-66125063D01*
X74888063Y-66269226D01*
X74774795Y-66438744D01*
X74696774Y-66627102D01*
X74657000Y-66827061D01*
X66167000Y-66827061D01*
X66167000Y-64622285D01*
X78665000Y-64622285D01*
X78665000Y-65377715D01*
X78812377Y-66118628D01*
X79101467Y-66816554D01*
X79521161Y-67444670D01*
X80055330Y-67978839D01*
X80683446Y-68398533D01*
X81381372Y-68687623D01*
X82122285Y-68835000D01*
X82877715Y-68835000D01*
X83618628Y-68687623D01*
X84316554Y-68398533D01*
X84944670Y-67978839D01*
X85478839Y-67444670D01*
X85898533Y-66816554D01*
X86187623Y-66118628D01*
X86274063Y-65684061D01*
X106153000Y-65684061D01*
X106153000Y-65887939D01*
X106192774Y-66087898D01*
X106270795Y-66276256D01*
X106384063Y-66445774D01*
X106528226Y-66589937D01*
X106697744Y-66703205D01*
X106886102Y-66781226D01*
X107086061Y-66821000D01*
X107289939Y-66821000D01*
X107489898Y-66781226D01*
X107678256Y-66703205D01*
X107847774Y-66589937D01*
X107991937Y-66445774D01*
X108105205Y-66276256D01*
X108183226Y-66087898D01*
X108223000Y-65887939D01*
X108223000Y-65684061D01*
X108183226Y-65484102D01*
X108105205Y-65295744D01*
X107991937Y-65126226D01*
X107847774Y-64982063D01*
X107678256Y-64868795D01*
X107489898Y-64790774D01*
X107289939Y-64751000D01*
X107086061Y-64751000D01*
X106886102Y-64790774D01*
X106697744Y-64868795D01*
X106528226Y-64982063D01*
X106384063Y-65126226D01*
X106270795Y-65295744D01*
X106192774Y-65484102D01*
X106153000Y-65684061D01*
X86274063Y-65684061D01*
X86335000Y-65377715D01*
X86335000Y-64622285D01*
X86217796Y-64033061D01*
X94850000Y-64033061D01*
X94850000Y-64236939D01*
X94889774Y-64436898D01*
X94967795Y-64625256D01*
X95081063Y-64794774D01*
X95225226Y-64938937D01*
X95394744Y-65052205D01*
X95583102Y-65130226D01*
X95783061Y-65170000D01*
X95986939Y-65170000D01*
X96186898Y-65130226D01*
X96375256Y-65052205D01*
X96544774Y-64938937D01*
X96688937Y-64794774D01*
X96802205Y-64625256D01*
X96803435Y-64622285D01*
X118665000Y-64622285D01*
X118665000Y-65377715D01*
X118812377Y-66118628D01*
X119101467Y-66816554D01*
X119521161Y-67444670D01*
X120055330Y-67978839D01*
X120683446Y-68398533D01*
X121381372Y-68687623D01*
X122122285Y-68835000D01*
X122877715Y-68835000D01*
X123618628Y-68687623D01*
X124316554Y-68398533D01*
X124944670Y-67978839D01*
X125478839Y-67444670D01*
X125898533Y-66816554D01*
X126187623Y-66118628D01*
X126335000Y-65377715D01*
X126335000Y-64622285D01*
X126187623Y-63881372D01*
X125898533Y-63183446D01*
X125478839Y-62555330D01*
X124944670Y-62021161D01*
X124316554Y-61601467D01*
X123618628Y-61312377D01*
X122877715Y-61165000D01*
X122122285Y-61165000D01*
X121381372Y-61312377D01*
X120683446Y-61601467D01*
X120055330Y-62021161D01*
X119521161Y-62555330D01*
X119101467Y-63183446D01*
X118812377Y-63881372D01*
X118665000Y-64622285D01*
X96803435Y-64622285D01*
X96880226Y-64436898D01*
X96920000Y-64236939D01*
X96920000Y-64033061D01*
X96880226Y-63833102D01*
X96802205Y-63644744D01*
X96688937Y-63475226D01*
X96544774Y-63331063D01*
X96375256Y-63217795D01*
X96186898Y-63139774D01*
X95986939Y-63100000D01*
X95783061Y-63100000D01*
X95583102Y-63139774D01*
X95394744Y-63217795D01*
X95225226Y-63331063D01*
X95081063Y-63475226D01*
X94967795Y-63644744D01*
X94889774Y-63833102D01*
X94850000Y-64033061D01*
X86217796Y-64033061D01*
X86187623Y-63881372D01*
X85898533Y-63183446D01*
X85478839Y-62555330D01*
X84944670Y-62021161D01*
X84316554Y-61601467D01*
X83618628Y-61312377D01*
X82877715Y-61165000D01*
X82122285Y-61165000D01*
X81381372Y-61312377D01*
X80683446Y-61601467D01*
X80055330Y-62021161D01*
X79521161Y-62555330D01*
X79101467Y-63183446D01*
X78812377Y-63881372D01*
X78665000Y-64622285D01*
X66167000Y-64622285D01*
X66167000Y-61012606D01*
X67362606Y-59817000D01*
X133297394Y-59817000D01*
X134493000Y-61012606D01*
M02*
